G04 EAGLE Gerber RS-274X export*
G75*
%MOMM*%
%FSLAX34Y34*%
%LPD*%
%IN*%
%IPPOS*%
%AMOC8*
5,1,8,0,0,1.08239X$1,22.5*%
G01*
%ADD10C,0.254000*%


D10*
X0Y0D02*
X508000Y0D01*
X508000Y508000D01*
X0Y508000D01*
X0Y0D01*
X240000Y79300D02*
X268000Y79300D01*
X268000Y89300D01*
X240000Y89300D01*
X240000Y79300D01*
X237500Y140300D02*
X270500Y140300D01*
X270500Y150300D01*
X237500Y150300D01*
X237500Y140300D01*
X297000Y100300D02*
X307000Y100300D01*
X307000Y128300D01*
X297000Y128300D01*
X297000Y100300D01*
X40000Y24464D02*
X39924Y23396D01*
X39771Y22335D01*
X39543Y21288D01*
X39241Y20260D01*
X38867Y19256D01*
X38422Y18281D01*
X37908Y17341D01*
X37329Y16440D01*
X36687Y15582D01*
X35985Y14772D01*
X35228Y14015D01*
X34418Y13313D01*
X33560Y12671D01*
X32659Y12092D01*
X31719Y11578D01*
X30744Y11133D01*
X29740Y10759D01*
X28712Y10457D01*
X27665Y10229D01*
X26604Y10076D01*
X25536Y10000D01*
X24464Y10000D01*
X23396Y10076D01*
X22335Y10229D01*
X21288Y10457D01*
X20260Y10759D01*
X19256Y11133D01*
X18281Y11578D01*
X17341Y12092D01*
X16440Y12671D01*
X15582Y13313D01*
X14772Y14015D01*
X14015Y14772D01*
X13313Y15582D01*
X12671Y16440D01*
X12092Y17341D01*
X11578Y18281D01*
X11133Y19256D01*
X10759Y20260D01*
X10457Y21288D01*
X10229Y22335D01*
X10076Y23396D01*
X10000Y24464D01*
X10000Y25536D01*
X10076Y26604D01*
X10229Y27665D01*
X10457Y28712D01*
X10759Y29740D01*
X11133Y30744D01*
X11578Y31719D01*
X12092Y32659D01*
X12671Y33560D01*
X13313Y34418D01*
X14015Y35228D01*
X14772Y35985D01*
X15582Y36687D01*
X16440Y37329D01*
X17341Y37908D01*
X18281Y38422D01*
X19256Y38867D01*
X20260Y39241D01*
X21288Y39543D01*
X22335Y39771D01*
X23396Y39924D01*
X24464Y40000D01*
X25536Y40000D01*
X26604Y39924D01*
X27665Y39771D01*
X28712Y39543D01*
X29740Y39241D01*
X30744Y38867D01*
X31719Y38422D01*
X32659Y37908D01*
X33560Y37329D01*
X34418Y36687D01*
X35228Y35985D01*
X35985Y35228D01*
X36687Y34418D01*
X37329Y33560D01*
X37908Y32659D01*
X38422Y31719D01*
X38867Y30744D01*
X39241Y29740D01*
X39543Y28712D01*
X39771Y27665D01*
X39924Y26604D01*
X40000Y25536D01*
X40000Y24464D01*
X40000Y482464D02*
X39924Y481396D01*
X39771Y480335D01*
X39543Y479288D01*
X39241Y478260D01*
X38867Y477256D01*
X38422Y476281D01*
X37908Y475341D01*
X37329Y474440D01*
X36687Y473582D01*
X35985Y472772D01*
X35228Y472015D01*
X34418Y471313D01*
X33560Y470671D01*
X32659Y470092D01*
X31719Y469578D01*
X30744Y469133D01*
X29740Y468759D01*
X28712Y468457D01*
X27665Y468229D01*
X26604Y468076D01*
X25536Y468000D01*
X24464Y468000D01*
X23396Y468076D01*
X22335Y468229D01*
X21288Y468457D01*
X20260Y468759D01*
X19256Y469133D01*
X18281Y469578D01*
X17341Y470092D01*
X16440Y470671D01*
X15582Y471313D01*
X14772Y472015D01*
X14015Y472772D01*
X13313Y473582D01*
X12671Y474440D01*
X12092Y475341D01*
X11578Y476281D01*
X11133Y477256D01*
X10759Y478260D01*
X10457Y479288D01*
X10229Y480335D01*
X10076Y481396D01*
X10000Y482464D01*
X10000Y483536D01*
X10076Y484604D01*
X10229Y485665D01*
X10457Y486712D01*
X10759Y487740D01*
X11133Y488744D01*
X11578Y489719D01*
X12092Y490659D01*
X12671Y491560D01*
X13313Y492418D01*
X14015Y493228D01*
X14772Y493985D01*
X15582Y494687D01*
X16440Y495329D01*
X17341Y495908D01*
X18281Y496422D01*
X19256Y496867D01*
X20260Y497241D01*
X21288Y497543D01*
X22335Y497771D01*
X23396Y497924D01*
X24464Y498000D01*
X25536Y498000D01*
X26604Y497924D01*
X27665Y497771D01*
X28712Y497543D01*
X29740Y497241D01*
X30744Y496867D01*
X31719Y496422D01*
X32659Y495908D01*
X33560Y495329D01*
X34418Y494687D01*
X35228Y493985D01*
X35985Y493228D01*
X36687Y492418D01*
X37329Y491560D01*
X37908Y490659D01*
X38422Y489719D01*
X38867Y488744D01*
X39241Y487740D01*
X39543Y486712D01*
X39771Y485665D01*
X39924Y484604D01*
X40000Y483536D01*
X40000Y482464D01*
X498000Y482464D02*
X497924Y481396D01*
X497771Y480335D01*
X497543Y479288D01*
X497241Y478260D01*
X496867Y477256D01*
X496422Y476281D01*
X495908Y475341D01*
X495329Y474440D01*
X494687Y473582D01*
X493985Y472772D01*
X493228Y472015D01*
X492418Y471313D01*
X491560Y470671D01*
X490659Y470092D01*
X489719Y469578D01*
X488744Y469133D01*
X487740Y468759D01*
X486712Y468457D01*
X485665Y468229D01*
X484604Y468076D01*
X483536Y468000D01*
X482464Y468000D01*
X481396Y468076D01*
X480335Y468229D01*
X479288Y468457D01*
X478260Y468759D01*
X477256Y469133D01*
X476281Y469578D01*
X475341Y470092D01*
X474440Y470671D01*
X473582Y471313D01*
X472772Y472015D01*
X472015Y472772D01*
X471313Y473582D01*
X470671Y474440D01*
X470092Y475341D01*
X469578Y476281D01*
X469133Y477256D01*
X468759Y478260D01*
X468457Y479288D01*
X468229Y480335D01*
X468076Y481396D01*
X468000Y482464D01*
X468000Y483536D01*
X468076Y484604D01*
X468229Y485665D01*
X468457Y486712D01*
X468759Y487740D01*
X469133Y488744D01*
X469578Y489719D01*
X470092Y490659D01*
X470671Y491560D01*
X471313Y492418D01*
X472015Y493228D01*
X472772Y493985D01*
X473582Y494687D01*
X474440Y495329D01*
X475341Y495908D01*
X476281Y496422D01*
X477256Y496867D01*
X478260Y497241D01*
X479288Y497543D01*
X480335Y497771D01*
X481396Y497924D01*
X482464Y498000D01*
X483536Y498000D01*
X484604Y497924D01*
X485665Y497771D01*
X486712Y497543D01*
X487740Y497241D01*
X488744Y496867D01*
X489719Y496422D01*
X490659Y495908D01*
X491560Y495329D01*
X492418Y494687D01*
X493228Y493985D01*
X493985Y493228D01*
X494687Y492418D01*
X495329Y491560D01*
X495908Y490659D01*
X496422Y489719D01*
X496867Y488744D01*
X497241Y487740D01*
X497543Y486712D01*
X497771Y485665D01*
X497924Y484604D01*
X498000Y483536D01*
X498000Y482464D01*
X498000Y24464D02*
X497924Y23396D01*
X497771Y22335D01*
X497543Y21288D01*
X497241Y20260D01*
X496867Y19256D01*
X496422Y18281D01*
X495908Y17341D01*
X495329Y16440D01*
X494687Y15582D01*
X493985Y14772D01*
X493228Y14015D01*
X492418Y13313D01*
X491560Y12671D01*
X490659Y12092D01*
X489719Y11578D01*
X488744Y11133D01*
X487740Y10759D01*
X486712Y10457D01*
X485665Y10229D01*
X484604Y10076D01*
X483536Y10000D01*
X482464Y10000D01*
X481396Y10076D01*
X480335Y10229D01*
X479288Y10457D01*
X478260Y10759D01*
X477256Y11133D01*
X476281Y11578D01*
X475341Y12092D01*
X474440Y12671D01*
X473582Y13313D01*
X472772Y14015D01*
X472015Y14772D01*
X471313Y15582D01*
X470671Y16440D01*
X470092Y17341D01*
X469578Y18281D01*
X469133Y19256D01*
X468759Y20260D01*
X468457Y21288D01*
X468229Y22335D01*
X468076Y23396D01*
X468000Y24464D01*
X468000Y25536D01*
X468076Y26604D01*
X468229Y27665D01*
X468457Y28712D01*
X468759Y29740D01*
X469133Y30744D01*
X469578Y31719D01*
X470092Y32659D01*
X470671Y33560D01*
X471313Y34418D01*
X472015Y35228D01*
X472772Y35985D01*
X473582Y36687D01*
X474440Y37329D01*
X475341Y37908D01*
X476281Y38422D01*
X477256Y38867D01*
X478260Y39241D01*
X479288Y39543D01*
X480335Y39771D01*
X481396Y39924D01*
X482464Y40000D01*
X483536Y40000D01*
X484604Y39924D01*
X485665Y39771D01*
X486712Y39543D01*
X487740Y39241D01*
X488744Y38867D01*
X489719Y38422D01*
X490659Y37908D01*
X491560Y37329D01*
X492418Y36687D01*
X493228Y35985D01*
X493985Y35228D01*
X494687Y34418D01*
X495329Y33560D01*
X495908Y32659D01*
X496422Y31719D01*
X496867Y30744D01*
X497241Y29740D01*
X497543Y28712D01*
X497771Y27665D01*
X497924Y26604D01*
X498000Y25536D01*
X498000Y24464D01*
M02*
