G04 EAGLE Gerber RS-274X export*
G75*
%MOMM*%
%FSLAX34Y34*%
%LPD*%
%INSilkscreen Top*%
%IPPOS*%
%AMOC8*
5,1,8,0,0,1.08239X$1,22.5*%
G01*
%ADD10C,0.152400*%
%ADD11C,0.101600*%
%ADD12C,0.203200*%
%ADD13C,0.127000*%
%ADD14C,0.508000*%
%ADD15C,0.076200*%
%ADD16C,0.177800*%


D10*
X391922Y361442D02*
X397341Y361442D01*
X397459Y361444D01*
X397577Y361450D01*
X397695Y361459D01*
X397812Y361473D01*
X397929Y361490D01*
X398046Y361511D01*
X398161Y361536D01*
X398276Y361565D01*
X398390Y361598D01*
X398502Y361634D01*
X398613Y361674D01*
X398723Y361717D01*
X398832Y361764D01*
X398939Y361814D01*
X399044Y361869D01*
X399147Y361926D01*
X399248Y361987D01*
X399348Y362051D01*
X399445Y362118D01*
X399540Y362188D01*
X399632Y362262D01*
X399723Y362338D01*
X399810Y362418D01*
X399895Y362500D01*
X399977Y362585D01*
X400057Y362672D01*
X400133Y362763D01*
X400207Y362855D01*
X400277Y362950D01*
X400344Y363047D01*
X400408Y363147D01*
X400469Y363248D01*
X400526Y363351D01*
X400581Y363456D01*
X400631Y363563D01*
X400678Y363672D01*
X400721Y363782D01*
X400761Y363893D01*
X400797Y364005D01*
X400830Y364119D01*
X400859Y364234D01*
X400884Y364349D01*
X400905Y364466D01*
X400922Y364583D01*
X400936Y364700D01*
X400945Y364818D01*
X400951Y364936D01*
X400953Y365054D01*
X400953Y366861D01*
X400951Y366979D01*
X400945Y367097D01*
X400936Y367215D01*
X400922Y367332D01*
X400905Y367449D01*
X400884Y367566D01*
X400859Y367681D01*
X400830Y367796D01*
X400797Y367910D01*
X400761Y368022D01*
X400721Y368133D01*
X400678Y368243D01*
X400631Y368352D01*
X400581Y368459D01*
X400526Y368564D01*
X400469Y368667D01*
X400408Y368768D01*
X400344Y368868D01*
X400277Y368965D01*
X400207Y369060D01*
X400133Y369152D01*
X400057Y369243D01*
X399977Y369330D01*
X399895Y369415D01*
X399810Y369497D01*
X399723Y369577D01*
X399632Y369653D01*
X399540Y369727D01*
X399445Y369797D01*
X399348Y369864D01*
X399248Y369928D01*
X399147Y369989D01*
X399044Y370046D01*
X398939Y370101D01*
X398832Y370151D01*
X398723Y370198D01*
X398613Y370241D01*
X398502Y370281D01*
X398390Y370317D01*
X398276Y370350D01*
X398161Y370379D01*
X398046Y370404D01*
X397929Y370425D01*
X397812Y370442D01*
X397695Y370456D01*
X397577Y370465D01*
X397459Y370471D01*
X397341Y370473D01*
X391922Y370473D01*
X391922Y377698D01*
X400953Y377698D01*
X406650Y377698D02*
X412069Y361442D01*
X417487Y377698D01*
X400953Y346343D02*
X398244Y346343D01*
X400953Y346343D02*
X400953Y337312D01*
X395534Y337312D01*
X395416Y337314D01*
X395298Y337320D01*
X395180Y337329D01*
X395063Y337343D01*
X394946Y337360D01*
X394829Y337381D01*
X394714Y337406D01*
X394599Y337435D01*
X394485Y337468D01*
X394373Y337504D01*
X394262Y337544D01*
X394152Y337587D01*
X394043Y337634D01*
X393936Y337684D01*
X393831Y337739D01*
X393728Y337796D01*
X393627Y337857D01*
X393527Y337921D01*
X393430Y337988D01*
X393335Y338058D01*
X393243Y338132D01*
X393152Y338208D01*
X393065Y338288D01*
X392980Y338370D01*
X392898Y338455D01*
X392818Y338542D01*
X392742Y338633D01*
X392668Y338725D01*
X392598Y338820D01*
X392531Y338917D01*
X392467Y339017D01*
X392406Y339118D01*
X392349Y339221D01*
X392294Y339326D01*
X392244Y339433D01*
X392197Y339542D01*
X392154Y339652D01*
X392114Y339763D01*
X392078Y339875D01*
X392045Y339989D01*
X392016Y340104D01*
X391991Y340219D01*
X391970Y340336D01*
X391953Y340453D01*
X391939Y340570D01*
X391930Y340688D01*
X391924Y340806D01*
X391922Y340924D01*
X391922Y349956D01*
X391924Y350074D01*
X391930Y350192D01*
X391939Y350310D01*
X391953Y350427D01*
X391970Y350544D01*
X391991Y350661D01*
X392016Y350776D01*
X392045Y350891D01*
X392078Y351005D01*
X392114Y351117D01*
X392154Y351228D01*
X392197Y351338D01*
X392244Y351447D01*
X392294Y351554D01*
X392348Y351659D01*
X392406Y351762D01*
X392467Y351863D01*
X392531Y351963D01*
X392598Y352060D01*
X392668Y352155D01*
X392742Y352247D01*
X392818Y352338D01*
X392898Y352425D01*
X392980Y352510D01*
X393065Y352592D01*
X393152Y352672D01*
X393243Y352748D01*
X393335Y352822D01*
X393430Y352892D01*
X393527Y352959D01*
X393627Y353023D01*
X393728Y353084D01*
X393831Y353141D01*
X393936Y353195D01*
X394043Y353246D01*
X394152Y353293D01*
X394262Y353336D01*
X394373Y353376D01*
X394485Y353412D01*
X394599Y353445D01*
X394714Y353474D01*
X394829Y353499D01*
X394946Y353520D01*
X395063Y353537D01*
X395180Y353551D01*
X395298Y353560D01*
X395416Y353566D01*
X395534Y353568D01*
X400953Y353568D01*
X408595Y353568D02*
X408595Y337312D01*
X417626Y337312D02*
X408595Y353568D01*
X417626Y353568D02*
X417626Y337312D01*
X425269Y337312D02*
X425269Y353568D01*
X429784Y353568D01*
X429915Y353566D01*
X430047Y353560D01*
X430178Y353551D01*
X430308Y353537D01*
X430439Y353520D01*
X430568Y353499D01*
X430697Y353475D01*
X430825Y353446D01*
X430953Y353414D01*
X431079Y353378D01*
X431204Y353339D01*
X431329Y353296D01*
X431451Y353249D01*
X431573Y353199D01*
X431693Y353145D01*
X431811Y353088D01*
X431927Y353027D01*
X432042Y352963D01*
X432155Y352896D01*
X432266Y352825D01*
X432374Y352751D01*
X432481Y352674D01*
X432585Y352594D01*
X432687Y352511D01*
X432786Y352426D01*
X432883Y352337D01*
X432977Y352245D01*
X433069Y352151D01*
X433158Y352054D01*
X433243Y351955D01*
X433326Y351853D01*
X433406Y351749D01*
X433483Y351642D01*
X433557Y351534D01*
X433628Y351423D01*
X433695Y351310D01*
X433759Y351195D01*
X433820Y351079D01*
X433877Y350961D01*
X433931Y350841D01*
X433981Y350719D01*
X434028Y350597D01*
X434071Y350472D01*
X434110Y350347D01*
X434146Y350221D01*
X434178Y350093D01*
X434207Y349965D01*
X434231Y349836D01*
X434252Y349707D01*
X434269Y349576D01*
X434283Y349446D01*
X434292Y349315D01*
X434298Y349183D01*
X434300Y349052D01*
X434300Y341828D01*
X434298Y341697D01*
X434292Y341565D01*
X434283Y341434D01*
X434269Y341304D01*
X434252Y341173D01*
X434231Y341044D01*
X434207Y340915D01*
X434178Y340787D01*
X434146Y340659D01*
X434110Y340533D01*
X434071Y340408D01*
X434028Y340283D01*
X433981Y340161D01*
X433931Y340039D01*
X433877Y339919D01*
X433820Y339801D01*
X433759Y339685D01*
X433695Y339570D01*
X433628Y339457D01*
X433557Y339346D01*
X433483Y339238D01*
X433406Y339131D01*
X433326Y339027D01*
X433243Y338925D01*
X433158Y338826D01*
X433069Y338729D01*
X432977Y338635D01*
X432883Y338543D01*
X432786Y338454D01*
X432687Y338369D01*
X432585Y338286D01*
X432481Y338206D01*
X432374Y338129D01*
X432266Y338055D01*
X432155Y337984D01*
X432042Y337917D01*
X431927Y337853D01*
X431811Y337792D01*
X431693Y337735D01*
X431573Y337681D01*
X431451Y337631D01*
X431329Y337584D01*
X431204Y337541D01*
X431079Y337502D01*
X430953Y337466D01*
X430825Y337434D01*
X430697Y337405D01*
X430568Y337381D01*
X430438Y337360D01*
X430308Y337343D01*
X430178Y337329D01*
X430047Y337320D01*
X429915Y337314D01*
X429784Y337312D01*
X425269Y337312D01*
X391922Y330708D02*
X391922Y314452D01*
X397341Y321677D02*
X391922Y330708D01*
X397341Y321677D02*
X402759Y330708D01*
X402759Y314452D01*
X410019Y318968D02*
X410019Y326192D01*
X410021Y326325D01*
X410027Y326457D01*
X410037Y326589D01*
X410050Y326721D01*
X410068Y326853D01*
X410089Y326983D01*
X410114Y327114D01*
X410143Y327243D01*
X410176Y327371D01*
X410212Y327499D01*
X410252Y327625D01*
X410296Y327750D01*
X410344Y327874D01*
X410395Y327996D01*
X410450Y328117D01*
X410508Y328236D01*
X410570Y328354D01*
X410635Y328469D01*
X410704Y328583D01*
X410775Y328694D01*
X410851Y328803D01*
X410929Y328910D01*
X411010Y329015D01*
X411095Y329117D01*
X411182Y329217D01*
X411272Y329314D01*
X411365Y329409D01*
X411461Y329500D01*
X411559Y329589D01*
X411660Y329675D01*
X411764Y329758D01*
X411870Y329838D01*
X411978Y329914D01*
X412088Y329988D01*
X412201Y330058D01*
X412315Y330125D01*
X412432Y330188D01*
X412550Y330248D01*
X412670Y330305D01*
X412792Y330358D01*
X412915Y330407D01*
X413039Y330453D01*
X413165Y330495D01*
X413292Y330533D01*
X413420Y330568D01*
X413549Y330599D01*
X413678Y330626D01*
X413809Y330649D01*
X413940Y330669D01*
X414072Y330684D01*
X414204Y330696D01*
X414336Y330704D01*
X414469Y330708D01*
X414601Y330708D01*
X414734Y330704D01*
X414866Y330696D01*
X414998Y330684D01*
X415130Y330669D01*
X415261Y330649D01*
X415392Y330626D01*
X415521Y330599D01*
X415650Y330568D01*
X415778Y330533D01*
X415905Y330495D01*
X416031Y330453D01*
X416155Y330407D01*
X416278Y330358D01*
X416400Y330305D01*
X416520Y330248D01*
X416638Y330188D01*
X416755Y330125D01*
X416869Y330058D01*
X416982Y329988D01*
X417092Y329914D01*
X417200Y329838D01*
X417306Y329758D01*
X417410Y329675D01*
X417511Y329589D01*
X417609Y329500D01*
X417705Y329409D01*
X417798Y329314D01*
X417888Y329217D01*
X417975Y329117D01*
X418060Y329015D01*
X418141Y328910D01*
X418219Y328803D01*
X418295Y328694D01*
X418366Y328583D01*
X418435Y328469D01*
X418500Y328354D01*
X418562Y328236D01*
X418620Y328117D01*
X418675Y327996D01*
X418726Y327874D01*
X418774Y327750D01*
X418818Y327625D01*
X418858Y327499D01*
X418894Y327371D01*
X418927Y327243D01*
X418956Y327114D01*
X418981Y326983D01*
X419002Y326853D01*
X419020Y326721D01*
X419033Y326589D01*
X419043Y326457D01*
X419049Y326325D01*
X419051Y326192D01*
X419051Y318968D01*
X419049Y318835D01*
X419043Y318703D01*
X419033Y318571D01*
X419020Y318439D01*
X419002Y318307D01*
X418981Y318177D01*
X418956Y318046D01*
X418927Y317917D01*
X418894Y317789D01*
X418858Y317661D01*
X418818Y317535D01*
X418774Y317410D01*
X418726Y317286D01*
X418675Y317164D01*
X418620Y317043D01*
X418562Y316924D01*
X418500Y316806D01*
X418435Y316691D01*
X418366Y316577D01*
X418295Y316466D01*
X418219Y316357D01*
X418141Y316250D01*
X418060Y316145D01*
X417975Y316043D01*
X417888Y315943D01*
X417798Y315846D01*
X417705Y315751D01*
X417609Y315660D01*
X417511Y315571D01*
X417410Y315485D01*
X417306Y315402D01*
X417200Y315322D01*
X417092Y315246D01*
X416982Y315172D01*
X416869Y315102D01*
X416755Y315035D01*
X416638Y314972D01*
X416520Y314912D01*
X416400Y314855D01*
X416278Y314802D01*
X416155Y314753D01*
X416031Y314707D01*
X415905Y314665D01*
X415778Y314627D01*
X415650Y314592D01*
X415521Y314561D01*
X415392Y314534D01*
X415261Y314511D01*
X415130Y314491D01*
X414998Y314476D01*
X414866Y314464D01*
X414734Y314456D01*
X414601Y314452D01*
X414469Y314452D01*
X414336Y314456D01*
X414204Y314464D01*
X414072Y314476D01*
X413940Y314491D01*
X413809Y314511D01*
X413678Y314534D01*
X413549Y314561D01*
X413420Y314592D01*
X413292Y314627D01*
X413165Y314665D01*
X413039Y314707D01*
X412915Y314753D01*
X412792Y314802D01*
X412670Y314855D01*
X412550Y314912D01*
X412432Y314972D01*
X412315Y315035D01*
X412201Y315102D01*
X412088Y315172D01*
X411978Y315246D01*
X411870Y315322D01*
X411764Y315402D01*
X411660Y315485D01*
X411559Y315571D01*
X411461Y315660D01*
X411365Y315751D01*
X411272Y315846D01*
X411182Y315943D01*
X411095Y316043D01*
X411010Y316145D01*
X410929Y316250D01*
X410851Y316357D01*
X410775Y316466D01*
X410704Y316577D01*
X410635Y316691D01*
X410570Y316806D01*
X410508Y316924D01*
X410450Y317043D01*
X410395Y317164D01*
X410344Y317286D01*
X410296Y317410D01*
X410252Y317535D01*
X410212Y317661D01*
X410176Y317789D01*
X410143Y317917D01*
X410114Y318046D01*
X410089Y318177D01*
X410068Y318307D01*
X410050Y318439D01*
X410037Y318571D01*
X410027Y318703D01*
X410021Y318835D01*
X410019Y318968D01*
X430548Y314452D02*
X430666Y314454D01*
X430784Y314460D01*
X430902Y314469D01*
X431019Y314483D01*
X431136Y314500D01*
X431253Y314521D01*
X431368Y314546D01*
X431483Y314575D01*
X431597Y314608D01*
X431709Y314644D01*
X431820Y314684D01*
X431930Y314727D01*
X432039Y314774D01*
X432146Y314824D01*
X432251Y314879D01*
X432354Y314936D01*
X432455Y314997D01*
X432555Y315061D01*
X432652Y315128D01*
X432747Y315198D01*
X432839Y315272D01*
X432930Y315348D01*
X433017Y315428D01*
X433102Y315510D01*
X433184Y315595D01*
X433264Y315682D01*
X433340Y315773D01*
X433414Y315865D01*
X433484Y315960D01*
X433551Y316057D01*
X433615Y316157D01*
X433676Y316258D01*
X433733Y316361D01*
X433788Y316466D01*
X433838Y316573D01*
X433885Y316682D01*
X433928Y316792D01*
X433968Y316903D01*
X434004Y317015D01*
X434037Y317129D01*
X434066Y317244D01*
X434091Y317359D01*
X434112Y317476D01*
X434129Y317593D01*
X434143Y317710D01*
X434152Y317828D01*
X434158Y317946D01*
X434160Y318064D01*
X430548Y314452D02*
X430365Y314454D01*
X430183Y314461D01*
X430001Y314472D01*
X429819Y314487D01*
X429637Y314507D01*
X429456Y314530D01*
X429276Y314559D01*
X429096Y314591D01*
X428917Y314628D01*
X428740Y314669D01*
X428563Y314715D01*
X428387Y314764D01*
X428213Y314818D01*
X428039Y314876D01*
X427868Y314938D01*
X427698Y315004D01*
X427529Y315075D01*
X427362Y315149D01*
X427197Y315227D01*
X427034Y315309D01*
X426873Y315395D01*
X426714Y315485D01*
X426557Y315579D01*
X426403Y315676D01*
X426251Y315777D01*
X426101Y315882D01*
X425954Y315990D01*
X425810Y316101D01*
X425668Y316216D01*
X425529Y316335D01*
X425393Y316457D01*
X425260Y316582D01*
X425130Y316710D01*
X425582Y327096D02*
X425584Y327214D01*
X425590Y327332D01*
X425599Y327450D01*
X425613Y327567D01*
X425630Y327684D01*
X425651Y327801D01*
X425676Y327916D01*
X425705Y328031D01*
X425738Y328145D01*
X425774Y328257D01*
X425814Y328368D01*
X425857Y328478D01*
X425904Y328587D01*
X425954Y328694D01*
X426009Y328799D01*
X426066Y328902D01*
X426127Y329003D01*
X426191Y329103D01*
X426258Y329200D01*
X426328Y329295D01*
X426402Y329387D01*
X426478Y329478D01*
X426558Y329565D01*
X426640Y329650D01*
X426725Y329732D01*
X426812Y329812D01*
X426903Y329888D01*
X426995Y329962D01*
X427090Y330032D01*
X427187Y330099D01*
X427287Y330163D01*
X427388Y330224D01*
X427491Y330282D01*
X427596Y330336D01*
X427703Y330386D01*
X427812Y330433D01*
X427922Y330477D01*
X428033Y330516D01*
X428146Y330552D01*
X428259Y330585D01*
X428374Y330614D01*
X428489Y330639D01*
X428606Y330660D01*
X428723Y330677D01*
X428840Y330691D01*
X428958Y330700D01*
X429076Y330706D01*
X429194Y330708D01*
X429355Y330706D01*
X429517Y330700D01*
X429678Y330691D01*
X429839Y330677D01*
X429999Y330660D01*
X430159Y330639D01*
X430319Y330614D01*
X430478Y330585D01*
X430636Y330553D01*
X430793Y330517D01*
X430949Y330477D01*
X431105Y330433D01*
X431259Y330385D01*
X431412Y330334D01*
X431564Y330280D01*
X431715Y330221D01*
X431864Y330160D01*
X432011Y330094D01*
X432157Y330025D01*
X432302Y329953D01*
X432444Y329877D01*
X432585Y329798D01*
X432724Y329716D01*
X432860Y329630D01*
X432995Y329541D01*
X433128Y329449D01*
X433258Y329353D01*
X427387Y323935D02*
X427286Y323997D01*
X427186Y324062D01*
X427089Y324131D01*
X426994Y324203D01*
X426901Y324277D01*
X426811Y324355D01*
X426723Y324436D01*
X426638Y324519D01*
X426556Y324605D01*
X426477Y324694D01*
X426400Y324785D01*
X426327Y324879D01*
X426256Y324975D01*
X426189Y325073D01*
X426125Y325173D01*
X426064Y325276D01*
X426007Y325380D01*
X425953Y325486D01*
X425903Y325594D01*
X425856Y325703D01*
X425812Y325814D01*
X425772Y325926D01*
X425736Y326040D01*
X425704Y326154D01*
X425675Y326270D01*
X425650Y326386D01*
X425629Y326503D01*
X425612Y326621D01*
X425598Y326739D01*
X425589Y326858D01*
X425583Y326977D01*
X425581Y327096D01*
X432355Y321225D02*
X432456Y321163D01*
X432556Y321098D01*
X432653Y321029D01*
X432748Y320957D01*
X432841Y320883D01*
X432931Y320805D01*
X433019Y320724D01*
X433104Y320641D01*
X433186Y320555D01*
X433265Y320466D01*
X433342Y320375D01*
X433415Y320281D01*
X433486Y320185D01*
X433553Y320087D01*
X433617Y319987D01*
X433678Y319884D01*
X433735Y319780D01*
X433789Y319674D01*
X433839Y319566D01*
X433886Y319457D01*
X433930Y319346D01*
X433970Y319234D01*
X434006Y319120D01*
X434038Y319006D01*
X434067Y318890D01*
X434092Y318774D01*
X434113Y318657D01*
X434130Y318539D01*
X434144Y318421D01*
X434153Y318302D01*
X434159Y318183D01*
X434161Y318064D01*
X432355Y321225D02*
X427387Y323935D01*
X441629Y330708D02*
X441629Y314452D01*
X439823Y314452D02*
X443435Y314452D01*
X443435Y330708D02*
X439823Y330708D01*
X400953Y292664D02*
X400951Y292546D01*
X400945Y292428D01*
X400936Y292310D01*
X400922Y292193D01*
X400905Y292076D01*
X400884Y291959D01*
X400859Y291844D01*
X400830Y291729D01*
X400797Y291615D01*
X400761Y291503D01*
X400721Y291392D01*
X400678Y291282D01*
X400631Y291173D01*
X400581Y291066D01*
X400526Y290961D01*
X400469Y290858D01*
X400408Y290757D01*
X400344Y290657D01*
X400277Y290560D01*
X400207Y290465D01*
X400133Y290373D01*
X400057Y290282D01*
X399977Y290195D01*
X399895Y290110D01*
X399810Y290028D01*
X399723Y289948D01*
X399632Y289872D01*
X399540Y289798D01*
X399445Y289728D01*
X399348Y289661D01*
X399248Y289597D01*
X399147Y289536D01*
X399044Y289479D01*
X398939Y289424D01*
X398832Y289374D01*
X398723Y289327D01*
X398613Y289284D01*
X398502Y289244D01*
X398390Y289208D01*
X398276Y289175D01*
X398161Y289146D01*
X398046Y289121D01*
X397929Y289100D01*
X397812Y289083D01*
X397695Y289069D01*
X397577Y289060D01*
X397459Y289054D01*
X397341Y289052D01*
X397158Y289054D01*
X396976Y289061D01*
X396794Y289072D01*
X396612Y289087D01*
X396430Y289107D01*
X396249Y289130D01*
X396069Y289159D01*
X395889Y289191D01*
X395710Y289228D01*
X395533Y289269D01*
X395356Y289315D01*
X395180Y289364D01*
X395006Y289418D01*
X394832Y289476D01*
X394661Y289538D01*
X394491Y289604D01*
X394322Y289675D01*
X394155Y289749D01*
X393990Y289827D01*
X393827Y289909D01*
X393666Y289995D01*
X393507Y290085D01*
X393350Y290179D01*
X393196Y290276D01*
X393044Y290377D01*
X392894Y290482D01*
X392747Y290590D01*
X392603Y290701D01*
X392461Y290816D01*
X392322Y290935D01*
X392186Y291057D01*
X392053Y291182D01*
X391923Y291310D01*
X392374Y301696D02*
X392376Y301814D01*
X392382Y301932D01*
X392391Y302050D01*
X392405Y302167D01*
X392422Y302284D01*
X392443Y302401D01*
X392468Y302516D01*
X392497Y302631D01*
X392530Y302745D01*
X392566Y302857D01*
X392606Y302968D01*
X392649Y303078D01*
X392696Y303187D01*
X392746Y303294D01*
X392801Y303399D01*
X392858Y303502D01*
X392919Y303603D01*
X392983Y303703D01*
X393050Y303800D01*
X393120Y303895D01*
X393194Y303987D01*
X393270Y304078D01*
X393350Y304165D01*
X393432Y304250D01*
X393517Y304332D01*
X393604Y304412D01*
X393695Y304488D01*
X393787Y304562D01*
X393882Y304632D01*
X393979Y304699D01*
X394079Y304763D01*
X394180Y304824D01*
X394283Y304882D01*
X394388Y304936D01*
X394495Y304986D01*
X394604Y305033D01*
X394714Y305077D01*
X394825Y305116D01*
X394938Y305152D01*
X395051Y305185D01*
X395166Y305214D01*
X395281Y305239D01*
X395398Y305260D01*
X395515Y305277D01*
X395632Y305291D01*
X395750Y305300D01*
X395868Y305306D01*
X395986Y305308D01*
X396147Y305306D01*
X396309Y305300D01*
X396470Y305291D01*
X396631Y305277D01*
X396791Y305260D01*
X396951Y305239D01*
X397111Y305214D01*
X397270Y305185D01*
X397428Y305153D01*
X397585Y305117D01*
X397741Y305077D01*
X397897Y305033D01*
X398051Y304985D01*
X398204Y304934D01*
X398356Y304880D01*
X398507Y304821D01*
X398656Y304760D01*
X398803Y304694D01*
X398949Y304625D01*
X399094Y304553D01*
X399236Y304477D01*
X399377Y304398D01*
X399516Y304316D01*
X399652Y304230D01*
X399787Y304141D01*
X399920Y304049D01*
X400050Y303953D01*
X394179Y298535D02*
X394078Y298597D01*
X393978Y298662D01*
X393881Y298731D01*
X393786Y298803D01*
X393693Y298877D01*
X393603Y298955D01*
X393515Y299036D01*
X393430Y299119D01*
X393348Y299205D01*
X393269Y299294D01*
X393192Y299385D01*
X393119Y299479D01*
X393048Y299575D01*
X392981Y299673D01*
X392917Y299773D01*
X392856Y299876D01*
X392799Y299980D01*
X392745Y300086D01*
X392695Y300194D01*
X392648Y300303D01*
X392604Y300414D01*
X392564Y300526D01*
X392528Y300640D01*
X392496Y300754D01*
X392467Y300870D01*
X392442Y300986D01*
X392421Y301103D01*
X392404Y301221D01*
X392390Y301339D01*
X392381Y301458D01*
X392375Y301577D01*
X392373Y301696D01*
X399147Y295825D02*
X399248Y295763D01*
X399348Y295698D01*
X399445Y295629D01*
X399540Y295557D01*
X399633Y295483D01*
X399723Y295405D01*
X399811Y295324D01*
X399896Y295241D01*
X399978Y295155D01*
X400057Y295066D01*
X400134Y294975D01*
X400207Y294881D01*
X400278Y294785D01*
X400345Y294687D01*
X400409Y294587D01*
X400470Y294484D01*
X400527Y294380D01*
X400581Y294274D01*
X400631Y294166D01*
X400678Y294057D01*
X400722Y293946D01*
X400762Y293834D01*
X400798Y293720D01*
X400830Y293606D01*
X400859Y293490D01*
X400884Y293374D01*
X400905Y293257D01*
X400922Y293139D01*
X400936Y293021D01*
X400945Y292902D01*
X400951Y292783D01*
X400953Y292664D01*
X399147Y295825D02*
X394180Y298535D01*
X410605Y289052D02*
X414218Y289052D01*
X410605Y289052D02*
X410487Y289054D01*
X410369Y289060D01*
X410251Y289069D01*
X410134Y289083D01*
X410017Y289100D01*
X409900Y289121D01*
X409785Y289146D01*
X409670Y289175D01*
X409556Y289208D01*
X409444Y289244D01*
X409333Y289284D01*
X409223Y289327D01*
X409114Y289374D01*
X409007Y289424D01*
X408902Y289479D01*
X408799Y289536D01*
X408698Y289597D01*
X408598Y289661D01*
X408501Y289728D01*
X408406Y289798D01*
X408314Y289872D01*
X408223Y289948D01*
X408136Y290028D01*
X408051Y290110D01*
X407969Y290195D01*
X407889Y290282D01*
X407813Y290373D01*
X407739Y290465D01*
X407669Y290560D01*
X407602Y290657D01*
X407538Y290757D01*
X407477Y290858D01*
X407420Y290961D01*
X407365Y291066D01*
X407315Y291173D01*
X407268Y291282D01*
X407225Y291392D01*
X407185Y291503D01*
X407149Y291615D01*
X407116Y291729D01*
X407087Y291844D01*
X407062Y291959D01*
X407041Y292076D01*
X407024Y292193D01*
X407010Y292310D01*
X407001Y292428D01*
X406995Y292546D01*
X406993Y292664D01*
X406993Y301696D01*
X406995Y301814D01*
X407001Y301932D01*
X407010Y302050D01*
X407024Y302167D01*
X407041Y302284D01*
X407062Y302401D01*
X407087Y302516D01*
X407116Y302631D01*
X407149Y302745D01*
X407185Y302857D01*
X407225Y302968D01*
X407268Y303078D01*
X407315Y303187D01*
X407365Y303294D01*
X407419Y303399D01*
X407477Y303502D01*
X407538Y303603D01*
X407602Y303703D01*
X407669Y303800D01*
X407739Y303895D01*
X407813Y303987D01*
X407889Y304078D01*
X407969Y304165D01*
X408051Y304250D01*
X408136Y304332D01*
X408223Y304412D01*
X408314Y304488D01*
X408406Y304562D01*
X408501Y304632D01*
X408598Y304699D01*
X408698Y304763D01*
X408799Y304824D01*
X408902Y304881D01*
X409007Y304935D01*
X409114Y304986D01*
X409223Y305033D01*
X409333Y305076D01*
X409444Y305116D01*
X409556Y305152D01*
X409670Y305185D01*
X409785Y305214D01*
X409900Y305239D01*
X410017Y305260D01*
X410134Y305277D01*
X410251Y305291D01*
X410369Y305300D01*
X410487Y305306D01*
X410605Y305308D01*
X414218Y305308D01*
X420790Y305308D02*
X420790Y289052D01*
X420790Y295374D02*
X429821Y305308D01*
X424403Y298986D02*
X429821Y289052D01*
X391922Y278638D02*
X391922Y262382D01*
X397341Y269607D02*
X391922Y278638D01*
X397341Y269607D02*
X402759Y278638D01*
X402759Y262382D01*
X411409Y262382D02*
X411409Y278638D01*
X409603Y262382D02*
X413215Y262382D01*
X413215Y278638D02*
X409603Y278638D01*
X424296Y262382D02*
X424414Y262384D01*
X424532Y262390D01*
X424650Y262399D01*
X424767Y262413D01*
X424884Y262430D01*
X425001Y262451D01*
X425116Y262476D01*
X425231Y262505D01*
X425345Y262538D01*
X425457Y262574D01*
X425568Y262614D01*
X425678Y262657D01*
X425787Y262704D01*
X425894Y262754D01*
X425999Y262809D01*
X426102Y262866D01*
X426203Y262927D01*
X426303Y262991D01*
X426400Y263058D01*
X426495Y263128D01*
X426587Y263202D01*
X426678Y263278D01*
X426765Y263358D01*
X426850Y263440D01*
X426932Y263525D01*
X427012Y263612D01*
X427088Y263703D01*
X427162Y263795D01*
X427232Y263890D01*
X427299Y263987D01*
X427363Y264087D01*
X427424Y264188D01*
X427481Y264291D01*
X427536Y264396D01*
X427586Y264503D01*
X427633Y264612D01*
X427676Y264722D01*
X427716Y264833D01*
X427752Y264945D01*
X427785Y265059D01*
X427814Y265174D01*
X427839Y265289D01*
X427860Y265406D01*
X427877Y265523D01*
X427891Y265640D01*
X427900Y265758D01*
X427906Y265876D01*
X427908Y265994D01*
X424296Y262382D02*
X424113Y262384D01*
X423931Y262391D01*
X423749Y262402D01*
X423567Y262417D01*
X423385Y262437D01*
X423204Y262460D01*
X423024Y262489D01*
X422844Y262521D01*
X422665Y262558D01*
X422488Y262599D01*
X422311Y262645D01*
X422135Y262694D01*
X421961Y262748D01*
X421787Y262806D01*
X421616Y262868D01*
X421446Y262934D01*
X421277Y263005D01*
X421110Y263079D01*
X420945Y263157D01*
X420782Y263239D01*
X420621Y263325D01*
X420462Y263415D01*
X420305Y263509D01*
X420151Y263606D01*
X419999Y263707D01*
X419849Y263812D01*
X419702Y263920D01*
X419558Y264031D01*
X419416Y264146D01*
X419277Y264265D01*
X419141Y264387D01*
X419008Y264512D01*
X418878Y264640D01*
X419329Y275026D02*
X419331Y275144D01*
X419337Y275262D01*
X419346Y275380D01*
X419360Y275497D01*
X419377Y275614D01*
X419398Y275731D01*
X419423Y275846D01*
X419452Y275961D01*
X419485Y276075D01*
X419521Y276187D01*
X419561Y276298D01*
X419604Y276408D01*
X419651Y276517D01*
X419701Y276624D01*
X419756Y276729D01*
X419813Y276832D01*
X419874Y276933D01*
X419938Y277033D01*
X420005Y277130D01*
X420075Y277225D01*
X420149Y277317D01*
X420225Y277408D01*
X420305Y277495D01*
X420387Y277580D01*
X420472Y277662D01*
X420559Y277742D01*
X420650Y277818D01*
X420742Y277892D01*
X420837Y277962D01*
X420934Y278029D01*
X421034Y278093D01*
X421135Y278154D01*
X421238Y278212D01*
X421343Y278266D01*
X421450Y278316D01*
X421559Y278363D01*
X421669Y278407D01*
X421780Y278446D01*
X421893Y278482D01*
X422006Y278515D01*
X422121Y278544D01*
X422236Y278569D01*
X422353Y278590D01*
X422470Y278607D01*
X422587Y278621D01*
X422705Y278630D01*
X422823Y278636D01*
X422941Y278638D01*
X423102Y278636D01*
X423264Y278630D01*
X423425Y278621D01*
X423586Y278607D01*
X423746Y278590D01*
X423906Y278569D01*
X424066Y278544D01*
X424225Y278515D01*
X424383Y278483D01*
X424540Y278447D01*
X424696Y278407D01*
X424852Y278363D01*
X425006Y278315D01*
X425159Y278264D01*
X425311Y278210D01*
X425462Y278151D01*
X425611Y278090D01*
X425758Y278024D01*
X425904Y277955D01*
X426049Y277883D01*
X426191Y277807D01*
X426332Y277728D01*
X426471Y277646D01*
X426607Y277560D01*
X426742Y277471D01*
X426875Y277379D01*
X427005Y277283D01*
X421135Y271865D02*
X421034Y271927D01*
X420934Y271992D01*
X420837Y272061D01*
X420742Y272133D01*
X420649Y272207D01*
X420559Y272285D01*
X420471Y272366D01*
X420386Y272449D01*
X420304Y272535D01*
X420225Y272624D01*
X420148Y272715D01*
X420075Y272809D01*
X420004Y272905D01*
X419937Y273003D01*
X419873Y273103D01*
X419812Y273206D01*
X419755Y273310D01*
X419701Y273416D01*
X419651Y273524D01*
X419604Y273633D01*
X419560Y273744D01*
X419520Y273856D01*
X419484Y273970D01*
X419452Y274084D01*
X419423Y274200D01*
X419398Y274316D01*
X419377Y274433D01*
X419360Y274551D01*
X419346Y274669D01*
X419337Y274788D01*
X419331Y274907D01*
X419329Y275026D01*
X426102Y269155D02*
X426203Y269093D01*
X426303Y269028D01*
X426400Y268959D01*
X426495Y268887D01*
X426588Y268813D01*
X426678Y268735D01*
X426766Y268654D01*
X426851Y268571D01*
X426933Y268485D01*
X427012Y268396D01*
X427089Y268305D01*
X427162Y268211D01*
X427233Y268115D01*
X427300Y268017D01*
X427364Y267917D01*
X427425Y267814D01*
X427482Y267710D01*
X427536Y267604D01*
X427586Y267496D01*
X427633Y267387D01*
X427677Y267276D01*
X427717Y267164D01*
X427753Y267050D01*
X427785Y266936D01*
X427814Y266820D01*
X427839Y266704D01*
X427860Y266587D01*
X427877Y266469D01*
X427891Y266351D01*
X427900Y266232D01*
X427906Y266113D01*
X427908Y265994D01*
X426102Y269155D02*
X421135Y271865D01*
X433987Y274122D02*
X433987Y266898D01*
X433987Y274122D02*
X433989Y274255D01*
X433995Y274387D01*
X434005Y274519D01*
X434018Y274651D01*
X434036Y274783D01*
X434057Y274913D01*
X434082Y275044D01*
X434111Y275173D01*
X434144Y275301D01*
X434180Y275429D01*
X434220Y275555D01*
X434264Y275680D01*
X434312Y275804D01*
X434363Y275926D01*
X434418Y276047D01*
X434476Y276166D01*
X434538Y276284D01*
X434603Y276399D01*
X434672Y276513D01*
X434743Y276624D01*
X434819Y276733D01*
X434897Y276840D01*
X434978Y276945D01*
X435063Y277047D01*
X435150Y277147D01*
X435240Y277244D01*
X435333Y277339D01*
X435429Y277430D01*
X435527Y277519D01*
X435628Y277605D01*
X435732Y277688D01*
X435838Y277768D01*
X435946Y277844D01*
X436056Y277918D01*
X436169Y277988D01*
X436283Y278055D01*
X436400Y278118D01*
X436518Y278178D01*
X436638Y278235D01*
X436760Y278288D01*
X436883Y278337D01*
X437007Y278383D01*
X437133Y278425D01*
X437260Y278463D01*
X437388Y278498D01*
X437517Y278529D01*
X437646Y278556D01*
X437777Y278579D01*
X437908Y278599D01*
X438040Y278614D01*
X438172Y278626D01*
X438304Y278634D01*
X438437Y278638D01*
X438569Y278638D01*
X438702Y278634D01*
X438834Y278626D01*
X438966Y278614D01*
X439098Y278599D01*
X439229Y278579D01*
X439360Y278556D01*
X439489Y278529D01*
X439618Y278498D01*
X439746Y278463D01*
X439873Y278425D01*
X439999Y278383D01*
X440123Y278337D01*
X440246Y278288D01*
X440368Y278235D01*
X440488Y278178D01*
X440606Y278118D01*
X440723Y278055D01*
X440837Y277988D01*
X440950Y277918D01*
X441060Y277844D01*
X441168Y277768D01*
X441274Y277688D01*
X441378Y277605D01*
X441479Y277519D01*
X441577Y277430D01*
X441673Y277339D01*
X441766Y277244D01*
X441856Y277147D01*
X441943Y277047D01*
X442028Y276945D01*
X442109Y276840D01*
X442187Y276733D01*
X442263Y276624D01*
X442334Y276513D01*
X442403Y276399D01*
X442468Y276284D01*
X442530Y276166D01*
X442588Y276047D01*
X442643Y275926D01*
X442694Y275804D01*
X442742Y275680D01*
X442786Y275555D01*
X442826Y275429D01*
X442862Y275301D01*
X442895Y275173D01*
X442924Y275044D01*
X442949Y274913D01*
X442970Y274783D01*
X442988Y274651D01*
X443001Y274519D01*
X443011Y274387D01*
X443017Y274255D01*
X443019Y274122D01*
X443018Y274122D02*
X443018Y266898D01*
X443019Y266898D02*
X443017Y266765D01*
X443011Y266633D01*
X443001Y266501D01*
X442988Y266369D01*
X442970Y266237D01*
X442949Y266107D01*
X442924Y265976D01*
X442895Y265847D01*
X442862Y265719D01*
X442826Y265591D01*
X442786Y265465D01*
X442742Y265340D01*
X442694Y265216D01*
X442643Y265094D01*
X442588Y264973D01*
X442530Y264854D01*
X442468Y264736D01*
X442403Y264621D01*
X442334Y264507D01*
X442263Y264396D01*
X442187Y264287D01*
X442109Y264180D01*
X442028Y264075D01*
X441943Y263973D01*
X441856Y263873D01*
X441766Y263776D01*
X441673Y263681D01*
X441577Y263590D01*
X441479Y263501D01*
X441378Y263415D01*
X441274Y263332D01*
X441168Y263252D01*
X441060Y263176D01*
X440950Y263102D01*
X440837Y263032D01*
X440723Y262965D01*
X440606Y262902D01*
X440488Y262842D01*
X440368Y262785D01*
X440246Y262732D01*
X440123Y262683D01*
X439999Y262637D01*
X439873Y262595D01*
X439746Y262557D01*
X439618Y262522D01*
X439489Y262491D01*
X439360Y262464D01*
X439229Y262441D01*
X439098Y262421D01*
X438966Y262406D01*
X438834Y262394D01*
X438702Y262386D01*
X438569Y262382D01*
X438437Y262382D01*
X438304Y262386D01*
X438172Y262394D01*
X438040Y262406D01*
X437908Y262421D01*
X437777Y262441D01*
X437646Y262464D01*
X437517Y262491D01*
X437388Y262522D01*
X437260Y262557D01*
X437133Y262595D01*
X437007Y262637D01*
X436883Y262683D01*
X436760Y262732D01*
X436638Y262785D01*
X436518Y262842D01*
X436400Y262902D01*
X436283Y262965D01*
X436169Y263032D01*
X436056Y263102D01*
X435946Y263176D01*
X435838Y263252D01*
X435732Y263332D01*
X435628Y263415D01*
X435527Y263501D01*
X435429Y263590D01*
X435333Y263681D01*
X435240Y263776D01*
X435150Y263873D01*
X435063Y263973D01*
X434978Y264075D01*
X434897Y264180D01*
X434819Y264287D01*
X434743Y264396D01*
X434672Y264507D01*
X434603Y264621D01*
X434538Y264736D01*
X434476Y264854D01*
X434418Y264973D01*
X434363Y265094D01*
X434312Y265216D01*
X434264Y265340D01*
X434220Y265465D01*
X434180Y265591D01*
X434144Y265719D01*
X434111Y265847D01*
X434082Y265976D01*
X434057Y266107D01*
X434036Y266237D01*
X434018Y266369D01*
X434005Y266501D01*
X433995Y266633D01*
X433989Y266765D01*
X433987Y266898D01*
X275082Y372872D02*
X275082Y389128D01*
X279598Y389128D01*
X279731Y389126D01*
X279863Y389120D01*
X279995Y389110D01*
X280127Y389097D01*
X280259Y389079D01*
X280389Y389058D01*
X280520Y389033D01*
X280649Y389004D01*
X280777Y388971D01*
X280905Y388935D01*
X281031Y388895D01*
X281156Y388851D01*
X281280Y388803D01*
X281402Y388752D01*
X281523Y388697D01*
X281642Y388639D01*
X281760Y388577D01*
X281875Y388512D01*
X281989Y388443D01*
X282100Y388372D01*
X282209Y388296D01*
X282316Y388218D01*
X282421Y388137D01*
X282523Y388052D01*
X282623Y387965D01*
X282720Y387875D01*
X282815Y387782D01*
X282906Y387686D01*
X282995Y387588D01*
X283081Y387487D01*
X283164Y387383D01*
X283244Y387277D01*
X283320Y387169D01*
X283394Y387059D01*
X283464Y386946D01*
X283531Y386832D01*
X283594Y386715D01*
X283654Y386597D01*
X283711Y386477D01*
X283764Y386355D01*
X283813Y386232D01*
X283859Y386108D01*
X283901Y385982D01*
X283939Y385855D01*
X283974Y385727D01*
X284005Y385598D01*
X284032Y385469D01*
X284055Y385338D01*
X284075Y385207D01*
X284090Y385075D01*
X284102Y384943D01*
X284110Y384811D01*
X284114Y384678D01*
X284114Y384546D01*
X284110Y384413D01*
X284102Y384281D01*
X284090Y384149D01*
X284075Y384017D01*
X284055Y383886D01*
X284032Y383755D01*
X284005Y383626D01*
X283974Y383497D01*
X283939Y383369D01*
X283901Y383242D01*
X283859Y383116D01*
X283813Y382992D01*
X283764Y382869D01*
X283711Y382747D01*
X283654Y382627D01*
X283594Y382509D01*
X283531Y382392D01*
X283464Y382278D01*
X283394Y382165D01*
X283320Y382055D01*
X283244Y381947D01*
X283164Y381841D01*
X283081Y381737D01*
X282995Y381636D01*
X282906Y381538D01*
X282815Y381442D01*
X282720Y381349D01*
X282623Y381259D01*
X282523Y381172D01*
X282421Y381087D01*
X282316Y381006D01*
X282209Y380928D01*
X282100Y380852D01*
X281989Y380781D01*
X281875Y380712D01*
X281760Y380647D01*
X281642Y380585D01*
X281523Y380527D01*
X281402Y380472D01*
X281280Y380421D01*
X281156Y380373D01*
X281031Y380329D01*
X280905Y380289D01*
X280777Y380253D01*
X280649Y380220D01*
X280520Y380191D01*
X280389Y380166D01*
X280259Y380145D01*
X280127Y380127D01*
X279995Y380114D01*
X279863Y380104D01*
X279731Y380098D01*
X279598Y380096D01*
X279598Y380097D02*
X275082Y380097D01*
X280501Y380097D02*
X284113Y372872D01*
X289719Y372872D02*
X300556Y389128D01*
X289719Y389128D02*
X300556Y372872D01*
X184348Y371602D02*
X184348Y387858D01*
X188863Y387858D02*
X179832Y387858D01*
X193518Y371602D02*
X204355Y387858D01*
X193518Y387858D02*
X204355Y371602D01*
X442722Y90932D02*
X448141Y90932D01*
X448259Y90934D01*
X448377Y90940D01*
X448495Y90949D01*
X448612Y90963D01*
X448729Y90980D01*
X448846Y91001D01*
X448961Y91026D01*
X449076Y91055D01*
X449190Y91088D01*
X449302Y91124D01*
X449413Y91164D01*
X449523Y91207D01*
X449632Y91254D01*
X449739Y91304D01*
X449844Y91359D01*
X449947Y91416D01*
X450048Y91477D01*
X450148Y91541D01*
X450245Y91608D01*
X450340Y91678D01*
X450432Y91752D01*
X450523Y91828D01*
X450610Y91908D01*
X450695Y91990D01*
X450777Y92075D01*
X450857Y92162D01*
X450933Y92253D01*
X451007Y92345D01*
X451077Y92440D01*
X451144Y92537D01*
X451208Y92637D01*
X451269Y92738D01*
X451326Y92841D01*
X451381Y92946D01*
X451431Y93053D01*
X451478Y93162D01*
X451521Y93272D01*
X451561Y93383D01*
X451597Y93495D01*
X451630Y93609D01*
X451659Y93724D01*
X451684Y93839D01*
X451705Y93956D01*
X451722Y94073D01*
X451736Y94190D01*
X451745Y94308D01*
X451751Y94426D01*
X451753Y94544D01*
X451753Y96351D01*
X451751Y96469D01*
X451745Y96587D01*
X451736Y96705D01*
X451722Y96822D01*
X451705Y96939D01*
X451684Y97056D01*
X451659Y97171D01*
X451630Y97286D01*
X451597Y97400D01*
X451561Y97512D01*
X451521Y97623D01*
X451478Y97733D01*
X451431Y97842D01*
X451381Y97949D01*
X451326Y98054D01*
X451269Y98157D01*
X451208Y98258D01*
X451144Y98358D01*
X451077Y98455D01*
X451007Y98550D01*
X450933Y98642D01*
X450857Y98733D01*
X450777Y98820D01*
X450695Y98905D01*
X450610Y98987D01*
X450523Y99067D01*
X450432Y99143D01*
X450340Y99217D01*
X450245Y99287D01*
X450148Y99354D01*
X450048Y99418D01*
X449947Y99479D01*
X449844Y99536D01*
X449739Y99591D01*
X449632Y99641D01*
X449523Y99688D01*
X449413Y99731D01*
X449302Y99771D01*
X449190Y99807D01*
X449076Y99840D01*
X448961Y99869D01*
X448846Y99894D01*
X448729Y99915D01*
X448612Y99932D01*
X448495Y99946D01*
X448377Y99955D01*
X448259Y99961D01*
X448141Y99963D01*
X442722Y99963D01*
X442722Y107188D01*
X451753Y107188D01*
X457450Y107188D02*
X462869Y90932D01*
X468287Y107188D01*
X391922Y144272D02*
X391922Y160528D01*
X396438Y160528D01*
X396569Y160526D01*
X396701Y160520D01*
X396832Y160511D01*
X396962Y160497D01*
X397093Y160480D01*
X397222Y160459D01*
X397351Y160435D01*
X397479Y160406D01*
X397607Y160374D01*
X397733Y160338D01*
X397858Y160299D01*
X397983Y160256D01*
X398105Y160209D01*
X398227Y160159D01*
X398347Y160105D01*
X398465Y160048D01*
X398581Y159987D01*
X398696Y159923D01*
X398809Y159856D01*
X398920Y159785D01*
X399028Y159711D01*
X399135Y159634D01*
X399239Y159554D01*
X399341Y159471D01*
X399440Y159386D01*
X399537Y159297D01*
X399631Y159205D01*
X399723Y159111D01*
X399812Y159014D01*
X399897Y158915D01*
X399980Y158813D01*
X400060Y158709D01*
X400137Y158602D01*
X400211Y158494D01*
X400282Y158383D01*
X400349Y158270D01*
X400413Y158155D01*
X400474Y158039D01*
X400531Y157921D01*
X400585Y157801D01*
X400635Y157679D01*
X400682Y157557D01*
X400725Y157432D01*
X400764Y157307D01*
X400800Y157181D01*
X400832Y157053D01*
X400861Y156925D01*
X400885Y156796D01*
X400906Y156667D01*
X400923Y156536D01*
X400937Y156406D01*
X400946Y156275D01*
X400952Y156143D01*
X400954Y156012D01*
X400953Y156012D02*
X400953Y148788D01*
X400954Y148788D02*
X400952Y148657D01*
X400946Y148525D01*
X400937Y148394D01*
X400923Y148264D01*
X400906Y148133D01*
X400885Y148004D01*
X400861Y147875D01*
X400832Y147747D01*
X400800Y147619D01*
X400764Y147493D01*
X400725Y147368D01*
X400682Y147243D01*
X400635Y147121D01*
X400585Y146999D01*
X400531Y146879D01*
X400474Y146761D01*
X400413Y146645D01*
X400349Y146530D01*
X400282Y146417D01*
X400211Y146306D01*
X400137Y146198D01*
X400060Y146091D01*
X399980Y145987D01*
X399897Y145885D01*
X399812Y145786D01*
X399723Y145689D01*
X399631Y145595D01*
X399537Y145503D01*
X399440Y145414D01*
X399341Y145329D01*
X399239Y145246D01*
X399135Y145166D01*
X399028Y145089D01*
X398920Y145015D01*
X398809Y144944D01*
X398696Y144877D01*
X398581Y144813D01*
X398465Y144752D01*
X398347Y144695D01*
X398227Y144641D01*
X398105Y144591D01*
X397983Y144544D01*
X397858Y144501D01*
X397733Y144462D01*
X397607Y144426D01*
X397479Y144394D01*
X397351Y144365D01*
X397222Y144341D01*
X397092Y144320D01*
X396962Y144303D01*
X396832Y144289D01*
X396701Y144280D01*
X396569Y144274D01*
X396438Y144272D01*
X391922Y144272D01*
X407171Y144272D02*
X412590Y160528D01*
X418009Y144272D01*
X416654Y148336D02*
X408526Y148336D01*
X427179Y144272D02*
X427179Y160528D01*
X422663Y160528D02*
X431695Y160528D01*
X441768Y160528D02*
X436350Y144272D01*
X447187Y144272D02*
X441768Y160528D01*
X445832Y148336D02*
X437704Y148336D01*
X400953Y185053D02*
X398244Y185053D01*
X400953Y185053D02*
X400953Y176022D01*
X395534Y176022D01*
X395416Y176024D01*
X395298Y176030D01*
X395180Y176039D01*
X395063Y176053D01*
X394946Y176070D01*
X394829Y176091D01*
X394714Y176116D01*
X394599Y176145D01*
X394485Y176178D01*
X394373Y176214D01*
X394262Y176254D01*
X394152Y176297D01*
X394043Y176344D01*
X393936Y176394D01*
X393831Y176449D01*
X393728Y176506D01*
X393627Y176567D01*
X393527Y176631D01*
X393430Y176698D01*
X393335Y176768D01*
X393243Y176842D01*
X393152Y176918D01*
X393065Y176998D01*
X392980Y177080D01*
X392898Y177165D01*
X392818Y177252D01*
X392742Y177343D01*
X392668Y177435D01*
X392598Y177530D01*
X392531Y177627D01*
X392467Y177727D01*
X392406Y177828D01*
X392349Y177931D01*
X392294Y178036D01*
X392244Y178143D01*
X392197Y178252D01*
X392154Y178362D01*
X392114Y178473D01*
X392078Y178585D01*
X392045Y178699D01*
X392016Y178814D01*
X391991Y178929D01*
X391970Y179046D01*
X391953Y179163D01*
X391939Y179280D01*
X391930Y179398D01*
X391924Y179516D01*
X391922Y179634D01*
X391922Y188666D01*
X391924Y188784D01*
X391930Y188902D01*
X391939Y189020D01*
X391953Y189137D01*
X391970Y189254D01*
X391991Y189371D01*
X392016Y189486D01*
X392045Y189601D01*
X392078Y189715D01*
X392114Y189827D01*
X392154Y189938D01*
X392197Y190048D01*
X392244Y190157D01*
X392294Y190264D01*
X392348Y190369D01*
X392406Y190472D01*
X392467Y190573D01*
X392531Y190673D01*
X392598Y190770D01*
X392668Y190865D01*
X392742Y190957D01*
X392818Y191048D01*
X392898Y191135D01*
X392980Y191220D01*
X393065Y191302D01*
X393152Y191382D01*
X393243Y191458D01*
X393335Y191532D01*
X393430Y191602D01*
X393527Y191669D01*
X393627Y191733D01*
X393728Y191794D01*
X393831Y191851D01*
X393936Y191905D01*
X394043Y191956D01*
X394152Y192003D01*
X394262Y192046D01*
X394373Y192086D01*
X394485Y192122D01*
X394599Y192155D01*
X394714Y192184D01*
X394829Y192209D01*
X394946Y192230D01*
X395063Y192247D01*
X395180Y192261D01*
X395298Y192270D01*
X395416Y192276D01*
X395534Y192278D01*
X400953Y192278D01*
X408595Y192278D02*
X408595Y176022D01*
X417626Y176022D02*
X408595Y192278D01*
X417626Y192278D02*
X417626Y176022D01*
X425269Y176022D02*
X425269Y192278D01*
X429784Y192278D01*
X429915Y192276D01*
X430047Y192270D01*
X430178Y192261D01*
X430308Y192247D01*
X430439Y192230D01*
X430568Y192209D01*
X430697Y192185D01*
X430825Y192156D01*
X430953Y192124D01*
X431079Y192088D01*
X431204Y192049D01*
X431329Y192006D01*
X431451Y191959D01*
X431573Y191909D01*
X431693Y191855D01*
X431811Y191798D01*
X431927Y191737D01*
X432042Y191673D01*
X432155Y191606D01*
X432266Y191535D01*
X432374Y191461D01*
X432481Y191384D01*
X432585Y191304D01*
X432687Y191221D01*
X432786Y191136D01*
X432883Y191047D01*
X432977Y190955D01*
X433069Y190861D01*
X433158Y190764D01*
X433243Y190665D01*
X433326Y190563D01*
X433406Y190459D01*
X433483Y190352D01*
X433557Y190244D01*
X433628Y190133D01*
X433695Y190020D01*
X433759Y189905D01*
X433820Y189789D01*
X433877Y189671D01*
X433931Y189551D01*
X433981Y189429D01*
X434028Y189307D01*
X434071Y189182D01*
X434110Y189057D01*
X434146Y188931D01*
X434178Y188803D01*
X434207Y188675D01*
X434231Y188546D01*
X434252Y188417D01*
X434269Y188286D01*
X434283Y188156D01*
X434292Y188025D01*
X434298Y187893D01*
X434300Y187762D01*
X434300Y180538D01*
X434298Y180407D01*
X434292Y180275D01*
X434283Y180144D01*
X434269Y180014D01*
X434252Y179883D01*
X434231Y179754D01*
X434207Y179625D01*
X434178Y179497D01*
X434146Y179369D01*
X434110Y179243D01*
X434071Y179118D01*
X434028Y178993D01*
X433981Y178871D01*
X433931Y178749D01*
X433877Y178629D01*
X433820Y178511D01*
X433759Y178395D01*
X433695Y178280D01*
X433628Y178167D01*
X433557Y178056D01*
X433483Y177948D01*
X433406Y177841D01*
X433326Y177737D01*
X433243Y177635D01*
X433158Y177536D01*
X433069Y177439D01*
X432977Y177345D01*
X432883Y177253D01*
X432786Y177164D01*
X432687Y177079D01*
X432585Y176996D01*
X432481Y176916D01*
X432374Y176839D01*
X432266Y176765D01*
X432155Y176694D01*
X432042Y176627D01*
X431927Y176563D01*
X431811Y176502D01*
X431693Y176445D01*
X431573Y176391D01*
X431451Y176341D01*
X431329Y176294D01*
X431204Y176251D01*
X431079Y176212D01*
X430953Y176176D01*
X430825Y176144D01*
X430697Y176115D01*
X430568Y176091D01*
X430438Y176070D01*
X430308Y176053D01*
X430178Y176039D01*
X430047Y176030D01*
X429915Y176024D01*
X429784Y176022D01*
X425269Y176022D01*
X191262Y471932D02*
X191262Y488188D01*
X191262Y471932D02*
X198487Y471932D01*
X204809Y471932D02*
X212034Y471932D01*
X204809Y471932D02*
X204809Y488188D01*
X212034Y488188D01*
X210228Y480963D02*
X204809Y480963D01*
X218326Y488188D02*
X218326Y471932D01*
X218326Y488188D02*
X222842Y488188D01*
X222973Y488186D01*
X223105Y488180D01*
X223236Y488171D01*
X223366Y488157D01*
X223497Y488140D01*
X223626Y488119D01*
X223755Y488095D01*
X223883Y488066D01*
X224011Y488034D01*
X224137Y487998D01*
X224262Y487959D01*
X224387Y487916D01*
X224509Y487869D01*
X224631Y487819D01*
X224751Y487765D01*
X224869Y487708D01*
X224985Y487647D01*
X225100Y487583D01*
X225213Y487516D01*
X225324Y487445D01*
X225432Y487371D01*
X225539Y487294D01*
X225643Y487214D01*
X225745Y487131D01*
X225844Y487046D01*
X225941Y486957D01*
X226035Y486865D01*
X226127Y486771D01*
X226216Y486674D01*
X226301Y486575D01*
X226384Y486473D01*
X226464Y486369D01*
X226541Y486262D01*
X226615Y486154D01*
X226686Y486043D01*
X226753Y485930D01*
X226817Y485815D01*
X226878Y485699D01*
X226935Y485581D01*
X226989Y485461D01*
X227039Y485339D01*
X227086Y485217D01*
X227129Y485092D01*
X227168Y484967D01*
X227204Y484841D01*
X227236Y484713D01*
X227265Y484585D01*
X227289Y484456D01*
X227310Y484327D01*
X227327Y484196D01*
X227341Y484066D01*
X227350Y483935D01*
X227356Y483803D01*
X227358Y483672D01*
X227357Y483672D02*
X227357Y476448D01*
X227358Y476448D02*
X227356Y476317D01*
X227350Y476185D01*
X227341Y476054D01*
X227327Y475924D01*
X227310Y475793D01*
X227289Y475664D01*
X227265Y475535D01*
X227236Y475407D01*
X227204Y475279D01*
X227168Y475153D01*
X227129Y475028D01*
X227086Y474903D01*
X227039Y474781D01*
X226989Y474659D01*
X226935Y474539D01*
X226878Y474421D01*
X226817Y474305D01*
X226753Y474190D01*
X226686Y474077D01*
X226615Y473966D01*
X226541Y473858D01*
X226464Y473751D01*
X226384Y473647D01*
X226301Y473545D01*
X226216Y473446D01*
X226127Y473349D01*
X226035Y473255D01*
X225941Y473163D01*
X225844Y473074D01*
X225745Y472989D01*
X225643Y472906D01*
X225539Y472826D01*
X225432Y472749D01*
X225324Y472675D01*
X225213Y472604D01*
X225100Y472537D01*
X224985Y472473D01*
X224869Y472412D01*
X224751Y472355D01*
X224631Y472301D01*
X224509Y472251D01*
X224387Y472204D01*
X224262Y472161D01*
X224137Y472122D01*
X224011Y472086D01*
X223883Y472054D01*
X223755Y472025D01*
X223626Y472001D01*
X223496Y471980D01*
X223366Y471963D01*
X223236Y471949D01*
X223105Y471940D01*
X222973Y471934D01*
X222842Y471932D01*
X218326Y471932D01*
X241912Y471932D02*
X247331Y488188D01*
X252749Y471932D01*
X251395Y475996D02*
X243267Y475996D01*
X262019Y471932D02*
X265632Y471932D01*
X262019Y471932D02*
X261901Y471934D01*
X261783Y471940D01*
X261665Y471949D01*
X261548Y471963D01*
X261431Y471980D01*
X261314Y472001D01*
X261199Y472026D01*
X261084Y472055D01*
X260970Y472088D01*
X260858Y472124D01*
X260747Y472164D01*
X260637Y472207D01*
X260528Y472254D01*
X260421Y472304D01*
X260316Y472359D01*
X260213Y472416D01*
X260112Y472477D01*
X260012Y472541D01*
X259915Y472608D01*
X259820Y472678D01*
X259728Y472752D01*
X259637Y472828D01*
X259550Y472908D01*
X259465Y472990D01*
X259383Y473075D01*
X259303Y473162D01*
X259227Y473253D01*
X259153Y473345D01*
X259083Y473440D01*
X259016Y473537D01*
X258952Y473637D01*
X258891Y473738D01*
X258834Y473841D01*
X258779Y473946D01*
X258729Y474053D01*
X258682Y474162D01*
X258639Y474272D01*
X258599Y474383D01*
X258563Y474495D01*
X258530Y474609D01*
X258501Y474724D01*
X258476Y474839D01*
X258455Y474956D01*
X258438Y475073D01*
X258424Y475190D01*
X258415Y475308D01*
X258409Y475426D01*
X258407Y475544D01*
X258407Y484576D01*
X258409Y484694D01*
X258415Y484812D01*
X258424Y484930D01*
X258438Y485047D01*
X258455Y485164D01*
X258476Y485281D01*
X258501Y485396D01*
X258530Y485511D01*
X258563Y485625D01*
X258599Y485737D01*
X258639Y485848D01*
X258682Y485958D01*
X258729Y486067D01*
X258779Y486174D01*
X258833Y486279D01*
X258891Y486382D01*
X258952Y486483D01*
X259016Y486583D01*
X259083Y486680D01*
X259153Y486775D01*
X259227Y486867D01*
X259303Y486958D01*
X259383Y487045D01*
X259465Y487130D01*
X259550Y487212D01*
X259637Y487292D01*
X259728Y487368D01*
X259820Y487442D01*
X259915Y487512D01*
X260012Y487579D01*
X260112Y487643D01*
X260213Y487704D01*
X260316Y487761D01*
X260421Y487815D01*
X260528Y487866D01*
X260637Y487913D01*
X260747Y487956D01*
X260858Y487996D01*
X260970Y488032D01*
X261084Y488065D01*
X261199Y488094D01*
X261314Y488119D01*
X261431Y488140D01*
X261548Y488157D01*
X261665Y488171D01*
X261783Y488180D01*
X261901Y488186D01*
X262019Y488188D01*
X265632Y488188D01*
X272085Y488188D02*
X272085Y471932D01*
X272085Y488188D02*
X276601Y488188D01*
X276734Y488186D01*
X276866Y488180D01*
X276998Y488170D01*
X277130Y488157D01*
X277262Y488139D01*
X277392Y488118D01*
X277523Y488093D01*
X277652Y488064D01*
X277780Y488031D01*
X277908Y487995D01*
X278034Y487955D01*
X278159Y487911D01*
X278283Y487863D01*
X278405Y487812D01*
X278526Y487757D01*
X278645Y487699D01*
X278763Y487637D01*
X278878Y487572D01*
X278992Y487503D01*
X279103Y487432D01*
X279212Y487356D01*
X279319Y487278D01*
X279424Y487197D01*
X279526Y487112D01*
X279626Y487025D01*
X279723Y486935D01*
X279818Y486842D01*
X279909Y486746D01*
X279998Y486648D01*
X280084Y486547D01*
X280167Y486443D01*
X280247Y486337D01*
X280323Y486229D01*
X280397Y486119D01*
X280467Y486006D01*
X280534Y485892D01*
X280597Y485775D01*
X280657Y485657D01*
X280714Y485537D01*
X280767Y485415D01*
X280816Y485292D01*
X280862Y485168D01*
X280904Y485042D01*
X280942Y484915D01*
X280977Y484787D01*
X281008Y484658D01*
X281035Y484529D01*
X281058Y484398D01*
X281078Y484267D01*
X281093Y484135D01*
X281105Y484003D01*
X281113Y483871D01*
X281117Y483738D01*
X281117Y483606D01*
X281113Y483473D01*
X281105Y483341D01*
X281093Y483209D01*
X281078Y483077D01*
X281058Y482946D01*
X281035Y482815D01*
X281008Y482686D01*
X280977Y482557D01*
X280942Y482429D01*
X280904Y482302D01*
X280862Y482176D01*
X280816Y482052D01*
X280767Y481929D01*
X280714Y481807D01*
X280657Y481687D01*
X280597Y481569D01*
X280534Y481452D01*
X280467Y481338D01*
X280397Y481225D01*
X280323Y481115D01*
X280247Y481007D01*
X280167Y480901D01*
X280084Y480797D01*
X279998Y480696D01*
X279909Y480598D01*
X279818Y480502D01*
X279723Y480409D01*
X279626Y480319D01*
X279526Y480232D01*
X279424Y480147D01*
X279319Y480066D01*
X279212Y479988D01*
X279103Y479912D01*
X278992Y479841D01*
X278878Y479772D01*
X278763Y479707D01*
X278645Y479645D01*
X278526Y479587D01*
X278405Y479532D01*
X278283Y479481D01*
X278159Y479433D01*
X278034Y479389D01*
X277908Y479349D01*
X277780Y479313D01*
X277652Y479280D01*
X277523Y479251D01*
X277392Y479226D01*
X277262Y479205D01*
X277130Y479187D01*
X276998Y479174D01*
X276866Y479164D01*
X276734Y479158D01*
X276601Y479156D01*
X276601Y479157D02*
X272085Y479157D01*
X277504Y479157D02*
X281116Y471932D01*
X292140Y480512D02*
X286722Y488188D01*
X292140Y480512D02*
X297559Y488188D01*
X292140Y480512D02*
X292140Y471932D01*
X303807Y471932D02*
X303807Y488188D01*
X303807Y471932D02*
X311032Y471932D01*
X318192Y471932D02*
X318192Y488188D01*
X316386Y471932D02*
X319999Y471932D01*
X319999Y488188D02*
X316386Y488188D01*
X329755Y471932D02*
X333367Y471932D01*
X329755Y471932D02*
X329637Y471934D01*
X329519Y471940D01*
X329401Y471949D01*
X329284Y471963D01*
X329167Y471980D01*
X329050Y472001D01*
X328935Y472026D01*
X328820Y472055D01*
X328706Y472088D01*
X328594Y472124D01*
X328483Y472164D01*
X328373Y472207D01*
X328264Y472254D01*
X328157Y472304D01*
X328052Y472359D01*
X327949Y472416D01*
X327848Y472477D01*
X327748Y472541D01*
X327651Y472608D01*
X327556Y472678D01*
X327464Y472752D01*
X327373Y472828D01*
X327286Y472908D01*
X327201Y472990D01*
X327119Y473075D01*
X327039Y473162D01*
X326963Y473253D01*
X326889Y473345D01*
X326819Y473440D01*
X326752Y473537D01*
X326688Y473637D01*
X326627Y473738D01*
X326570Y473841D01*
X326515Y473946D01*
X326465Y474053D01*
X326418Y474162D01*
X326375Y474272D01*
X326335Y474383D01*
X326299Y474495D01*
X326266Y474609D01*
X326237Y474724D01*
X326212Y474839D01*
X326191Y474956D01*
X326174Y475073D01*
X326160Y475190D01*
X326151Y475308D01*
X326145Y475426D01*
X326143Y475544D01*
X326142Y475544D02*
X326142Y484576D01*
X326143Y484576D02*
X326145Y484694D01*
X326151Y484812D01*
X326160Y484930D01*
X326174Y485047D01*
X326191Y485164D01*
X326212Y485281D01*
X326237Y485396D01*
X326266Y485511D01*
X326299Y485625D01*
X326335Y485737D01*
X326375Y485848D01*
X326418Y485958D01*
X326465Y486067D01*
X326515Y486174D01*
X326569Y486279D01*
X326627Y486382D01*
X326688Y486483D01*
X326752Y486583D01*
X326819Y486680D01*
X326889Y486775D01*
X326963Y486867D01*
X327039Y486958D01*
X327119Y487045D01*
X327201Y487130D01*
X327286Y487212D01*
X327373Y487292D01*
X327464Y487368D01*
X327556Y487442D01*
X327651Y487512D01*
X327748Y487579D01*
X327848Y487643D01*
X327949Y487704D01*
X328052Y487761D01*
X328157Y487815D01*
X328264Y487866D01*
X328373Y487913D01*
X328483Y487956D01*
X328594Y487996D01*
X328706Y488032D01*
X328820Y488065D01*
X328935Y488094D01*
X329050Y488119D01*
X329167Y488140D01*
X329284Y488157D01*
X329401Y488171D01*
X329519Y488180D01*
X329637Y488186D01*
X329755Y488188D01*
X333367Y488188D01*
X352442Y471932D02*
X352560Y471934D01*
X352678Y471940D01*
X352796Y471949D01*
X352913Y471963D01*
X353030Y471980D01*
X353147Y472001D01*
X353262Y472026D01*
X353377Y472055D01*
X353491Y472088D01*
X353603Y472124D01*
X353714Y472164D01*
X353824Y472207D01*
X353933Y472254D01*
X354040Y472304D01*
X354145Y472359D01*
X354248Y472416D01*
X354349Y472477D01*
X354449Y472541D01*
X354546Y472608D01*
X354641Y472678D01*
X354733Y472752D01*
X354824Y472828D01*
X354911Y472908D01*
X354996Y472990D01*
X355078Y473075D01*
X355158Y473162D01*
X355234Y473253D01*
X355308Y473345D01*
X355378Y473440D01*
X355445Y473537D01*
X355509Y473637D01*
X355570Y473738D01*
X355627Y473841D01*
X355682Y473946D01*
X355732Y474053D01*
X355779Y474162D01*
X355822Y474272D01*
X355862Y474383D01*
X355898Y474495D01*
X355931Y474609D01*
X355960Y474724D01*
X355985Y474839D01*
X356006Y474956D01*
X356023Y475073D01*
X356037Y475190D01*
X356046Y475308D01*
X356052Y475426D01*
X356054Y475544D01*
X352442Y471932D02*
X352259Y471934D01*
X352077Y471941D01*
X351895Y471952D01*
X351713Y471967D01*
X351531Y471987D01*
X351350Y472010D01*
X351170Y472039D01*
X350990Y472071D01*
X350811Y472108D01*
X350634Y472149D01*
X350457Y472195D01*
X350281Y472244D01*
X350107Y472298D01*
X349933Y472356D01*
X349762Y472418D01*
X349592Y472484D01*
X349423Y472555D01*
X349256Y472629D01*
X349091Y472707D01*
X348928Y472789D01*
X348767Y472875D01*
X348608Y472965D01*
X348451Y473059D01*
X348297Y473156D01*
X348145Y473257D01*
X347995Y473362D01*
X347848Y473470D01*
X347704Y473581D01*
X347562Y473696D01*
X347423Y473815D01*
X347287Y473937D01*
X347154Y474062D01*
X347024Y474190D01*
X347475Y484576D02*
X347477Y484694D01*
X347483Y484812D01*
X347492Y484930D01*
X347506Y485047D01*
X347523Y485164D01*
X347544Y485281D01*
X347569Y485396D01*
X347598Y485511D01*
X347631Y485625D01*
X347667Y485737D01*
X347707Y485848D01*
X347750Y485958D01*
X347797Y486067D01*
X347847Y486174D01*
X347902Y486279D01*
X347959Y486382D01*
X348020Y486483D01*
X348084Y486583D01*
X348151Y486680D01*
X348221Y486775D01*
X348295Y486867D01*
X348371Y486958D01*
X348451Y487045D01*
X348533Y487130D01*
X348618Y487212D01*
X348705Y487292D01*
X348796Y487368D01*
X348888Y487442D01*
X348983Y487512D01*
X349080Y487579D01*
X349180Y487643D01*
X349281Y487704D01*
X349384Y487762D01*
X349489Y487816D01*
X349596Y487866D01*
X349705Y487913D01*
X349815Y487957D01*
X349926Y487996D01*
X350039Y488032D01*
X350152Y488065D01*
X350267Y488094D01*
X350382Y488119D01*
X350499Y488140D01*
X350616Y488157D01*
X350733Y488171D01*
X350851Y488180D01*
X350969Y488186D01*
X351087Y488188D01*
X351248Y488186D01*
X351410Y488180D01*
X351571Y488171D01*
X351732Y488157D01*
X351892Y488140D01*
X352052Y488119D01*
X352212Y488094D01*
X352371Y488065D01*
X352529Y488033D01*
X352686Y487997D01*
X352842Y487957D01*
X352998Y487913D01*
X353152Y487865D01*
X353305Y487814D01*
X353457Y487760D01*
X353608Y487701D01*
X353757Y487640D01*
X353904Y487574D01*
X354050Y487505D01*
X354195Y487433D01*
X354337Y487357D01*
X354478Y487278D01*
X354617Y487196D01*
X354753Y487110D01*
X354888Y487021D01*
X355021Y486929D01*
X355151Y486833D01*
X349281Y481415D02*
X349180Y481477D01*
X349080Y481542D01*
X348983Y481611D01*
X348888Y481683D01*
X348795Y481757D01*
X348705Y481835D01*
X348617Y481916D01*
X348532Y481999D01*
X348450Y482085D01*
X348371Y482174D01*
X348294Y482265D01*
X348221Y482359D01*
X348150Y482455D01*
X348083Y482553D01*
X348019Y482653D01*
X347958Y482756D01*
X347901Y482860D01*
X347847Y482966D01*
X347797Y483074D01*
X347750Y483183D01*
X347706Y483294D01*
X347666Y483406D01*
X347630Y483520D01*
X347598Y483634D01*
X347569Y483750D01*
X347544Y483866D01*
X347523Y483983D01*
X347506Y484101D01*
X347492Y484219D01*
X347483Y484338D01*
X347477Y484457D01*
X347475Y484576D01*
X354249Y478705D02*
X354350Y478643D01*
X354450Y478578D01*
X354547Y478509D01*
X354642Y478437D01*
X354735Y478363D01*
X354825Y478285D01*
X354913Y478204D01*
X354998Y478121D01*
X355080Y478035D01*
X355159Y477946D01*
X355236Y477855D01*
X355309Y477761D01*
X355380Y477665D01*
X355447Y477567D01*
X355511Y477467D01*
X355572Y477364D01*
X355629Y477260D01*
X355683Y477154D01*
X355733Y477046D01*
X355780Y476937D01*
X355824Y476826D01*
X355864Y476714D01*
X355900Y476600D01*
X355932Y476486D01*
X355961Y476370D01*
X355986Y476254D01*
X356007Y476137D01*
X356024Y476019D01*
X356038Y475901D01*
X356047Y475782D01*
X356053Y475663D01*
X356055Y475544D01*
X354248Y478705D02*
X349281Y481415D01*
X363523Y488188D02*
X363523Y471932D01*
X361717Y471932D02*
X365329Y471932D01*
X365329Y488188D02*
X361717Y488188D01*
X378355Y480963D02*
X381064Y480963D01*
X381064Y471932D01*
X375646Y471932D01*
X375528Y471934D01*
X375410Y471940D01*
X375292Y471949D01*
X375175Y471963D01*
X375058Y471980D01*
X374941Y472001D01*
X374826Y472026D01*
X374711Y472055D01*
X374597Y472088D01*
X374485Y472124D01*
X374374Y472164D01*
X374264Y472207D01*
X374155Y472254D01*
X374048Y472304D01*
X373943Y472359D01*
X373840Y472416D01*
X373739Y472477D01*
X373639Y472541D01*
X373542Y472608D01*
X373447Y472678D01*
X373355Y472752D01*
X373264Y472828D01*
X373177Y472908D01*
X373092Y472990D01*
X373010Y473075D01*
X372930Y473162D01*
X372854Y473253D01*
X372780Y473345D01*
X372710Y473440D01*
X372643Y473537D01*
X372579Y473637D01*
X372518Y473738D01*
X372461Y473841D01*
X372406Y473946D01*
X372356Y474053D01*
X372309Y474162D01*
X372266Y474272D01*
X372226Y474383D01*
X372190Y474495D01*
X372157Y474609D01*
X372128Y474724D01*
X372103Y474839D01*
X372082Y474956D01*
X372065Y475073D01*
X372051Y475190D01*
X372042Y475308D01*
X372036Y475426D01*
X372034Y475544D01*
X372033Y475544D02*
X372033Y484576D01*
X372034Y484576D02*
X372036Y484694D01*
X372042Y484812D01*
X372051Y484930D01*
X372065Y485047D01*
X372082Y485164D01*
X372103Y485281D01*
X372128Y485396D01*
X372157Y485511D01*
X372190Y485625D01*
X372226Y485737D01*
X372266Y485848D01*
X372309Y485958D01*
X372356Y486067D01*
X372406Y486174D01*
X372460Y486279D01*
X372518Y486382D01*
X372579Y486483D01*
X372643Y486583D01*
X372710Y486680D01*
X372780Y486775D01*
X372854Y486867D01*
X372930Y486958D01*
X373010Y487045D01*
X373092Y487130D01*
X373177Y487212D01*
X373264Y487292D01*
X373355Y487368D01*
X373447Y487442D01*
X373542Y487512D01*
X373639Y487579D01*
X373739Y487643D01*
X373840Y487704D01*
X373943Y487761D01*
X374048Y487815D01*
X374155Y487866D01*
X374264Y487913D01*
X374374Y487956D01*
X374485Y487996D01*
X374597Y488032D01*
X374711Y488065D01*
X374826Y488094D01*
X374941Y488119D01*
X375058Y488140D01*
X375175Y488157D01*
X375292Y488171D01*
X375410Y488180D01*
X375528Y488186D01*
X375646Y488188D01*
X381064Y488188D01*
X388707Y488188D02*
X388707Y471932D01*
X397738Y471932D02*
X388707Y488188D01*
X397738Y488188D02*
X397738Y471932D01*
X54102Y32258D02*
X54102Y16002D01*
X59521Y23227D02*
X54102Y32258D01*
X59521Y23227D02*
X64939Y32258D01*
X64939Y16002D01*
X71574Y16002D02*
X71574Y16905D01*
X72477Y16905D01*
X72477Y16002D01*
X71574Y16002D01*
X87310Y16002D02*
X87310Y32258D01*
X91825Y32258D01*
X91956Y32256D01*
X92088Y32250D01*
X92219Y32241D01*
X92349Y32227D01*
X92480Y32210D01*
X92609Y32189D01*
X92738Y32165D01*
X92866Y32136D01*
X92994Y32104D01*
X93120Y32068D01*
X93245Y32029D01*
X93370Y31986D01*
X93492Y31939D01*
X93614Y31889D01*
X93734Y31835D01*
X93852Y31778D01*
X93968Y31717D01*
X94083Y31653D01*
X94196Y31586D01*
X94307Y31515D01*
X94415Y31441D01*
X94522Y31364D01*
X94626Y31284D01*
X94728Y31201D01*
X94827Y31116D01*
X94924Y31027D01*
X95018Y30935D01*
X95110Y30841D01*
X95199Y30744D01*
X95284Y30645D01*
X95367Y30543D01*
X95447Y30439D01*
X95524Y30332D01*
X95598Y30224D01*
X95669Y30113D01*
X95736Y30000D01*
X95800Y29885D01*
X95861Y29769D01*
X95918Y29651D01*
X95972Y29531D01*
X96022Y29409D01*
X96069Y29287D01*
X96112Y29162D01*
X96151Y29037D01*
X96187Y28911D01*
X96219Y28783D01*
X96248Y28655D01*
X96272Y28526D01*
X96293Y28397D01*
X96310Y28266D01*
X96324Y28136D01*
X96333Y28005D01*
X96339Y27873D01*
X96341Y27742D01*
X96341Y20518D01*
X96339Y20387D01*
X96333Y20255D01*
X96324Y20124D01*
X96310Y19994D01*
X96293Y19863D01*
X96272Y19734D01*
X96248Y19605D01*
X96219Y19477D01*
X96187Y19349D01*
X96151Y19223D01*
X96112Y19098D01*
X96069Y18973D01*
X96022Y18851D01*
X95972Y18729D01*
X95918Y18609D01*
X95861Y18491D01*
X95800Y18375D01*
X95736Y18260D01*
X95669Y18147D01*
X95598Y18036D01*
X95524Y17928D01*
X95447Y17821D01*
X95367Y17717D01*
X95284Y17615D01*
X95199Y17516D01*
X95110Y17419D01*
X95018Y17325D01*
X94924Y17233D01*
X94827Y17144D01*
X94728Y17059D01*
X94626Y16976D01*
X94522Y16896D01*
X94415Y16819D01*
X94307Y16745D01*
X94196Y16674D01*
X94083Y16607D01*
X93968Y16543D01*
X93852Y16482D01*
X93734Y16425D01*
X93614Y16371D01*
X93492Y16321D01*
X93370Y16274D01*
X93245Y16231D01*
X93120Y16192D01*
X92994Y16156D01*
X92866Y16124D01*
X92738Y16095D01*
X92609Y16071D01*
X92479Y16050D01*
X92349Y16033D01*
X92219Y16019D01*
X92088Y16010D01*
X91956Y16004D01*
X91825Y16002D01*
X87310Y16002D01*
X103462Y20518D02*
X103462Y27742D01*
X103461Y27742D02*
X103463Y27875D01*
X103469Y28007D01*
X103479Y28139D01*
X103492Y28271D01*
X103510Y28403D01*
X103531Y28533D01*
X103556Y28664D01*
X103585Y28793D01*
X103618Y28921D01*
X103654Y29049D01*
X103694Y29175D01*
X103738Y29300D01*
X103786Y29424D01*
X103837Y29546D01*
X103892Y29667D01*
X103950Y29786D01*
X104012Y29904D01*
X104077Y30019D01*
X104146Y30133D01*
X104217Y30244D01*
X104293Y30353D01*
X104371Y30460D01*
X104452Y30565D01*
X104537Y30667D01*
X104624Y30767D01*
X104714Y30864D01*
X104807Y30959D01*
X104903Y31050D01*
X105001Y31139D01*
X105102Y31225D01*
X105206Y31308D01*
X105312Y31388D01*
X105420Y31464D01*
X105530Y31538D01*
X105643Y31608D01*
X105757Y31675D01*
X105874Y31738D01*
X105992Y31798D01*
X106112Y31855D01*
X106234Y31908D01*
X106357Y31957D01*
X106481Y32003D01*
X106607Y32045D01*
X106734Y32083D01*
X106862Y32118D01*
X106991Y32149D01*
X107120Y32176D01*
X107251Y32199D01*
X107382Y32219D01*
X107514Y32234D01*
X107646Y32246D01*
X107778Y32254D01*
X107911Y32258D01*
X108043Y32258D01*
X108176Y32254D01*
X108308Y32246D01*
X108440Y32234D01*
X108572Y32219D01*
X108703Y32199D01*
X108834Y32176D01*
X108963Y32149D01*
X109092Y32118D01*
X109220Y32083D01*
X109347Y32045D01*
X109473Y32003D01*
X109597Y31957D01*
X109720Y31908D01*
X109842Y31855D01*
X109962Y31798D01*
X110080Y31738D01*
X110197Y31675D01*
X110311Y31608D01*
X110424Y31538D01*
X110534Y31464D01*
X110642Y31388D01*
X110748Y31308D01*
X110852Y31225D01*
X110953Y31139D01*
X111051Y31050D01*
X111147Y30959D01*
X111240Y30864D01*
X111330Y30767D01*
X111417Y30667D01*
X111502Y30565D01*
X111583Y30460D01*
X111661Y30353D01*
X111737Y30244D01*
X111808Y30133D01*
X111877Y30019D01*
X111942Y29904D01*
X112004Y29786D01*
X112062Y29667D01*
X112117Y29546D01*
X112168Y29424D01*
X112216Y29300D01*
X112260Y29175D01*
X112300Y29049D01*
X112336Y28921D01*
X112369Y28793D01*
X112398Y28664D01*
X112423Y28533D01*
X112444Y28403D01*
X112462Y28271D01*
X112475Y28139D01*
X112485Y28007D01*
X112491Y27875D01*
X112493Y27742D01*
X112493Y20518D01*
X112491Y20385D01*
X112485Y20253D01*
X112475Y20121D01*
X112462Y19989D01*
X112444Y19857D01*
X112423Y19727D01*
X112398Y19596D01*
X112369Y19467D01*
X112336Y19339D01*
X112300Y19211D01*
X112260Y19085D01*
X112216Y18960D01*
X112168Y18836D01*
X112117Y18714D01*
X112062Y18593D01*
X112004Y18474D01*
X111942Y18356D01*
X111877Y18241D01*
X111808Y18127D01*
X111737Y18016D01*
X111661Y17907D01*
X111583Y17800D01*
X111502Y17695D01*
X111417Y17593D01*
X111330Y17493D01*
X111240Y17396D01*
X111147Y17301D01*
X111051Y17210D01*
X110953Y17121D01*
X110852Y17035D01*
X110748Y16952D01*
X110642Y16872D01*
X110534Y16796D01*
X110424Y16722D01*
X110311Y16652D01*
X110197Y16585D01*
X110080Y16522D01*
X109962Y16462D01*
X109842Y16405D01*
X109720Y16352D01*
X109597Y16303D01*
X109473Y16257D01*
X109347Y16215D01*
X109220Y16177D01*
X109092Y16142D01*
X108963Y16111D01*
X108834Y16084D01*
X108703Y16061D01*
X108572Y16041D01*
X108440Y16026D01*
X108308Y16014D01*
X108176Y16006D01*
X108043Y16002D01*
X107911Y16002D01*
X107778Y16006D01*
X107646Y16014D01*
X107514Y16026D01*
X107382Y16041D01*
X107251Y16061D01*
X107120Y16084D01*
X106991Y16111D01*
X106862Y16142D01*
X106734Y16177D01*
X106607Y16215D01*
X106481Y16257D01*
X106357Y16303D01*
X106234Y16352D01*
X106112Y16405D01*
X105992Y16462D01*
X105874Y16522D01*
X105757Y16585D01*
X105643Y16652D01*
X105530Y16722D01*
X105420Y16796D01*
X105312Y16872D01*
X105206Y16952D01*
X105102Y17035D01*
X105001Y17121D01*
X104903Y17210D01*
X104807Y17301D01*
X104714Y17396D01*
X104624Y17493D01*
X104537Y17593D01*
X104452Y17695D01*
X104371Y17800D01*
X104293Y17907D01*
X104217Y18016D01*
X104146Y18127D01*
X104077Y18241D01*
X104012Y18356D01*
X103950Y18474D01*
X103892Y18593D01*
X103837Y18714D01*
X103786Y18836D01*
X103738Y18960D01*
X103694Y19085D01*
X103654Y19211D01*
X103618Y19339D01*
X103585Y19467D01*
X103556Y19596D01*
X103531Y19727D01*
X103510Y19857D01*
X103492Y19989D01*
X103479Y20121D01*
X103469Y20253D01*
X103463Y20385D01*
X103461Y20518D01*
X119614Y16002D02*
X119614Y32258D01*
X124130Y32258D01*
X124261Y32256D01*
X124393Y32250D01*
X124524Y32241D01*
X124654Y32227D01*
X124785Y32210D01*
X124914Y32189D01*
X125043Y32165D01*
X125171Y32136D01*
X125299Y32104D01*
X125425Y32068D01*
X125550Y32029D01*
X125675Y31986D01*
X125797Y31939D01*
X125919Y31889D01*
X126039Y31835D01*
X126157Y31778D01*
X126273Y31717D01*
X126388Y31653D01*
X126501Y31586D01*
X126612Y31515D01*
X126720Y31441D01*
X126827Y31364D01*
X126931Y31284D01*
X127033Y31201D01*
X127132Y31116D01*
X127229Y31027D01*
X127323Y30935D01*
X127415Y30841D01*
X127504Y30744D01*
X127589Y30645D01*
X127672Y30543D01*
X127752Y30439D01*
X127829Y30332D01*
X127903Y30224D01*
X127974Y30113D01*
X128041Y30000D01*
X128105Y29885D01*
X128166Y29769D01*
X128223Y29651D01*
X128277Y29531D01*
X128327Y29409D01*
X128374Y29287D01*
X128417Y29162D01*
X128456Y29037D01*
X128492Y28911D01*
X128524Y28783D01*
X128553Y28655D01*
X128577Y28526D01*
X128598Y28397D01*
X128615Y28266D01*
X128629Y28136D01*
X128638Y28005D01*
X128644Y27873D01*
X128646Y27742D01*
X128645Y27742D02*
X128645Y20518D01*
X128646Y20518D02*
X128644Y20387D01*
X128638Y20255D01*
X128629Y20124D01*
X128615Y19994D01*
X128598Y19863D01*
X128577Y19734D01*
X128553Y19605D01*
X128524Y19477D01*
X128492Y19349D01*
X128456Y19223D01*
X128417Y19098D01*
X128374Y18973D01*
X128327Y18851D01*
X128277Y18729D01*
X128223Y18609D01*
X128166Y18491D01*
X128105Y18375D01*
X128041Y18260D01*
X127974Y18147D01*
X127903Y18036D01*
X127829Y17928D01*
X127752Y17821D01*
X127672Y17717D01*
X127589Y17615D01*
X127504Y17516D01*
X127415Y17419D01*
X127323Y17325D01*
X127229Y17233D01*
X127132Y17144D01*
X127033Y17059D01*
X126931Y16976D01*
X126827Y16896D01*
X126720Y16819D01*
X126612Y16745D01*
X126501Y16674D01*
X126388Y16607D01*
X126273Y16543D01*
X126157Y16482D01*
X126039Y16425D01*
X125919Y16371D01*
X125797Y16321D01*
X125675Y16274D01*
X125550Y16231D01*
X125425Y16192D01*
X125299Y16156D01*
X125171Y16124D01*
X125043Y16095D01*
X124914Y16071D01*
X124784Y16050D01*
X124654Y16033D01*
X124524Y16019D01*
X124393Y16010D01*
X124261Y16004D01*
X124130Y16002D01*
X119614Y16002D01*
X140664Y16002D02*
X140782Y16004D01*
X140900Y16010D01*
X141018Y16019D01*
X141135Y16033D01*
X141252Y16050D01*
X141369Y16071D01*
X141484Y16096D01*
X141599Y16125D01*
X141713Y16158D01*
X141825Y16194D01*
X141936Y16234D01*
X142046Y16277D01*
X142155Y16324D01*
X142262Y16374D01*
X142367Y16429D01*
X142470Y16486D01*
X142571Y16547D01*
X142671Y16611D01*
X142768Y16678D01*
X142863Y16748D01*
X142955Y16822D01*
X143046Y16898D01*
X143133Y16978D01*
X143218Y17060D01*
X143300Y17145D01*
X143380Y17232D01*
X143456Y17323D01*
X143530Y17415D01*
X143600Y17510D01*
X143667Y17607D01*
X143731Y17707D01*
X143792Y17808D01*
X143849Y17911D01*
X143904Y18016D01*
X143954Y18123D01*
X144001Y18232D01*
X144044Y18342D01*
X144084Y18453D01*
X144120Y18565D01*
X144153Y18679D01*
X144182Y18794D01*
X144207Y18909D01*
X144228Y19026D01*
X144245Y19143D01*
X144259Y19260D01*
X144268Y19378D01*
X144274Y19496D01*
X144276Y19614D01*
X140664Y16002D02*
X140481Y16004D01*
X140299Y16011D01*
X140117Y16022D01*
X139935Y16037D01*
X139753Y16057D01*
X139572Y16080D01*
X139392Y16109D01*
X139212Y16141D01*
X139033Y16178D01*
X138856Y16219D01*
X138679Y16265D01*
X138503Y16314D01*
X138329Y16368D01*
X138155Y16426D01*
X137984Y16488D01*
X137814Y16554D01*
X137645Y16625D01*
X137478Y16699D01*
X137313Y16777D01*
X137150Y16859D01*
X136989Y16945D01*
X136830Y17035D01*
X136673Y17129D01*
X136519Y17226D01*
X136367Y17327D01*
X136217Y17432D01*
X136070Y17540D01*
X135926Y17651D01*
X135784Y17766D01*
X135645Y17885D01*
X135509Y18007D01*
X135376Y18132D01*
X135246Y18260D01*
X135697Y28646D02*
X135699Y28764D01*
X135705Y28882D01*
X135714Y29000D01*
X135728Y29117D01*
X135745Y29234D01*
X135766Y29351D01*
X135791Y29466D01*
X135820Y29581D01*
X135853Y29695D01*
X135889Y29807D01*
X135929Y29918D01*
X135972Y30028D01*
X136019Y30137D01*
X136069Y30244D01*
X136124Y30349D01*
X136181Y30452D01*
X136242Y30553D01*
X136306Y30653D01*
X136373Y30750D01*
X136443Y30845D01*
X136517Y30937D01*
X136593Y31028D01*
X136673Y31115D01*
X136755Y31200D01*
X136840Y31282D01*
X136927Y31362D01*
X137018Y31438D01*
X137110Y31512D01*
X137205Y31582D01*
X137302Y31649D01*
X137402Y31713D01*
X137503Y31774D01*
X137606Y31832D01*
X137711Y31886D01*
X137818Y31936D01*
X137927Y31983D01*
X138037Y32027D01*
X138148Y32066D01*
X138261Y32102D01*
X138374Y32135D01*
X138489Y32164D01*
X138604Y32189D01*
X138721Y32210D01*
X138838Y32227D01*
X138955Y32241D01*
X139073Y32250D01*
X139191Y32256D01*
X139309Y32258D01*
X139470Y32256D01*
X139632Y32250D01*
X139793Y32241D01*
X139954Y32227D01*
X140114Y32210D01*
X140274Y32189D01*
X140434Y32164D01*
X140593Y32135D01*
X140751Y32103D01*
X140908Y32067D01*
X141064Y32027D01*
X141220Y31983D01*
X141374Y31935D01*
X141527Y31884D01*
X141679Y31830D01*
X141830Y31771D01*
X141979Y31710D01*
X142126Y31644D01*
X142272Y31575D01*
X142417Y31503D01*
X142559Y31427D01*
X142700Y31348D01*
X142839Y31266D01*
X142975Y31180D01*
X143110Y31091D01*
X143243Y30999D01*
X143373Y30903D01*
X137503Y25485D02*
X137402Y25547D01*
X137302Y25612D01*
X137205Y25681D01*
X137110Y25753D01*
X137017Y25827D01*
X136927Y25905D01*
X136839Y25986D01*
X136754Y26069D01*
X136672Y26155D01*
X136593Y26244D01*
X136516Y26335D01*
X136443Y26429D01*
X136372Y26525D01*
X136305Y26623D01*
X136241Y26723D01*
X136180Y26826D01*
X136123Y26930D01*
X136069Y27036D01*
X136019Y27144D01*
X135972Y27253D01*
X135928Y27364D01*
X135888Y27476D01*
X135852Y27590D01*
X135820Y27704D01*
X135791Y27820D01*
X135766Y27936D01*
X135745Y28053D01*
X135728Y28171D01*
X135714Y28289D01*
X135705Y28408D01*
X135699Y28527D01*
X135697Y28646D01*
X142471Y22775D02*
X142572Y22713D01*
X142672Y22648D01*
X142769Y22579D01*
X142864Y22507D01*
X142957Y22433D01*
X143047Y22355D01*
X143135Y22274D01*
X143220Y22191D01*
X143302Y22105D01*
X143381Y22016D01*
X143458Y21925D01*
X143531Y21831D01*
X143602Y21735D01*
X143669Y21637D01*
X143733Y21537D01*
X143794Y21434D01*
X143851Y21330D01*
X143905Y21224D01*
X143955Y21116D01*
X144002Y21007D01*
X144046Y20896D01*
X144086Y20784D01*
X144122Y20670D01*
X144154Y20556D01*
X144183Y20440D01*
X144208Y20324D01*
X144229Y20207D01*
X144246Y20089D01*
X144260Y19971D01*
X144269Y19852D01*
X144275Y19733D01*
X144277Y19614D01*
X142470Y22775D02*
X137503Y25485D01*
X150356Y27742D02*
X150356Y20518D01*
X150355Y27742D02*
X150357Y27875D01*
X150363Y28007D01*
X150373Y28139D01*
X150386Y28271D01*
X150404Y28403D01*
X150425Y28533D01*
X150450Y28664D01*
X150479Y28793D01*
X150512Y28921D01*
X150548Y29049D01*
X150588Y29175D01*
X150632Y29300D01*
X150680Y29424D01*
X150731Y29546D01*
X150786Y29667D01*
X150844Y29786D01*
X150906Y29904D01*
X150971Y30019D01*
X151040Y30133D01*
X151111Y30244D01*
X151187Y30353D01*
X151265Y30460D01*
X151346Y30565D01*
X151431Y30667D01*
X151518Y30767D01*
X151608Y30864D01*
X151701Y30959D01*
X151797Y31050D01*
X151895Y31139D01*
X151996Y31225D01*
X152100Y31308D01*
X152206Y31388D01*
X152314Y31464D01*
X152424Y31538D01*
X152537Y31608D01*
X152651Y31675D01*
X152768Y31738D01*
X152886Y31798D01*
X153006Y31855D01*
X153128Y31908D01*
X153251Y31957D01*
X153375Y32003D01*
X153501Y32045D01*
X153628Y32083D01*
X153756Y32118D01*
X153885Y32149D01*
X154014Y32176D01*
X154145Y32199D01*
X154276Y32219D01*
X154408Y32234D01*
X154540Y32246D01*
X154672Y32254D01*
X154805Y32258D01*
X154937Y32258D01*
X155070Y32254D01*
X155202Y32246D01*
X155334Y32234D01*
X155466Y32219D01*
X155597Y32199D01*
X155728Y32176D01*
X155857Y32149D01*
X155986Y32118D01*
X156114Y32083D01*
X156241Y32045D01*
X156367Y32003D01*
X156491Y31957D01*
X156614Y31908D01*
X156736Y31855D01*
X156856Y31798D01*
X156974Y31738D01*
X157091Y31675D01*
X157205Y31608D01*
X157318Y31538D01*
X157428Y31464D01*
X157536Y31388D01*
X157642Y31308D01*
X157746Y31225D01*
X157847Y31139D01*
X157945Y31050D01*
X158041Y30959D01*
X158134Y30864D01*
X158224Y30767D01*
X158311Y30667D01*
X158396Y30565D01*
X158477Y30460D01*
X158555Y30353D01*
X158631Y30244D01*
X158702Y30133D01*
X158771Y30019D01*
X158836Y29904D01*
X158898Y29786D01*
X158956Y29667D01*
X159011Y29546D01*
X159062Y29424D01*
X159110Y29300D01*
X159154Y29175D01*
X159194Y29049D01*
X159230Y28921D01*
X159263Y28793D01*
X159292Y28664D01*
X159317Y28533D01*
X159338Y28403D01*
X159356Y28271D01*
X159369Y28139D01*
X159379Y28007D01*
X159385Y27875D01*
X159387Y27742D01*
X159387Y20518D01*
X159385Y20385D01*
X159379Y20253D01*
X159369Y20121D01*
X159356Y19989D01*
X159338Y19857D01*
X159317Y19727D01*
X159292Y19596D01*
X159263Y19467D01*
X159230Y19339D01*
X159194Y19211D01*
X159154Y19085D01*
X159110Y18960D01*
X159062Y18836D01*
X159011Y18714D01*
X158956Y18593D01*
X158898Y18474D01*
X158836Y18356D01*
X158771Y18241D01*
X158702Y18127D01*
X158631Y18016D01*
X158555Y17907D01*
X158477Y17800D01*
X158396Y17695D01*
X158311Y17593D01*
X158224Y17493D01*
X158134Y17396D01*
X158041Y17301D01*
X157945Y17210D01*
X157847Y17121D01*
X157746Y17035D01*
X157642Y16952D01*
X157536Y16872D01*
X157428Y16796D01*
X157318Y16722D01*
X157205Y16652D01*
X157091Y16585D01*
X156974Y16522D01*
X156856Y16462D01*
X156736Y16405D01*
X156614Y16352D01*
X156491Y16303D01*
X156367Y16257D01*
X156241Y16215D01*
X156114Y16177D01*
X155986Y16142D01*
X155857Y16111D01*
X155728Y16084D01*
X155597Y16061D01*
X155466Y16041D01*
X155334Y16026D01*
X155202Y16014D01*
X155070Y16006D01*
X154937Y16002D01*
X154805Y16002D01*
X154672Y16006D01*
X154540Y16014D01*
X154408Y16026D01*
X154276Y16041D01*
X154145Y16061D01*
X154014Y16084D01*
X153885Y16111D01*
X153756Y16142D01*
X153628Y16177D01*
X153501Y16215D01*
X153375Y16257D01*
X153251Y16303D01*
X153128Y16352D01*
X153006Y16405D01*
X152886Y16462D01*
X152768Y16522D01*
X152651Y16585D01*
X152537Y16652D01*
X152424Y16722D01*
X152314Y16796D01*
X152206Y16872D01*
X152100Y16952D01*
X151996Y17035D01*
X151895Y17121D01*
X151797Y17210D01*
X151701Y17301D01*
X151608Y17396D01*
X151518Y17493D01*
X151431Y17593D01*
X151346Y17695D01*
X151265Y17800D01*
X151187Y17907D01*
X151111Y18016D01*
X151040Y18127D01*
X150971Y18241D01*
X150906Y18356D01*
X150844Y18474D01*
X150786Y18593D01*
X150731Y18714D01*
X150680Y18836D01*
X150632Y18960D01*
X150588Y19085D01*
X150548Y19211D01*
X150512Y19339D01*
X150479Y19467D01*
X150450Y19596D01*
X150425Y19727D01*
X150404Y19857D01*
X150386Y19989D01*
X150373Y20121D01*
X150363Y20253D01*
X150357Y20385D01*
X150355Y20518D01*
X166508Y16002D02*
X166508Y32258D01*
X175539Y16002D01*
X175539Y32258D01*
X191262Y447802D02*
X191262Y464058D01*
X195778Y464058D01*
X195911Y464056D01*
X196043Y464050D01*
X196175Y464040D01*
X196307Y464027D01*
X196439Y464009D01*
X196569Y463988D01*
X196700Y463963D01*
X196829Y463934D01*
X196957Y463901D01*
X197085Y463865D01*
X197211Y463825D01*
X197336Y463781D01*
X197460Y463733D01*
X197582Y463682D01*
X197703Y463627D01*
X197822Y463569D01*
X197940Y463507D01*
X198055Y463442D01*
X198169Y463373D01*
X198280Y463302D01*
X198389Y463226D01*
X198496Y463148D01*
X198601Y463067D01*
X198703Y462982D01*
X198803Y462895D01*
X198900Y462805D01*
X198995Y462712D01*
X199086Y462616D01*
X199175Y462518D01*
X199261Y462417D01*
X199344Y462313D01*
X199424Y462207D01*
X199500Y462099D01*
X199574Y461989D01*
X199644Y461876D01*
X199711Y461762D01*
X199774Y461645D01*
X199834Y461527D01*
X199891Y461407D01*
X199944Y461285D01*
X199993Y461162D01*
X200039Y461038D01*
X200081Y460912D01*
X200119Y460785D01*
X200154Y460657D01*
X200185Y460528D01*
X200212Y460399D01*
X200235Y460268D01*
X200255Y460137D01*
X200270Y460005D01*
X200282Y459873D01*
X200290Y459741D01*
X200294Y459608D01*
X200294Y459476D01*
X200290Y459343D01*
X200282Y459211D01*
X200270Y459079D01*
X200255Y458947D01*
X200235Y458816D01*
X200212Y458685D01*
X200185Y458556D01*
X200154Y458427D01*
X200119Y458299D01*
X200081Y458172D01*
X200039Y458046D01*
X199993Y457922D01*
X199944Y457799D01*
X199891Y457677D01*
X199834Y457557D01*
X199774Y457439D01*
X199711Y457322D01*
X199644Y457208D01*
X199574Y457095D01*
X199500Y456985D01*
X199424Y456877D01*
X199344Y456771D01*
X199261Y456667D01*
X199175Y456566D01*
X199086Y456468D01*
X198995Y456372D01*
X198900Y456279D01*
X198803Y456189D01*
X198703Y456102D01*
X198601Y456017D01*
X198496Y455936D01*
X198389Y455858D01*
X198280Y455782D01*
X198169Y455711D01*
X198055Y455642D01*
X197940Y455577D01*
X197822Y455515D01*
X197703Y455457D01*
X197582Y455402D01*
X197460Y455351D01*
X197336Y455303D01*
X197211Y455259D01*
X197085Y455219D01*
X196957Y455183D01*
X196829Y455150D01*
X196700Y455121D01*
X196569Y455096D01*
X196439Y455075D01*
X196307Y455057D01*
X196175Y455044D01*
X196043Y455034D01*
X195911Y455028D01*
X195778Y455026D01*
X195778Y455027D02*
X191262Y455027D01*
X196681Y455027D02*
X200293Y447802D01*
X207353Y447802D02*
X214577Y447802D01*
X207353Y447802D02*
X207353Y464058D01*
X214577Y464058D01*
X212771Y456833D02*
X207353Y456833D01*
X219446Y464058D02*
X224864Y447802D01*
X230283Y464058D01*
X237335Y461800D02*
X237198Y461511D01*
X237068Y461219D01*
X236945Y460923D01*
X236830Y460625D01*
X236721Y460324D01*
X236620Y460021D01*
X236526Y459715D01*
X236439Y459408D01*
X236360Y459098D01*
X236288Y458786D01*
X236224Y458473D01*
X236167Y458158D01*
X236117Y457842D01*
X236075Y457525D01*
X236041Y457207D01*
X236014Y456889D01*
X235995Y456569D01*
X235984Y456250D01*
X235980Y455930D01*
X237335Y461801D02*
X237374Y461909D01*
X237417Y462016D01*
X237463Y462121D01*
X237514Y462225D01*
X237567Y462327D01*
X237624Y462427D01*
X237685Y462525D01*
X237749Y462620D01*
X237816Y462714D01*
X237887Y462805D01*
X237960Y462894D01*
X238037Y462980D01*
X238116Y463063D01*
X238198Y463144D01*
X238283Y463222D01*
X238371Y463296D01*
X238461Y463368D01*
X238553Y463436D01*
X238648Y463502D01*
X238745Y463564D01*
X238844Y463622D01*
X238946Y463678D01*
X239048Y463729D01*
X239153Y463777D01*
X239259Y463822D01*
X239367Y463863D01*
X239476Y463900D01*
X239586Y463933D01*
X239698Y463962D01*
X239810Y463988D01*
X239923Y464010D01*
X240037Y464027D01*
X240151Y464041D01*
X240266Y464051D01*
X240381Y464057D01*
X240496Y464059D01*
X240496Y464058D02*
X240611Y464056D01*
X240726Y464050D01*
X240841Y464040D01*
X240955Y464026D01*
X241069Y464009D01*
X241182Y463987D01*
X241294Y463961D01*
X241406Y463932D01*
X241516Y463899D01*
X241625Y463862D01*
X241733Y463821D01*
X241839Y463776D01*
X241944Y463728D01*
X242046Y463677D01*
X242147Y463621D01*
X242247Y463563D01*
X242344Y463501D01*
X242438Y463436D01*
X242531Y463367D01*
X242621Y463295D01*
X242709Y463221D01*
X242794Y463143D01*
X242876Y463062D01*
X242955Y462979D01*
X243032Y462893D01*
X243105Y462804D01*
X243176Y462713D01*
X243243Y462619D01*
X243307Y462524D01*
X243368Y462426D01*
X243425Y462326D01*
X243478Y462224D01*
X243529Y462120D01*
X243575Y462015D01*
X243618Y461908D01*
X243657Y461800D01*
X243656Y461800D02*
X243793Y461511D01*
X243923Y461219D01*
X244046Y460923D01*
X244161Y460625D01*
X244270Y460324D01*
X244371Y460021D01*
X244465Y459715D01*
X244552Y459408D01*
X244631Y459098D01*
X244703Y458786D01*
X244767Y458473D01*
X244824Y458158D01*
X244874Y457842D01*
X244916Y457525D01*
X244950Y457207D01*
X244977Y456889D01*
X244996Y456569D01*
X245007Y456250D01*
X245011Y455930D01*
X235980Y455930D02*
X235984Y455610D01*
X235995Y455291D01*
X236014Y454971D01*
X236041Y454653D01*
X236075Y454335D01*
X236117Y454018D01*
X236167Y453702D01*
X236224Y453387D01*
X236288Y453074D01*
X236360Y452762D01*
X236439Y452452D01*
X236526Y452145D01*
X236620Y451839D01*
X236721Y451536D01*
X236830Y451235D01*
X236945Y450937D01*
X237068Y450641D01*
X237198Y450349D01*
X237335Y450060D01*
X237374Y449952D01*
X237417Y449845D01*
X237463Y449740D01*
X237514Y449636D01*
X237567Y449534D01*
X237624Y449434D01*
X237685Y449336D01*
X237749Y449241D01*
X237816Y449147D01*
X237887Y449056D01*
X237960Y448967D01*
X238037Y448881D01*
X238116Y448798D01*
X238198Y448717D01*
X238283Y448639D01*
X238371Y448565D01*
X238461Y448493D01*
X238554Y448424D01*
X238648Y448359D01*
X238745Y448297D01*
X238845Y448239D01*
X238946Y448183D01*
X239048Y448132D01*
X239153Y448084D01*
X239259Y448039D01*
X239367Y447998D01*
X239476Y447961D01*
X239586Y447928D01*
X239698Y447899D01*
X239810Y447873D01*
X239923Y447851D01*
X240037Y447834D01*
X240151Y447820D01*
X240266Y447810D01*
X240381Y447804D01*
X240496Y447802D01*
X243656Y450060D02*
X243793Y450349D01*
X243923Y450641D01*
X244046Y450937D01*
X244161Y451235D01*
X244270Y451536D01*
X244371Y451839D01*
X244465Y452145D01*
X244552Y452452D01*
X244631Y452762D01*
X244703Y453074D01*
X244767Y453387D01*
X244824Y453702D01*
X244874Y454018D01*
X244916Y454335D01*
X244950Y454653D01*
X244977Y454971D01*
X244996Y455291D01*
X245007Y455610D01*
X245011Y455930D01*
X243657Y450060D02*
X243618Y449952D01*
X243575Y449845D01*
X243529Y449740D01*
X243478Y449636D01*
X243425Y449534D01*
X243368Y449434D01*
X243307Y449336D01*
X243243Y449241D01*
X243176Y449147D01*
X243105Y449056D01*
X243032Y448967D01*
X242955Y448881D01*
X242876Y448798D01*
X242794Y448717D01*
X242709Y448639D01*
X242621Y448565D01*
X242531Y448493D01*
X242438Y448424D01*
X242344Y448359D01*
X242247Y448297D01*
X242147Y448239D01*
X242046Y448183D01*
X241943Y448132D01*
X241839Y448084D01*
X241733Y448039D01*
X241625Y447998D01*
X241516Y447961D01*
X241406Y447928D01*
X241294Y447899D01*
X241182Y447873D01*
X241069Y447851D01*
X240955Y447834D01*
X240841Y447820D01*
X240726Y447810D01*
X240611Y447804D01*
X240496Y447802D01*
X236883Y451414D02*
X244108Y460446D01*
X317331Y32258D02*
X317331Y19614D01*
X317330Y19614D02*
X317328Y19496D01*
X317322Y19378D01*
X317313Y19260D01*
X317299Y19143D01*
X317282Y19026D01*
X317261Y18909D01*
X317236Y18794D01*
X317207Y18679D01*
X317174Y18565D01*
X317138Y18453D01*
X317098Y18342D01*
X317055Y18232D01*
X317008Y18123D01*
X316958Y18016D01*
X316903Y17911D01*
X316846Y17808D01*
X316785Y17707D01*
X316721Y17607D01*
X316654Y17510D01*
X316584Y17415D01*
X316510Y17323D01*
X316434Y17232D01*
X316354Y17145D01*
X316272Y17060D01*
X316187Y16978D01*
X316100Y16898D01*
X316009Y16822D01*
X315917Y16748D01*
X315822Y16678D01*
X315725Y16611D01*
X315625Y16547D01*
X315524Y16486D01*
X315421Y16429D01*
X315316Y16374D01*
X315209Y16324D01*
X315100Y16277D01*
X314990Y16234D01*
X314879Y16194D01*
X314767Y16158D01*
X314653Y16125D01*
X314538Y16096D01*
X314423Y16071D01*
X314306Y16050D01*
X314189Y16033D01*
X314072Y16019D01*
X313954Y16010D01*
X313836Y16004D01*
X313718Y16002D01*
X311912Y16002D01*
X324919Y20518D02*
X324919Y32258D01*
X324918Y20518D02*
X324920Y20385D01*
X324926Y20253D01*
X324936Y20121D01*
X324949Y19989D01*
X324967Y19857D01*
X324988Y19727D01*
X325013Y19596D01*
X325042Y19467D01*
X325075Y19339D01*
X325111Y19211D01*
X325151Y19085D01*
X325195Y18960D01*
X325243Y18836D01*
X325294Y18714D01*
X325349Y18593D01*
X325407Y18474D01*
X325469Y18356D01*
X325534Y18241D01*
X325603Y18127D01*
X325674Y18016D01*
X325750Y17907D01*
X325828Y17800D01*
X325909Y17695D01*
X325994Y17593D01*
X326081Y17493D01*
X326171Y17396D01*
X326264Y17301D01*
X326360Y17210D01*
X326458Y17121D01*
X326559Y17035D01*
X326663Y16952D01*
X326769Y16872D01*
X326877Y16796D01*
X326987Y16722D01*
X327100Y16652D01*
X327214Y16585D01*
X327331Y16522D01*
X327449Y16462D01*
X327569Y16405D01*
X327691Y16352D01*
X327814Y16303D01*
X327938Y16257D01*
X328064Y16215D01*
X328191Y16177D01*
X328319Y16142D01*
X328448Y16111D01*
X328577Y16084D01*
X328708Y16061D01*
X328839Y16041D01*
X328971Y16026D01*
X329103Y16014D01*
X329235Y16006D01*
X329368Y16002D01*
X329500Y16002D01*
X329633Y16006D01*
X329765Y16014D01*
X329897Y16026D01*
X330029Y16041D01*
X330160Y16061D01*
X330291Y16084D01*
X330420Y16111D01*
X330549Y16142D01*
X330677Y16177D01*
X330804Y16215D01*
X330930Y16257D01*
X331054Y16303D01*
X331177Y16352D01*
X331299Y16405D01*
X331419Y16462D01*
X331537Y16522D01*
X331654Y16585D01*
X331768Y16652D01*
X331881Y16722D01*
X331991Y16796D01*
X332099Y16872D01*
X332205Y16952D01*
X332309Y17035D01*
X332410Y17121D01*
X332508Y17210D01*
X332604Y17301D01*
X332697Y17396D01*
X332787Y17493D01*
X332874Y17593D01*
X332959Y17695D01*
X333040Y17800D01*
X333118Y17907D01*
X333194Y18016D01*
X333265Y18127D01*
X333334Y18241D01*
X333399Y18356D01*
X333461Y18474D01*
X333519Y18593D01*
X333574Y18714D01*
X333625Y18836D01*
X333673Y18960D01*
X333717Y19085D01*
X333757Y19211D01*
X333793Y19339D01*
X333826Y19467D01*
X333855Y19596D01*
X333880Y19727D01*
X333901Y19857D01*
X333919Y19989D01*
X333932Y20121D01*
X333942Y20253D01*
X333948Y20385D01*
X333950Y20518D01*
X333950Y32258D01*
X341622Y32258D02*
X341622Y16002D01*
X348847Y16002D01*
X359134Y24582D02*
X353715Y32258D01*
X359134Y24582D02*
X364552Y32258D01*
X359134Y24582D02*
X359134Y16002D01*
X383553Y32258D02*
X383678Y32256D01*
X383803Y32250D01*
X383928Y32241D01*
X384052Y32227D01*
X384176Y32210D01*
X384300Y32189D01*
X384422Y32164D01*
X384544Y32135D01*
X384665Y32103D01*
X384785Y32067D01*
X384904Y32027D01*
X385021Y31984D01*
X385137Y31937D01*
X385252Y31886D01*
X385364Y31832D01*
X385476Y31774D01*
X385585Y31714D01*
X385692Y31649D01*
X385798Y31582D01*
X385901Y31511D01*
X386002Y31437D01*
X386101Y31360D01*
X386197Y31280D01*
X386291Y31197D01*
X386382Y31112D01*
X386471Y31023D01*
X386556Y30932D01*
X386639Y30838D01*
X386719Y30742D01*
X386796Y30643D01*
X386870Y30542D01*
X386941Y30439D01*
X387008Y30333D01*
X387073Y30226D01*
X387133Y30117D01*
X387191Y30005D01*
X387245Y29893D01*
X387296Y29778D01*
X387343Y29662D01*
X387386Y29545D01*
X387426Y29426D01*
X387462Y29306D01*
X387494Y29185D01*
X387523Y29063D01*
X387548Y28941D01*
X387569Y28817D01*
X387586Y28693D01*
X387600Y28569D01*
X387609Y28444D01*
X387615Y28319D01*
X387617Y28194D01*
X383553Y32258D02*
X383410Y32256D01*
X383268Y32250D01*
X383125Y32240D01*
X382983Y32227D01*
X382842Y32209D01*
X382700Y32188D01*
X382560Y32163D01*
X382420Y32134D01*
X382281Y32101D01*
X382143Y32064D01*
X382006Y32024D01*
X381871Y31980D01*
X381736Y31932D01*
X381603Y31880D01*
X381471Y31825D01*
X381341Y31766D01*
X381213Y31704D01*
X381086Y31638D01*
X380961Y31569D01*
X380838Y31497D01*
X380718Y31421D01*
X380599Y31342D01*
X380482Y31259D01*
X380368Y31174D01*
X380256Y31085D01*
X380147Y30994D01*
X380040Y30899D01*
X379935Y30802D01*
X379834Y30701D01*
X379735Y30598D01*
X379639Y30493D01*
X379546Y30384D01*
X379456Y30273D01*
X379369Y30160D01*
X379285Y30045D01*
X379205Y29927D01*
X379127Y29807D01*
X379053Y29685D01*
X378983Y29561D01*
X378915Y29435D01*
X378852Y29307D01*
X378791Y29178D01*
X378734Y29047D01*
X378681Y28915D01*
X378632Y28781D01*
X378586Y28646D01*
X386262Y25033D02*
X386356Y25125D01*
X386446Y25219D01*
X386534Y25316D01*
X386619Y25416D01*
X386701Y25518D01*
X386780Y25623D01*
X386855Y25730D01*
X386927Y25839D01*
X386996Y25950D01*
X387062Y26064D01*
X387124Y26179D01*
X387183Y26296D01*
X387238Y26415D01*
X387289Y26535D01*
X387337Y26657D01*
X387382Y26780D01*
X387422Y26904D01*
X387459Y27030D01*
X387492Y27157D01*
X387521Y27284D01*
X387547Y27413D01*
X387568Y27542D01*
X387586Y27672D01*
X387599Y27802D01*
X387609Y27932D01*
X387615Y28063D01*
X387617Y28194D01*
X386262Y25033D02*
X378586Y16002D01*
X387617Y16002D01*
X394217Y24130D02*
X394221Y24450D01*
X394232Y24769D01*
X394251Y25089D01*
X394278Y25407D01*
X394312Y25725D01*
X394354Y26042D01*
X394404Y26358D01*
X394461Y26673D01*
X394525Y26986D01*
X394597Y27298D01*
X394676Y27608D01*
X394763Y27915D01*
X394857Y28221D01*
X394958Y28524D01*
X395067Y28825D01*
X395182Y29123D01*
X395305Y29419D01*
X395435Y29711D01*
X395572Y30000D01*
X395572Y30001D02*
X395611Y30109D01*
X395654Y30216D01*
X395700Y30321D01*
X395751Y30425D01*
X395804Y30527D01*
X395861Y30627D01*
X395922Y30725D01*
X395986Y30820D01*
X396053Y30914D01*
X396124Y31005D01*
X396197Y31094D01*
X396274Y31180D01*
X396353Y31263D01*
X396435Y31344D01*
X396520Y31422D01*
X396608Y31496D01*
X396698Y31568D01*
X396790Y31636D01*
X396885Y31702D01*
X396982Y31764D01*
X397081Y31822D01*
X397183Y31878D01*
X397285Y31929D01*
X397390Y31977D01*
X397496Y32022D01*
X397604Y32063D01*
X397713Y32100D01*
X397823Y32133D01*
X397935Y32162D01*
X398047Y32188D01*
X398160Y32210D01*
X398274Y32227D01*
X398388Y32241D01*
X398503Y32251D01*
X398618Y32257D01*
X398733Y32259D01*
X398733Y32258D02*
X398848Y32256D01*
X398963Y32250D01*
X399078Y32240D01*
X399192Y32226D01*
X399306Y32209D01*
X399419Y32187D01*
X399531Y32161D01*
X399643Y32132D01*
X399753Y32099D01*
X399862Y32062D01*
X399970Y32021D01*
X400076Y31976D01*
X400181Y31928D01*
X400283Y31877D01*
X400384Y31821D01*
X400484Y31763D01*
X400581Y31701D01*
X400675Y31636D01*
X400768Y31567D01*
X400858Y31495D01*
X400946Y31421D01*
X401031Y31343D01*
X401113Y31262D01*
X401192Y31179D01*
X401269Y31093D01*
X401342Y31004D01*
X401413Y30913D01*
X401480Y30819D01*
X401544Y30724D01*
X401605Y30626D01*
X401662Y30526D01*
X401715Y30424D01*
X401766Y30320D01*
X401812Y30215D01*
X401855Y30108D01*
X401894Y30000D01*
X401893Y30000D02*
X402030Y29711D01*
X402160Y29419D01*
X402283Y29123D01*
X402398Y28825D01*
X402507Y28524D01*
X402608Y28221D01*
X402702Y27915D01*
X402789Y27608D01*
X402868Y27298D01*
X402940Y26986D01*
X403004Y26673D01*
X403061Y26358D01*
X403111Y26042D01*
X403153Y25725D01*
X403187Y25407D01*
X403214Y25089D01*
X403233Y24769D01*
X403244Y24450D01*
X403248Y24130D01*
X394218Y24130D02*
X394222Y23810D01*
X394233Y23491D01*
X394252Y23171D01*
X394279Y22853D01*
X394313Y22535D01*
X394355Y22218D01*
X394405Y21902D01*
X394462Y21587D01*
X394526Y21274D01*
X394598Y20962D01*
X394677Y20652D01*
X394764Y20345D01*
X394858Y20039D01*
X394959Y19736D01*
X395068Y19435D01*
X395183Y19137D01*
X395306Y18841D01*
X395436Y18549D01*
X395573Y18260D01*
X395572Y18260D02*
X395611Y18152D01*
X395654Y18045D01*
X395700Y17940D01*
X395751Y17836D01*
X395804Y17734D01*
X395861Y17634D01*
X395922Y17536D01*
X395986Y17441D01*
X396053Y17347D01*
X396124Y17256D01*
X396197Y17167D01*
X396274Y17081D01*
X396353Y16998D01*
X396435Y16917D01*
X396520Y16839D01*
X396608Y16765D01*
X396698Y16693D01*
X396791Y16624D01*
X396885Y16559D01*
X396982Y16497D01*
X397082Y16439D01*
X397183Y16383D01*
X397285Y16332D01*
X397390Y16284D01*
X397496Y16239D01*
X397604Y16198D01*
X397713Y16161D01*
X397823Y16128D01*
X397935Y16099D01*
X398047Y16073D01*
X398160Y16051D01*
X398274Y16034D01*
X398388Y16020D01*
X398503Y16010D01*
X398618Y16004D01*
X398733Y16002D01*
X401893Y18260D02*
X402030Y18549D01*
X402160Y18841D01*
X402283Y19137D01*
X402398Y19435D01*
X402507Y19736D01*
X402608Y20039D01*
X402702Y20345D01*
X402789Y20652D01*
X402868Y20962D01*
X402940Y21274D01*
X403004Y21587D01*
X403061Y21902D01*
X403111Y22218D01*
X403153Y22535D01*
X403187Y22853D01*
X403214Y23171D01*
X403233Y23491D01*
X403244Y23810D01*
X403248Y24130D01*
X401894Y18260D02*
X401855Y18152D01*
X401812Y18045D01*
X401766Y17940D01*
X401715Y17836D01*
X401662Y17734D01*
X401605Y17634D01*
X401544Y17536D01*
X401480Y17441D01*
X401413Y17347D01*
X401342Y17256D01*
X401269Y17167D01*
X401192Y17081D01*
X401113Y16998D01*
X401031Y16917D01*
X400946Y16839D01*
X400858Y16765D01*
X400768Y16693D01*
X400675Y16624D01*
X400581Y16559D01*
X400484Y16497D01*
X400384Y16439D01*
X400283Y16383D01*
X400180Y16332D01*
X400076Y16284D01*
X399970Y16239D01*
X399862Y16198D01*
X399753Y16161D01*
X399643Y16128D01*
X399531Y16099D01*
X399419Y16073D01*
X399306Y16051D01*
X399192Y16034D01*
X399078Y16020D01*
X398963Y16010D01*
X398848Y16004D01*
X398733Y16002D01*
X395120Y19614D02*
X402345Y28646D01*
X409848Y28646D02*
X414364Y32258D01*
X414364Y16002D01*
X409848Y16002D02*
X418880Y16002D01*
X429092Y23227D02*
X434511Y23227D01*
X429092Y23227D02*
X428974Y23229D01*
X428856Y23235D01*
X428738Y23244D01*
X428621Y23258D01*
X428504Y23275D01*
X428387Y23296D01*
X428272Y23321D01*
X428157Y23350D01*
X428043Y23383D01*
X427931Y23419D01*
X427820Y23459D01*
X427710Y23502D01*
X427601Y23549D01*
X427494Y23599D01*
X427389Y23654D01*
X427286Y23711D01*
X427185Y23772D01*
X427085Y23836D01*
X426988Y23903D01*
X426893Y23973D01*
X426801Y24047D01*
X426710Y24123D01*
X426623Y24203D01*
X426538Y24285D01*
X426456Y24370D01*
X426376Y24457D01*
X426300Y24548D01*
X426226Y24640D01*
X426156Y24735D01*
X426089Y24832D01*
X426025Y24932D01*
X425964Y25033D01*
X425907Y25136D01*
X425852Y25241D01*
X425802Y25348D01*
X425755Y25457D01*
X425712Y25567D01*
X425672Y25678D01*
X425636Y25790D01*
X425603Y25904D01*
X425574Y26019D01*
X425549Y26134D01*
X425528Y26251D01*
X425511Y26368D01*
X425497Y26485D01*
X425488Y26603D01*
X425482Y26721D01*
X425480Y26839D01*
X425480Y27742D01*
X425479Y27742D02*
X425481Y27875D01*
X425487Y28007D01*
X425497Y28139D01*
X425510Y28271D01*
X425528Y28403D01*
X425549Y28533D01*
X425574Y28664D01*
X425603Y28793D01*
X425636Y28921D01*
X425672Y29049D01*
X425712Y29175D01*
X425756Y29300D01*
X425804Y29424D01*
X425855Y29546D01*
X425910Y29667D01*
X425968Y29786D01*
X426030Y29904D01*
X426095Y30019D01*
X426164Y30133D01*
X426235Y30244D01*
X426311Y30353D01*
X426389Y30460D01*
X426470Y30565D01*
X426555Y30667D01*
X426642Y30767D01*
X426732Y30864D01*
X426825Y30959D01*
X426921Y31050D01*
X427019Y31139D01*
X427120Y31225D01*
X427224Y31308D01*
X427330Y31388D01*
X427438Y31464D01*
X427548Y31538D01*
X427661Y31608D01*
X427775Y31675D01*
X427892Y31738D01*
X428010Y31798D01*
X428130Y31855D01*
X428252Y31908D01*
X428375Y31957D01*
X428499Y32003D01*
X428625Y32045D01*
X428752Y32083D01*
X428880Y32118D01*
X429009Y32149D01*
X429138Y32176D01*
X429269Y32199D01*
X429400Y32219D01*
X429532Y32234D01*
X429664Y32246D01*
X429796Y32254D01*
X429929Y32258D01*
X430061Y32258D01*
X430194Y32254D01*
X430326Y32246D01*
X430458Y32234D01*
X430590Y32219D01*
X430721Y32199D01*
X430852Y32176D01*
X430981Y32149D01*
X431110Y32118D01*
X431238Y32083D01*
X431365Y32045D01*
X431491Y32003D01*
X431615Y31957D01*
X431738Y31908D01*
X431860Y31855D01*
X431980Y31798D01*
X432098Y31738D01*
X432215Y31675D01*
X432329Y31608D01*
X432442Y31538D01*
X432552Y31464D01*
X432660Y31388D01*
X432766Y31308D01*
X432870Y31225D01*
X432971Y31139D01*
X433069Y31050D01*
X433165Y30959D01*
X433258Y30864D01*
X433348Y30767D01*
X433435Y30667D01*
X433520Y30565D01*
X433601Y30460D01*
X433679Y30353D01*
X433755Y30244D01*
X433826Y30133D01*
X433895Y30019D01*
X433960Y29904D01*
X434022Y29786D01*
X434080Y29667D01*
X434135Y29546D01*
X434186Y29424D01*
X434234Y29300D01*
X434278Y29175D01*
X434318Y29049D01*
X434354Y28921D01*
X434387Y28793D01*
X434416Y28664D01*
X434441Y28533D01*
X434462Y28403D01*
X434480Y28271D01*
X434493Y28139D01*
X434503Y28007D01*
X434509Y27875D01*
X434511Y27742D01*
X434511Y23227D01*
X434509Y23052D01*
X434503Y22878D01*
X434492Y22704D01*
X434477Y22530D01*
X434458Y22356D01*
X434435Y22183D01*
X434408Y22011D01*
X434376Y21839D01*
X434341Y21668D01*
X434301Y21498D01*
X434257Y21329D01*
X434209Y21161D01*
X434157Y20994D01*
X434101Y20829D01*
X434041Y20665D01*
X433978Y20502D01*
X433910Y20342D01*
X433838Y20182D01*
X433763Y20025D01*
X433683Y19869D01*
X433600Y19716D01*
X433514Y19564D01*
X433423Y19415D01*
X433329Y19268D01*
X433232Y19123D01*
X433131Y18980D01*
X433027Y18840D01*
X432919Y18703D01*
X432808Y18568D01*
X432694Y18436D01*
X432577Y18307D01*
X432456Y18180D01*
X432333Y18057D01*
X432206Y17936D01*
X432077Y17819D01*
X431945Y17705D01*
X431810Y17594D01*
X431673Y17486D01*
X431533Y17382D01*
X431390Y17281D01*
X431245Y17184D01*
X431098Y17090D01*
X430949Y16999D01*
X430797Y16913D01*
X430644Y16830D01*
X430488Y16750D01*
X430331Y16675D01*
X430171Y16603D01*
X430011Y16535D01*
X429848Y16472D01*
X429684Y16412D01*
X429519Y16356D01*
X429352Y16304D01*
X429184Y16256D01*
X429015Y16212D01*
X428845Y16172D01*
X428674Y16137D01*
X428502Y16105D01*
X428330Y16078D01*
X428157Y16055D01*
X427983Y16036D01*
X427809Y16021D01*
X427635Y16010D01*
X427461Y16004D01*
X427286Y16002D01*
D11*
X327011Y249428D02*
X324414Y249428D01*
X324315Y249430D01*
X324215Y249436D01*
X324116Y249445D01*
X324018Y249458D01*
X323920Y249475D01*
X323822Y249496D01*
X323726Y249521D01*
X323631Y249549D01*
X323537Y249581D01*
X323444Y249616D01*
X323352Y249655D01*
X323262Y249698D01*
X323174Y249743D01*
X323087Y249793D01*
X323003Y249845D01*
X322920Y249901D01*
X322840Y249959D01*
X322762Y250021D01*
X322687Y250086D01*
X322614Y250154D01*
X322544Y250224D01*
X322476Y250297D01*
X322411Y250372D01*
X322349Y250450D01*
X322291Y250530D01*
X322235Y250613D01*
X322183Y250697D01*
X322133Y250784D01*
X322088Y250872D01*
X322045Y250962D01*
X322006Y251054D01*
X321971Y251147D01*
X321939Y251241D01*
X321911Y251336D01*
X321886Y251432D01*
X321865Y251530D01*
X321848Y251628D01*
X321835Y251726D01*
X321826Y251825D01*
X321820Y251925D01*
X321818Y252024D01*
X321818Y258516D01*
X321820Y258615D01*
X321826Y258715D01*
X321835Y258814D01*
X321848Y258912D01*
X321865Y259010D01*
X321886Y259108D01*
X321911Y259204D01*
X321939Y259299D01*
X321971Y259393D01*
X322006Y259486D01*
X322045Y259578D01*
X322088Y259668D01*
X322133Y259756D01*
X322183Y259843D01*
X322235Y259927D01*
X322291Y260010D01*
X322349Y260090D01*
X322411Y260168D01*
X322476Y260243D01*
X322544Y260316D01*
X322614Y260386D01*
X322687Y260454D01*
X322762Y260519D01*
X322840Y260581D01*
X322920Y260639D01*
X323003Y260695D01*
X323087Y260747D01*
X323174Y260797D01*
X323262Y260842D01*
X323352Y260885D01*
X323444Y260924D01*
X323536Y260959D01*
X323631Y260991D01*
X323726Y261019D01*
X323822Y261044D01*
X323920Y261065D01*
X324018Y261082D01*
X324116Y261095D01*
X324215Y261104D01*
X324315Y261110D01*
X324414Y261112D01*
X327011Y261112D01*
X331376Y258516D02*
X334622Y261112D01*
X334622Y249428D01*
X337867Y249428D02*
X331376Y249428D01*
X174611Y287528D02*
X172014Y287528D01*
X171915Y287530D01*
X171815Y287536D01*
X171716Y287545D01*
X171618Y287558D01*
X171520Y287575D01*
X171422Y287596D01*
X171326Y287621D01*
X171231Y287649D01*
X171137Y287681D01*
X171044Y287716D01*
X170952Y287755D01*
X170862Y287798D01*
X170774Y287843D01*
X170687Y287893D01*
X170603Y287945D01*
X170520Y288001D01*
X170440Y288059D01*
X170362Y288121D01*
X170287Y288186D01*
X170214Y288254D01*
X170144Y288324D01*
X170076Y288397D01*
X170011Y288472D01*
X169949Y288550D01*
X169891Y288630D01*
X169835Y288713D01*
X169783Y288797D01*
X169733Y288884D01*
X169688Y288972D01*
X169645Y289062D01*
X169606Y289154D01*
X169571Y289247D01*
X169539Y289341D01*
X169511Y289436D01*
X169486Y289532D01*
X169465Y289630D01*
X169448Y289728D01*
X169435Y289826D01*
X169426Y289925D01*
X169420Y290025D01*
X169418Y290124D01*
X169418Y296616D01*
X169420Y296715D01*
X169426Y296815D01*
X169435Y296914D01*
X169448Y297012D01*
X169465Y297110D01*
X169486Y297208D01*
X169511Y297304D01*
X169539Y297399D01*
X169571Y297493D01*
X169606Y297586D01*
X169645Y297678D01*
X169688Y297768D01*
X169733Y297856D01*
X169783Y297943D01*
X169835Y298027D01*
X169891Y298110D01*
X169949Y298190D01*
X170011Y298268D01*
X170076Y298343D01*
X170144Y298416D01*
X170214Y298486D01*
X170287Y298554D01*
X170362Y298619D01*
X170440Y298681D01*
X170520Y298739D01*
X170603Y298795D01*
X170687Y298847D01*
X170774Y298897D01*
X170862Y298942D01*
X170952Y298985D01*
X171044Y299024D01*
X171136Y299059D01*
X171231Y299091D01*
X171326Y299119D01*
X171422Y299144D01*
X171520Y299165D01*
X171618Y299182D01*
X171716Y299195D01*
X171815Y299204D01*
X171915Y299210D01*
X172014Y299212D01*
X174611Y299212D01*
X182546Y299212D02*
X182653Y299210D01*
X182759Y299204D01*
X182865Y299194D01*
X182971Y299181D01*
X183077Y299163D01*
X183181Y299142D01*
X183285Y299117D01*
X183388Y299088D01*
X183489Y299056D01*
X183589Y299019D01*
X183688Y298979D01*
X183786Y298936D01*
X183882Y298889D01*
X183976Y298838D01*
X184068Y298784D01*
X184158Y298727D01*
X184246Y298667D01*
X184331Y298603D01*
X184414Y298536D01*
X184495Y298466D01*
X184573Y298394D01*
X184649Y298318D01*
X184721Y298240D01*
X184791Y298159D01*
X184858Y298076D01*
X184922Y297991D01*
X184982Y297903D01*
X185039Y297813D01*
X185093Y297721D01*
X185144Y297627D01*
X185191Y297531D01*
X185234Y297433D01*
X185274Y297334D01*
X185311Y297234D01*
X185343Y297133D01*
X185372Y297030D01*
X185397Y296926D01*
X185418Y296822D01*
X185436Y296716D01*
X185449Y296610D01*
X185459Y296504D01*
X185465Y296398D01*
X185467Y296291D01*
X182546Y299212D02*
X182425Y299210D01*
X182304Y299204D01*
X182184Y299194D01*
X182063Y299181D01*
X181944Y299163D01*
X181824Y299142D01*
X181706Y299117D01*
X181589Y299088D01*
X181472Y299055D01*
X181357Y299019D01*
X181243Y298978D01*
X181130Y298935D01*
X181018Y298887D01*
X180909Y298836D01*
X180801Y298781D01*
X180694Y298723D01*
X180590Y298662D01*
X180488Y298597D01*
X180388Y298529D01*
X180290Y298458D01*
X180194Y298384D01*
X180101Y298307D01*
X180011Y298226D01*
X179923Y298143D01*
X179838Y298057D01*
X179755Y297968D01*
X179676Y297877D01*
X179599Y297783D01*
X179526Y297687D01*
X179456Y297589D01*
X179389Y297488D01*
X179325Y297385D01*
X179265Y297280D01*
X179208Y297173D01*
X179154Y297065D01*
X179104Y296955D01*
X179058Y296843D01*
X179015Y296730D01*
X178976Y296615D01*
X184494Y294019D02*
X184573Y294096D01*
X184649Y294177D01*
X184722Y294260D01*
X184792Y294345D01*
X184859Y294433D01*
X184923Y294523D01*
X184983Y294615D01*
X185040Y294710D01*
X185094Y294806D01*
X185145Y294904D01*
X185192Y295004D01*
X185236Y295106D01*
X185276Y295209D01*
X185312Y295313D01*
X185344Y295419D01*
X185373Y295525D01*
X185398Y295633D01*
X185420Y295741D01*
X185437Y295851D01*
X185451Y295960D01*
X185460Y296070D01*
X185466Y296181D01*
X185468Y296291D01*
X184494Y294019D02*
X178976Y287528D01*
X185467Y287528D01*
X149211Y287528D02*
X146614Y287528D01*
X146515Y287530D01*
X146415Y287536D01*
X146316Y287545D01*
X146218Y287558D01*
X146120Y287575D01*
X146022Y287596D01*
X145926Y287621D01*
X145831Y287649D01*
X145737Y287681D01*
X145644Y287716D01*
X145552Y287755D01*
X145462Y287798D01*
X145374Y287843D01*
X145287Y287893D01*
X145203Y287945D01*
X145120Y288001D01*
X145040Y288059D01*
X144962Y288121D01*
X144887Y288186D01*
X144814Y288254D01*
X144744Y288324D01*
X144676Y288397D01*
X144611Y288472D01*
X144549Y288550D01*
X144491Y288630D01*
X144435Y288713D01*
X144383Y288797D01*
X144333Y288884D01*
X144288Y288972D01*
X144245Y289062D01*
X144206Y289154D01*
X144171Y289247D01*
X144139Y289341D01*
X144111Y289436D01*
X144086Y289532D01*
X144065Y289630D01*
X144048Y289728D01*
X144035Y289826D01*
X144026Y289925D01*
X144020Y290025D01*
X144018Y290124D01*
X144018Y296616D01*
X144020Y296715D01*
X144026Y296815D01*
X144035Y296914D01*
X144048Y297012D01*
X144065Y297110D01*
X144086Y297208D01*
X144111Y297304D01*
X144139Y297399D01*
X144171Y297493D01*
X144206Y297586D01*
X144245Y297678D01*
X144288Y297768D01*
X144333Y297856D01*
X144383Y297943D01*
X144435Y298027D01*
X144491Y298110D01*
X144549Y298190D01*
X144611Y298268D01*
X144676Y298343D01*
X144744Y298416D01*
X144814Y298486D01*
X144887Y298554D01*
X144962Y298619D01*
X145040Y298681D01*
X145120Y298739D01*
X145203Y298795D01*
X145287Y298847D01*
X145374Y298897D01*
X145462Y298942D01*
X145552Y298985D01*
X145644Y299024D01*
X145736Y299059D01*
X145831Y299091D01*
X145926Y299119D01*
X146022Y299144D01*
X146120Y299165D01*
X146218Y299182D01*
X146316Y299195D01*
X146415Y299204D01*
X146515Y299210D01*
X146614Y299212D01*
X149211Y299212D01*
X153576Y287528D02*
X156822Y287528D01*
X156935Y287530D01*
X157048Y287536D01*
X157161Y287546D01*
X157274Y287560D01*
X157386Y287577D01*
X157497Y287599D01*
X157607Y287624D01*
X157717Y287654D01*
X157825Y287687D01*
X157932Y287724D01*
X158038Y287764D01*
X158142Y287809D01*
X158245Y287857D01*
X158346Y287908D01*
X158445Y287963D01*
X158542Y288021D01*
X158637Y288083D01*
X158730Y288148D01*
X158820Y288216D01*
X158908Y288287D01*
X158994Y288362D01*
X159077Y288439D01*
X159157Y288519D01*
X159234Y288602D01*
X159309Y288688D01*
X159380Y288776D01*
X159448Y288866D01*
X159513Y288959D01*
X159575Y289054D01*
X159633Y289151D01*
X159688Y289250D01*
X159739Y289351D01*
X159787Y289454D01*
X159832Y289558D01*
X159872Y289664D01*
X159909Y289771D01*
X159942Y289879D01*
X159972Y289989D01*
X159997Y290099D01*
X160019Y290210D01*
X160036Y290322D01*
X160050Y290435D01*
X160060Y290548D01*
X160066Y290661D01*
X160068Y290774D01*
X160066Y290887D01*
X160060Y291000D01*
X160050Y291113D01*
X160036Y291226D01*
X160019Y291338D01*
X159997Y291449D01*
X159972Y291559D01*
X159942Y291669D01*
X159909Y291777D01*
X159872Y291884D01*
X159832Y291990D01*
X159787Y292094D01*
X159739Y292197D01*
X159688Y292298D01*
X159633Y292397D01*
X159575Y292494D01*
X159513Y292589D01*
X159448Y292682D01*
X159380Y292772D01*
X159309Y292860D01*
X159234Y292946D01*
X159157Y293029D01*
X159077Y293109D01*
X158994Y293186D01*
X158908Y293261D01*
X158820Y293332D01*
X158730Y293400D01*
X158637Y293465D01*
X158542Y293527D01*
X158445Y293585D01*
X158346Y293640D01*
X158245Y293691D01*
X158142Y293739D01*
X158038Y293784D01*
X157932Y293824D01*
X157825Y293861D01*
X157717Y293894D01*
X157607Y293924D01*
X157497Y293949D01*
X157386Y293971D01*
X157274Y293988D01*
X157161Y294002D01*
X157048Y294012D01*
X156935Y294018D01*
X156822Y294020D01*
X157471Y299212D02*
X153576Y299212D01*
X157471Y299212D02*
X157572Y299210D01*
X157672Y299204D01*
X157772Y299194D01*
X157872Y299181D01*
X157971Y299163D01*
X158070Y299142D01*
X158167Y299117D01*
X158264Y299088D01*
X158359Y299055D01*
X158453Y299019D01*
X158545Y298979D01*
X158636Y298936D01*
X158725Y298889D01*
X158812Y298839D01*
X158898Y298785D01*
X158981Y298728D01*
X159061Y298668D01*
X159140Y298605D01*
X159216Y298538D01*
X159289Y298469D01*
X159359Y298397D01*
X159427Y298323D01*
X159492Y298246D01*
X159553Y298166D01*
X159612Y298084D01*
X159667Y298000D01*
X159719Y297914D01*
X159768Y297826D01*
X159813Y297736D01*
X159855Y297644D01*
X159893Y297551D01*
X159927Y297456D01*
X159958Y297361D01*
X159985Y297264D01*
X160008Y297166D01*
X160028Y297067D01*
X160043Y296967D01*
X160055Y296867D01*
X160063Y296767D01*
X160067Y296666D01*
X160067Y296566D01*
X160063Y296465D01*
X160055Y296365D01*
X160043Y296265D01*
X160028Y296165D01*
X160008Y296066D01*
X159985Y295968D01*
X159958Y295871D01*
X159927Y295776D01*
X159893Y295681D01*
X159855Y295588D01*
X159813Y295496D01*
X159768Y295406D01*
X159719Y295318D01*
X159667Y295232D01*
X159612Y295148D01*
X159553Y295066D01*
X159492Y294986D01*
X159427Y294909D01*
X159359Y294835D01*
X159289Y294763D01*
X159216Y294694D01*
X159140Y294627D01*
X159061Y294564D01*
X158981Y294504D01*
X158898Y294447D01*
X158812Y294393D01*
X158725Y294343D01*
X158636Y294296D01*
X158545Y294253D01*
X158453Y294213D01*
X158359Y294177D01*
X158264Y294144D01*
X158167Y294115D01*
X158070Y294090D01*
X157971Y294069D01*
X157872Y294051D01*
X157772Y294038D01*
X157672Y294028D01*
X157572Y294022D01*
X157471Y294020D01*
X157471Y294019D02*
X154874Y294019D01*
X184912Y149926D02*
X184912Y147329D01*
X184910Y147230D01*
X184904Y147130D01*
X184895Y147031D01*
X184882Y146933D01*
X184865Y146835D01*
X184844Y146737D01*
X184819Y146641D01*
X184791Y146546D01*
X184759Y146452D01*
X184724Y146359D01*
X184685Y146267D01*
X184642Y146177D01*
X184597Y146089D01*
X184547Y146002D01*
X184495Y145918D01*
X184439Y145835D01*
X184381Y145755D01*
X184319Y145677D01*
X184254Y145602D01*
X184186Y145529D01*
X184116Y145459D01*
X184043Y145391D01*
X183968Y145326D01*
X183890Y145264D01*
X183810Y145206D01*
X183727Y145150D01*
X183643Y145098D01*
X183556Y145048D01*
X183468Y145003D01*
X183378Y144960D01*
X183286Y144921D01*
X183193Y144886D01*
X183099Y144854D01*
X183004Y144826D01*
X182908Y144801D01*
X182810Y144780D01*
X182712Y144763D01*
X182614Y144750D01*
X182515Y144741D01*
X182415Y144735D01*
X182316Y144733D01*
X175824Y144733D01*
X175824Y144732D02*
X175725Y144734D01*
X175625Y144740D01*
X175526Y144749D01*
X175428Y144762D01*
X175330Y144780D01*
X175232Y144800D01*
X175136Y144825D01*
X175040Y144853D01*
X174946Y144885D01*
X174853Y144920D01*
X174762Y144959D01*
X174672Y145002D01*
X174583Y145047D01*
X174497Y145097D01*
X174412Y145149D01*
X174330Y145205D01*
X174250Y145264D01*
X174172Y145325D01*
X174096Y145390D01*
X174023Y145458D01*
X173953Y145528D01*
X173885Y145601D01*
X173820Y145677D01*
X173759Y145755D01*
X173700Y145835D01*
X173644Y145917D01*
X173592Y146002D01*
X173543Y146088D01*
X173497Y146177D01*
X173454Y146267D01*
X173415Y146358D01*
X173380Y146451D01*
X173348Y146545D01*
X173320Y146641D01*
X173295Y146737D01*
X173275Y146835D01*
X173257Y146933D01*
X173244Y147031D01*
X173235Y147130D01*
X173229Y147229D01*
X173227Y147329D01*
X173228Y147329D02*
X173228Y149926D01*
X173228Y156887D02*
X182316Y154291D01*
X182316Y160782D01*
X179719Y158835D02*
X184912Y158835D01*
D12*
X211000Y10300D02*
X297000Y10300D01*
X211000Y10300D02*
X211000Y153300D01*
X227000Y153300D01*
X281000Y153300D02*
X297000Y153300D01*
X297000Y89800D02*
X297000Y10300D01*
X297000Y137300D02*
X297000Y153300D01*
D10*
X234950Y393700D02*
X222250Y393700D01*
X234950Y393700D02*
X241300Y387350D01*
X241300Y374650D01*
X234950Y368300D01*
X215900Y374650D02*
X215900Y387350D01*
X222250Y393700D01*
X215900Y374650D02*
X222250Y368300D01*
X234950Y368300D01*
X241300Y387350D02*
X247650Y393700D01*
X260350Y393700D01*
X266700Y387350D01*
X266700Y374650D01*
X260350Y368300D01*
X247650Y368300D01*
X241300Y374650D01*
D13*
X219583Y402463D02*
X219583Y411353D01*
X219583Y402463D02*
X219581Y402363D01*
X219575Y402264D01*
X219565Y402164D01*
X219552Y402066D01*
X219534Y401967D01*
X219513Y401870D01*
X219488Y401774D01*
X219459Y401678D01*
X219426Y401584D01*
X219390Y401491D01*
X219350Y401400D01*
X219306Y401310D01*
X219259Y401222D01*
X219209Y401136D01*
X219155Y401052D01*
X219098Y400970D01*
X219038Y400891D01*
X218974Y400813D01*
X218908Y400739D01*
X218839Y400667D01*
X218767Y400598D01*
X218693Y400532D01*
X218615Y400468D01*
X218536Y400408D01*
X218454Y400351D01*
X218370Y400297D01*
X218284Y400247D01*
X218196Y400200D01*
X218106Y400156D01*
X218015Y400116D01*
X217922Y400080D01*
X217828Y400047D01*
X217732Y400018D01*
X217636Y399993D01*
X217539Y399972D01*
X217440Y399954D01*
X217342Y399941D01*
X217242Y399931D01*
X217143Y399925D01*
X217043Y399923D01*
X215773Y399923D01*
X225563Y399923D02*
X225563Y411353D01*
X228738Y411353D01*
X228849Y411351D01*
X228959Y411345D01*
X229070Y411336D01*
X229180Y411322D01*
X229289Y411305D01*
X229398Y411284D01*
X229506Y411259D01*
X229613Y411230D01*
X229719Y411198D01*
X229824Y411162D01*
X229927Y411122D01*
X230029Y411079D01*
X230130Y411032D01*
X230229Y410981D01*
X230326Y410928D01*
X230420Y410871D01*
X230513Y410810D01*
X230604Y410747D01*
X230693Y410680D01*
X230779Y410610D01*
X230862Y410537D01*
X230944Y410462D01*
X231022Y410384D01*
X231097Y410302D01*
X231170Y410219D01*
X231240Y410133D01*
X231307Y410044D01*
X231370Y409953D01*
X231431Y409860D01*
X231488Y409765D01*
X231541Y409669D01*
X231592Y409570D01*
X231639Y409469D01*
X231682Y409367D01*
X231722Y409264D01*
X231758Y409159D01*
X231790Y409053D01*
X231819Y408946D01*
X231844Y408838D01*
X231865Y408729D01*
X231882Y408620D01*
X231896Y408510D01*
X231905Y408399D01*
X231911Y408289D01*
X231913Y408178D01*
X231911Y408067D01*
X231905Y407957D01*
X231896Y407846D01*
X231882Y407736D01*
X231865Y407627D01*
X231844Y407518D01*
X231819Y407410D01*
X231790Y407303D01*
X231758Y407197D01*
X231722Y407092D01*
X231682Y406989D01*
X231639Y406887D01*
X231592Y406786D01*
X231541Y406687D01*
X231488Y406590D01*
X231431Y406496D01*
X231370Y406403D01*
X231307Y406312D01*
X231240Y406223D01*
X231170Y406137D01*
X231097Y406054D01*
X231022Y405972D01*
X230944Y405894D01*
X230862Y405819D01*
X230779Y405746D01*
X230693Y405676D01*
X230604Y405609D01*
X230513Y405546D01*
X230420Y405485D01*
X230325Y405428D01*
X230229Y405375D01*
X230130Y405324D01*
X230029Y405277D01*
X229927Y405234D01*
X229824Y405194D01*
X229719Y405158D01*
X229613Y405126D01*
X229506Y405097D01*
X229398Y405072D01*
X229289Y405051D01*
X229180Y405034D01*
X229070Y405020D01*
X228959Y405011D01*
X228849Y405005D01*
X228738Y405003D01*
X225563Y405003D01*
X239914Y411354D02*
X240018Y411352D01*
X240123Y411346D01*
X240227Y411337D01*
X240330Y411324D01*
X240433Y411306D01*
X240535Y411286D01*
X240637Y411261D01*
X240737Y411233D01*
X240837Y411201D01*
X240935Y411165D01*
X241032Y411126D01*
X241127Y411084D01*
X241221Y411038D01*
X241313Y410988D01*
X241403Y410936D01*
X241491Y410880D01*
X241577Y410820D01*
X241661Y410758D01*
X241742Y410693D01*
X241821Y410625D01*
X241898Y410553D01*
X241971Y410480D01*
X242043Y410403D01*
X242111Y410324D01*
X242176Y410243D01*
X242238Y410159D01*
X242298Y410073D01*
X242354Y409985D01*
X242406Y409895D01*
X242456Y409803D01*
X242502Y409709D01*
X242544Y409614D01*
X242583Y409517D01*
X242619Y409419D01*
X242651Y409319D01*
X242679Y409219D01*
X242704Y409117D01*
X242724Y409015D01*
X242742Y408912D01*
X242755Y408809D01*
X242764Y408705D01*
X242770Y408600D01*
X242772Y408496D01*
X239914Y411353D02*
X239796Y411351D01*
X239677Y411345D01*
X239559Y411336D01*
X239442Y411323D01*
X239325Y411305D01*
X239208Y411285D01*
X239092Y411260D01*
X238977Y411232D01*
X238864Y411199D01*
X238751Y411164D01*
X238639Y411124D01*
X238529Y411082D01*
X238420Y411035D01*
X238312Y410985D01*
X238207Y410932D01*
X238103Y410875D01*
X238001Y410815D01*
X237901Y410752D01*
X237803Y410685D01*
X237707Y410616D01*
X237614Y410543D01*
X237523Y410467D01*
X237434Y410389D01*
X237348Y410307D01*
X237265Y410223D01*
X237184Y410137D01*
X237107Y410047D01*
X237032Y409956D01*
X236960Y409862D01*
X236891Y409765D01*
X236826Y409667D01*
X236763Y409566D01*
X236704Y409463D01*
X236648Y409359D01*
X236596Y409253D01*
X236547Y409145D01*
X236502Y409036D01*
X236460Y408925D01*
X236422Y408813D01*
X241820Y406274D02*
X241896Y406349D01*
X241971Y406428D01*
X242042Y406509D01*
X242111Y406593D01*
X242176Y406679D01*
X242238Y406767D01*
X242298Y406857D01*
X242354Y406949D01*
X242407Y407044D01*
X242456Y407140D01*
X242502Y407238D01*
X242545Y407337D01*
X242584Y407438D01*
X242619Y407540D01*
X242651Y407643D01*
X242679Y407747D01*
X242704Y407852D01*
X242725Y407959D01*
X242742Y408065D01*
X242755Y408172D01*
X242764Y408280D01*
X242770Y408388D01*
X242772Y408496D01*
X241819Y406273D02*
X236422Y399923D01*
X242772Y399923D01*
D10*
X457200Y133350D02*
X457200Y120650D01*
X457200Y133350D02*
X463550Y139700D01*
X476250Y139700D01*
X482600Y133350D01*
X463550Y139700D02*
X457200Y146050D01*
X457200Y158750D01*
X463550Y165100D01*
X476250Y165100D01*
X482600Y158750D01*
X482600Y146050D01*
X476250Y139700D01*
X476250Y114300D02*
X463550Y114300D01*
X457200Y120650D01*
X476250Y114300D02*
X482600Y120650D01*
X482600Y133350D01*
X463550Y165100D02*
X457200Y171450D01*
X457200Y184150D01*
X463550Y190500D01*
X476250Y190500D01*
X482600Y184150D01*
X482600Y171450D01*
X476250Y165100D01*
D11*
X219202Y169418D02*
X207518Y169418D01*
X207518Y172664D01*
X207520Y172777D01*
X207526Y172890D01*
X207536Y173003D01*
X207550Y173116D01*
X207567Y173228D01*
X207589Y173339D01*
X207614Y173449D01*
X207644Y173559D01*
X207677Y173667D01*
X207714Y173774D01*
X207754Y173880D01*
X207799Y173984D01*
X207847Y174087D01*
X207898Y174188D01*
X207953Y174287D01*
X208011Y174384D01*
X208073Y174479D01*
X208138Y174572D01*
X208206Y174662D01*
X208277Y174750D01*
X208352Y174836D01*
X208429Y174919D01*
X208509Y174999D01*
X208592Y175076D01*
X208678Y175151D01*
X208766Y175222D01*
X208856Y175290D01*
X208949Y175355D01*
X209044Y175417D01*
X209141Y175475D01*
X209240Y175530D01*
X209341Y175581D01*
X209444Y175629D01*
X209548Y175674D01*
X209654Y175714D01*
X209761Y175751D01*
X209869Y175784D01*
X209979Y175814D01*
X210089Y175839D01*
X210200Y175861D01*
X210312Y175878D01*
X210425Y175892D01*
X210538Y175902D01*
X210651Y175908D01*
X210764Y175910D01*
X210877Y175908D01*
X210990Y175902D01*
X211103Y175892D01*
X211216Y175878D01*
X211328Y175861D01*
X211439Y175839D01*
X211549Y175814D01*
X211659Y175784D01*
X211767Y175751D01*
X211874Y175714D01*
X211980Y175674D01*
X212084Y175629D01*
X212187Y175581D01*
X212288Y175530D01*
X212387Y175475D01*
X212484Y175417D01*
X212579Y175355D01*
X212672Y175290D01*
X212762Y175222D01*
X212850Y175151D01*
X212936Y175076D01*
X213019Y174999D01*
X213099Y174919D01*
X213176Y174836D01*
X213251Y174750D01*
X213322Y174662D01*
X213390Y174572D01*
X213455Y174479D01*
X213517Y174384D01*
X213575Y174287D01*
X213630Y174188D01*
X213681Y174087D01*
X213729Y173984D01*
X213774Y173880D01*
X213814Y173774D01*
X213851Y173667D01*
X213884Y173559D01*
X213914Y173449D01*
X213939Y173339D01*
X213961Y173228D01*
X213978Y173116D01*
X213992Y173003D01*
X214002Y172890D01*
X214008Y172777D01*
X214010Y172664D01*
X214009Y172664D02*
X214009Y169418D01*
X214009Y173313D02*
X219202Y175909D01*
X210114Y180774D02*
X207518Y184020D01*
X219202Y184020D01*
X219202Y187265D02*
X219202Y180774D01*
X118618Y441198D02*
X118618Y452882D01*
X121864Y452882D01*
X121977Y452880D01*
X122090Y452874D01*
X122203Y452864D01*
X122316Y452850D01*
X122428Y452833D01*
X122539Y452811D01*
X122649Y452786D01*
X122759Y452756D01*
X122867Y452723D01*
X122974Y452686D01*
X123080Y452646D01*
X123184Y452601D01*
X123287Y452553D01*
X123388Y452502D01*
X123487Y452447D01*
X123584Y452389D01*
X123679Y452327D01*
X123772Y452262D01*
X123862Y452194D01*
X123950Y452123D01*
X124036Y452048D01*
X124119Y451971D01*
X124199Y451891D01*
X124276Y451808D01*
X124351Y451722D01*
X124422Y451634D01*
X124490Y451544D01*
X124555Y451451D01*
X124617Y451356D01*
X124675Y451259D01*
X124730Y451160D01*
X124781Y451059D01*
X124829Y450956D01*
X124874Y450852D01*
X124914Y450746D01*
X124951Y450639D01*
X124984Y450531D01*
X125014Y450421D01*
X125039Y450311D01*
X125061Y450200D01*
X125078Y450088D01*
X125092Y449975D01*
X125102Y449862D01*
X125108Y449749D01*
X125110Y449636D01*
X125108Y449523D01*
X125102Y449410D01*
X125092Y449297D01*
X125078Y449184D01*
X125061Y449072D01*
X125039Y448961D01*
X125014Y448851D01*
X124984Y448741D01*
X124951Y448633D01*
X124914Y448526D01*
X124874Y448420D01*
X124829Y448316D01*
X124781Y448213D01*
X124730Y448112D01*
X124675Y448013D01*
X124617Y447916D01*
X124555Y447821D01*
X124490Y447728D01*
X124422Y447638D01*
X124351Y447550D01*
X124276Y447464D01*
X124199Y447381D01*
X124119Y447301D01*
X124036Y447224D01*
X123950Y447149D01*
X123862Y447078D01*
X123772Y447010D01*
X123679Y446945D01*
X123584Y446883D01*
X123487Y446825D01*
X123388Y446770D01*
X123287Y446719D01*
X123184Y446671D01*
X123080Y446626D01*
X122974Y446586D01*
X122867Y446549D01*
X122759Y446516D01*
X122649Y446486D01*
X122539Y446461D01*
X122428Y446439D01*
X122316Y446422D01*
X122203Y446408D01*
X122090Y446398D01*
X121977Y446392D01*
X121864Y446390D01*
X121864Y446391D02*
X118618Y446391D01*
X122513Y446391D02*
X125109Y441198D01*
X136465Y449961D02*
X136463Y450068D01*
X136457Y450174D01*
X136447Y450280D01*
X136434Y450386D01*
X136416Y450492D01*
X136395Y450596D01*
X136370Y450700D01*
X136341Y450803D01*
X136309Y450904D01*
X136272Y451004D01*
X136232Y451103D01*
X136189Y451201D01*
X136142Y451297D01*
X136091Y451391D01*
X136037Y451483D01*
X135980Y451573D01*
X135920Y451661D01*
X135856Y451746D01*
X135789Y451829D01*
X135719Y451910D01*
X135647Y451988D01*
X135571Y452064D01*
X135493Y452136D01*
X135412Y452206D01*
X135329Y452273D01*
X135244Y452337D01*
X135156Y452397D01*
X135066Y452454D01*
X134974Y452508D01*
X134880Y452559D01*
X134784Y452606D01*
X134686Y452649D01*
X134587Y452689D01*
X134487Y452726D01*
X134386Y452758D01*
X134283Y452787D01*
X134179Y452812D01*
X134075Y452833D01*
X133969Y452851D01*
X133863Y452864D01*
X133757Y452874D01*
X133651Y452880D01*
X133544Y452882D01*
X133423Y452880D01*
X133302Y452874D01*
X133182Y452864D01*
X133061Y452851D01*
X132942Y452833D01*
X132822Y452812D01*
X132704Y452787D01*
X132587Y452758D01*
X132470Y452725D01*
X132355Y452689D01*
X132241Y452648D01*
X132128Y452605D01*
X132016Y452557D01*
X131907Y452506D01*
X131799Y452451D01*
X131692Y452393D01*
X131588Y452332D01*
X131486Y452267D01*
X131386Y452199D01*
X131288Y452128D01*
X131192Y452054D01*
X131099Y451977D01*
X131009Y451896D01*
X130921Y451813D01*
X130836Y451727D01*
X130753Y451638D01*
X130674Y451547D01*
X130597Y451453D01*
X130524Y451357D01*
X130454Y451259D01*
X130387Y451158D01*
X130323Y451055D01*
X130263Y450950D01*
X130206Y450843D01*
X130152Y450735D01*
X130102Y450625D01*
X130056Y450513D01*
X130013Y450400D01*
X129974Y450285D01*
X135492Y447689D02*
X135571Y447766D01*
X135647Y447847D01*
X135720Y447930D01*
X135790Y448015D01*
X135857Y448103D01*
X135921Y448193D01*
X135981Y448285D01*
X136038Y448380D01*
X136092Y448476D01*
X136143Y448574D01*
X136190Y448674D01*
X136234Y448776D01*
X136274Y448879D01*
X136310Y448983D01*
X136342Y449089D01*
X136371Y449195D01*
X136396Y449303D01*
X136418Y449411D01*
X136435Y449521D01*
X136449Y449630D01*
X136458Y449740D01*
X136464Y449851D01*
X136466Y449961D01*
X135492Y447689D02*
X129974Y441198D01*
X136465Y441198D01*
X118618Y363982D02*
X118618Y352298D01*
X118618Y363982D02*
X121864Y363982D01*
X121977Y363980D01*
X122090Y363974D01*
X122203Y363964D01*
X122316Y363950D01*
X122428Y363933D01*
X122539Y363911D01*
X122649Y363886D01*
X122759Y363856D01*
X122867Y363823D01*
X122974Y363786D01*
X123080Y363746D01*
X123184Y363701D01*
X123287Y363653D01*
X123388Y363602D01*
X123487Y363547D01*
X123584Y363489D01*
X123679Y363427D01*
X123772Y363362D01*
X123862Y363294D01*
X123950Y363223D01*
X124036Y363148D01*
X124119Y363071D01*
X124199Y362991D01*
X124276Y362908D01*
X124351Y362822D01*
X124422Y362734D01*
X124490Y362644D01*
X124555Y362551D01*
X124617Y362456D01*
X124675Y362359D01*
X124730Y362260D01*
X124781Y362159D01*
X124829Y362056D01*
X124874Y361952D01*
X124914Y361846D01*
X124951Y361739D01*
X124984Y361631D01*
X125014Y361521D01*
X125039Y361411D01*
X125061Y361300D01*
X125078Y361188D01*
X125092Y361075D01*
X125102Y360962D01*
X125108Y360849D01*
X125110Y360736D01*
X125108Y360623D01*
X125102Y360510D01*
X125092Y360397D01*
X125078Y360284D01*
X125061Y360172D01*
X125039Y360061D01*
X125014Y359951D01*
X124984Y359841D01*
X124951Y359733D01*
X124914Y359626D01*
X124874Y359520D01*
X124829Y359416D01*
X124781Y359313D01*
X124730Y359212D01*
X124675Y359113D01*
X124617Y359016D01*
X124555Y358921D01*
X124490Y358828D01*
X124422Y358738D01*
X124351Y358650D01*
X124276Y358564D01*
X124199Y358481D01*
X124119Y358401D01*
X124036Y358324D01*
X123950Y358249D01*
X123862Y358178D01*
X123772Y358110D01*
X123679Y358045D01*
X123584Y357983D01*
X123487Y357925D01*
X123388Y357870D01*
X123287Y357819D01*
X123184Y357771D01*
X123080Y357726D01*
X122974Y357686D01*
X122867Y357649D01*
X122759Y357616D01*
X122649Y357586D01*
X122539Y357561D01*
X122428Y357539D01*
X122316Y357522D01*
X122203Y357508D01*
X122090Y357498D01*
X121977Y357492D01*
X121864Y357490D01*
X121864Y357491D02*
X118618Y357491D01*
X122513Y357491D02*
X125109Y352298D01*
X129974Y352298D02*
X133220Y352298D01*
X133333Y352300D01*
X133446Y352306D01*
X133559Y352316D01*
X133672Y352330D01*
X133784Y352347D01*
X133895Y352369D01*
X134005Y352394D01*
X134115Y352424D01*
X134223Y352457D01*
X134330Y352494D01*
X134436Y352534D01*
X134540Y352579D01*
X134643Y352627D01*
X134744Y352678D01*
X134843Y352733D01*
X134940Y352791D01*
X135035Y352853D01*
X135128Y352918D01*
X135218Y352986D01*
X135306Y353057D01*
X135392Y353132D01*
X135475Y353209D01*
X135555Y353289D01*
X135632Y353372D01*
X135707Y353458D01*
X135778Y353546D01*
X135846Y353636D01*
X135911Y353729D01*
X135973Y353824D01*
X136031Y353921D01*
X136086Y354020D01*
X136137Y354121D01*
X136185Y354224D01*
X136230Y354328D01*
X136270Y354434D01*
X136307Y354541D01*
X136340Y354649D01*
X136370Y354759D01*
X136395Y354869D01*
X136417Y354980D01*
X136434Y355092D01*
X136448Y355205D01*
X136458Y355318D01*
X136464Y355431D01*
X136466Y355544D01*
X136464Y355657D01*
X136458Y355770D01*
X136448Y355883D01*
X136434Y355996D01*
X136417Y356108D01*
X136395Y356219D01*
X136370Y356329D01*
X136340Y356439D01*
X136307Y356547D01*
X136270Y356654D01*
X136230Y356760D01*
X136185Y356864D01*
X136137Y356967D01*
X136086Y357068D01*
X136031Y357167D01*
X135973Y357264D01*
X135911Y357359D01*
X135846Y357452D01*
X135778Y357542D01*
X135707Y357630D01*
X135632Y357716D01*
X135555Y357799D01*
X135475Y357879D01*
X135392Y357956D01*
X135306Y358031D01*
X135218Y358102D01*
X135128Y358170D01*
X135035Y358235D01*
X134940Y358297D01*
X134843Y358355D01*
X134744Y358410D01*
X134643Y358461D01*
X134540Y358509D01*
X134436Y358554D01*
X134330Y358594D01*
X134223Y358631D01*
X134115Y358664D01*
X134005Y358694D01*
X133895Y358719D01*
X133784Y358741D01*
X133672Y358758D01*
X133559Y358772D01*
X133446Y358782D01*
X133333Y358788D01*
X133220Y358790D01*
X133869Y363982D02*
X129974Y363982D01*
X133869Y363982D02*
X133970Y363980D01*
X134070Y363974D01*
X134170Y363964D01*
X134270Y363951D01*
X134369Y363933D01*
X134468Y363912D01*
X134565Y363887D01*
X134662Y363858D01*
X134757Y363825D01*
X134851Y363789D01*
X134943Y363749D01*
X135034Y363706D01*
X135123Y363659D01*
X135210Y363609D01*
X135296Y363555D01*
X135379Y363498D01*
X135459Y363438D01*
X135538Y363375D01*
X135614Y363308D01*
X135687Y363239D01*
X135757Y363167D01*
X135825Y363093D01*
X135890Y363016D01*
X135951Y362936D01*
X136010Y362854D01*
X136065Y362770D01*
X136117Y362684D01*
X136166Y362596D01*
X136211Y362506D01*
X136253Y362414D01*
X136291Y362321D01*
X136325Y362226D01*
X136356Y362131D01*
X136383Y362034D01*
X136406Y361936D01*
X136426Y361837D01*
X136441Y361737D01*
X136453Y361637D01*
X136461Y361537D01*
X136465Y361436D01*
X136465Y361336D01*
X136461Y361235D01*
X136453Y361135D01*
X136441Y361035D01*
X136426Y360935D01*
X136406Y360836D01*
X136383Y360738D01*
X136356Y360641D01*
X136325Y360546D01*
X136291Y360451D01*
X136253Y360358D01*
X136211Y360266D01*
X136166Y360176D01*
X136117Y360088D01*
X136065Y360002D01*
X136010Y359918D01*
X135951Y359836D01*
X135890Y359756D01*
X135825Y359679D01*
X135757Y359605D01*
X135687Y359533D01*
X135614Y359464D01*
X135538Y359397D01*
X135459Y359334D01*
X135379Y359274D01*
X135296Y359217D01*
X135210Y359163D01*
X135123Y359113D01*
X135034Y359066D01*
X134943Y359023D01*
X134851Y358983D01*
X134757Y358947D01*
X134662Y358914D01*
X134565Y358885D01*
X134468Y358860D01*
X134369Y358839D01*
X134270Y358821D01*
X134170Y358808D01*
X134070Y358798D01*
X133970Y358792D01*
X133869Y358790D01*
X133869Y358789D02*
X131273Y358789D01*
X118618Y262382D02*
X118618Y250698D01*
X118618Y262382D02*
X121864Y262382D01*
X121977Y262380D01*
X122090Y262374D01*
X122203Y262364D01*
X122316Y262350D01*
X122428Y262333D01*
X122539Y262311D01*
X122649Y262286D01*
X122759Y262256D01*
X122867Y262223D01*
X122974Y262186D01*
X123080Y262146D01*
X123184Y262101D01*
X123287Y262053D01*
X123388Y262002D01*
X123487Y261947D01*
X123584Y261889D01*
X123679Y261827D01*
X123772Y261762D01*
X123862Y261694D01*
X123950Y261623D01*
X124036Y261548D01*
X124119Y261471D01*
X124199Y261391D01*
X124276Y261308D01*
X124351Y261222D01*
X124422Y261134D01*
X124490Y261044D01*
X124555Y260951D01*
X124617Y260856D01*
X124675Y260759D01*
X124730Y260660D01*
X124781Y260559D01*
X124829Y260456D01*
X124874Y260352D01*
X124914Y260246D01*
X124951Y260139D01*
X124984Y260031D01*
X125014Y259921D01*
X125039Y259811D01*
X125061Y259700D01*
X125078Y259588D01*
X125092Y259475D01*
X125102Y259362D01*
X125108Y259249D01*
X125110Y259136D01*
X125108Y259023D01*
X125102Y258910D01*
X125092Y258797D01*
X125078Y258684D01*
X125061Y258572D01*
X125039Y258461D01*
X125014Y258351D01*
X124984Y258241D01*
X124951Y258133D01*
X124914Y258026D01*
X124874Y257920D01*
X124829Y257816D01*
X124781Y257713D01*
X124730Y257612D01*
X124675Y257513D01*
X124617Y257416D01*
X124555Y257321D01*
X124490Y257228D01*
X124422Y257138D01*
X124351Y257050D01*
X124276Y256964D01*
X124199Y256881D01*
X124119Y256801D01*
X124036Y256724D01*
X123950Y256649D01*
X123862Y256578D01*
X123772Y256510D01*
X123679Y256445D01*
X123584Y256383D01*
X123487Y256325D01*
X123388Y256270D01*
X123287Y256219D01*
X123184Y256171D01*
X123080Y256126D01*
X122974Y256086D01*
X122867Y256049D01*
X122759Y256016D01*
X122649Y255986D01*
X122539Y255961D01*
X122428Y255939D01*
X122316Y255922D01*
X122203Y255908D01*
X122090Y255898D01*
X121977Y255892D01*
X121864Y255890D01*
X121864Y255891D02*
X118618Y255891D01*
X122513Y255891D02*
X125109Y250698D01*
X129974Y253294D02*
X132571Y262382D01*
X129974Y253294D02*
X136465Y253294D01*
X134518Y255891D02*
X134518Y250698D01*
D13*
X359700Y110200D02*
X359700Y54200D01*
X359700Y40200D01*
X429700Y40200D01*
X429700Y54200D01*
X429700Y110200D01*
X359700Y110200D01*
X359700Y54200D02*
X429700Y54200D01*
D11*
X395069Y114008D02*
X395168Y114010D01*
X395268Y114016D01*
X395367Y114025D01*
X395465Y114038D01*
X395563Y114055D01*
X395661Y114076D01*
X395757Y114101D01*
X395852Y114129D01*
X395946Y114161D01*
X396039Y114196D01*
X396131Y114235D01*
X396221Y114278D01*
X396309Y114323D01*
X396396Y114373D01*
X396480Y114425D01*
X396563Y114481D01*
X396643Y114539D01*
X396721Y114601D01*
X396796Y114666D01*
X396869Y114734D01*
X396939Y114804D01*
X397007Y114877D01*
X397072Y114952D01*
X397134Y115030D01*
X397192Y115110D01*
X397248Y115193D01*
X397300Y115277D01*
X397350Y115364D01*
X397395Y115452D01*
X397438Y115542D01*
X397477Y115634D01*
X397512Y115727D01*
X397544Y115821D01*
X397572Y115916D01*
X397597Y116012D01*
X397618Y116110D01*
X397635Y116208D01*
X397648Y116306D01*
X397657Y116405D01*
X397663Y116505D01*
X397665Y116604D01*
X395069Y114008D02*
X394925Y114010D01*
X394780Y114016D01*
X394636Y114025D01*
X394493Y114038D01*
X394349Y114055D01*
X394206Y114076D01*
X394064Y114101D01*
X393923Y114129D01*
X393782Y114161D01*
X393642Y114197D01*
X393503Y114236D01*
X393365Y114279D01*
X393229Y114326D01*
X393093Y114376D01*
X392959Y114430D01*
X392827Y114487D01*
X392696Y114548D01*
X392567Y114612D01*
X392439Y114680D01*
X392313Y114750D01*
X392189Y114825D01*
X392068Y114902D01*
X391948Y114983D01*
X391830Y115066D01*
X391715Y115153D01*
X391602Y115243D01*
X391491Y115336D01*
X391383Y115431D01*
X391277Y115530D01*
X391174Y115631D01*
X391499Y123096D02*
X391501Y123195D01*
X391507Y123295D01*
X391516Y123394D01*
X391529Y123492D01*
X391546Y123590D01*
X391567Y123688D01*
X391592Y123784D01*
X391620Y123879D01*
X391652Y123973D01*
X391687Y124066D01*
X391726Y124158D01*
X391769Y124248D01*
X391814Y124336D01*
X391864Y124423D01*
X391916Y124507D01*
X391972Y124590D01*
X392030Y124670D01*
X392092Y124748D01*
X392157Y124823D01*
X392225Y124896D01*
X392295Y124966D01*
X392368Y125034D01*
X392443Y125099D01*
X392521Y125161D01*
X392601Y125219D01*
X392684Y125275D01*
X392768Y125327D01*
X392855Y125377D01*
X392943Y125422D01*
X393033Y125465D01*
X393125Y125504D01*
X393218Y125539D01*
X393312Y125571D01*
X393407Y125599D01*
X393504Y125624D01*
X393601Y125645D01*
X393699Y125662D01*
X393797Y125675D01*
X393896Y125684D01*
X393996Y125690D01*
X394095Y125692D01*
X394231Y125690D01*
X394367Y125684D01*
X394503Y125675D01*
X394639Y125662D01*
X394774Y125644D01*
X394908Y125624D01*
X395042Y125599D01*
X395176Y125571D01*
X395308Y125538D01*
X395439Y125503D01*
X395570Y125463D01*
X395699Y125420D01*
X395827Y125374D01*
X395953Y125323D01*
X396079Y125270D01*
X396202Y125212D01*
X396324Y125152D01*
X396444Y125088D01*
X396563Y125020D01*
X396679Y124950D01*
X396793Y124876D01*
X396906Y124799D01*
X397016Y124718D01*
X392796Y120824D02*
X392710Y120877D01*
X392626Y120934D01*
X392544Y120993D01*
X392464Y121056D01*
X392387Y121122D01*
X392312Y121190D01*
X392240Y121262D01*
X392171Y121336D01*
X392105Y121413D01*
X392042Y121492D01*
X391982Y121574D01*
X391925Y121658D01*
X391871Y121744D01*
X391821Y121832D01*
X391774Y121922D01*
X391730Y122013D01*
X391691Y122107D01*
X391654Y122201D01*
X391622Y122297D01*
X391593Y122395D01*
X391568Y122493D01*
X391547Y122592D01*
X391529Y122692D01*
X391516Y122792D01*
X391506Y122893D01*
X391500Y122995D01*
X391498Y123096D01*
X396367Y118876D02*
X396453Y118823D01*
X396537Y118766D01*
X396619Y118707D01*
X396699Y118644D01*
X396776Y118578D01*
X396851Y118510D01*
X396923Y118438D01*
X396992Y118364D01*
X397058Y118287D01*
X397121Y118208D01*
X397181Y118126D01*
X397238Y118042D01*
X397292Y117956D01*
X397342Y117868D01*
X397389Y117778D01*
X397433Y117687D01*
X397472Y117593D01*
X397509Y117499D01*
X397541Y117403D01*
X397570Y117305D01*
X397595Y117207D01*
X397616Y117108D01*
X397634Y117008D01*
X397647Y116908D01*
X397657Y116807D01*
X397663Y116705D01*
X397665Y116604D01*
X396367Y118876D02*
X392797Y120824D01*
X401800Y125692D02*
X404396Y114008D01*
X406992Y121797D01*
X409589Y114008D01*
X412185Y125692D01*
X416701Y123096D02*
X419946Y125692D01*
X419946Y114008D01*
X416701Y114008D02*
X423192Y114008D01*
D13*
X42200Y409800D02*
X42200Y465800D01*
X42200Y409800D02*
X42200Y395800D01*
X112200Y395800D01*
X112200Y409800D01*
X112200Y465800D01*
X42200Y465800D01*
X42200Y409800D02*
X112200Y409800D01*
D11*
X77569Y469608D02*
X77668Y469610D01*
X77768Y469616D01*
X77867Y469625D01*
X77965Y469638D01*
X78063Y469655D01*
X78161Y469676D01*
X78257Y469701D01*
X78352Y469729D01*
X78446Y469761D01*
X78539Y469796D01*
X78631Y469835D01*
X78721Y469878D01*
X78809Y469923D01*
X78896Y469973D01*
X78980Y470025D01*
X79063Y470081D01*
X79143Y470139D01*
X79221Y470201D01*
X79296Y470266D01*
X79369Y470334D01*
X79439Y470404D01*
X79507Y470477D01*
X79572Y470552D01*
X79634Y470630D01*
X79692Y470710D01*
X79748Y470793D01*
X79800Y470877D01*
X79850Y470964D01*
X79895Y471052D01*
X79938Y471142D01*
X79977Y471234D01*
X80012Y471327D01*
X80044Y471421D01*
X80072Y471516D01*
X80097Y471612D01*
X80118Y471710D01*
X80135Y471808D01*
X80148Y471906D01*
X80157Y472005D01*
X80163Y472105D01*
X80165Y472204D01*
X77569Y469608D02*
X77425Y469610D01*
X77280Y469616D01*
X77136Y469625D01*
X76993Y469638D01*
X76849Y469655D01*
X76706Y469676D01*
X76564Y469701D01*
X76423Y469729D01*
X76282Y469761D01*
X76142Y469797D01*
X76003Y469836D01*
X75865Y469879D01*
X75729Y469926D01*
X75593Y469976D01*
X75459Y470030D01*
X75327Y470087D01*
X75196Y470148D01*
X75067Y470212D01*
X74939Y470280D01*
X74813Y470350D01*
X74689Y470425D01*
X74568Y470502D01*
X74448Y470583D01*
X74330Y470666D01*
X74215Y470753D01*
X74102Y470843D01*
X73991Y470936D01*
X73883Y471031D01*
X73777Y471130D01*
X73674Y471231D01*
X73999Y478696D02*
X74001Y478795D01*
X74007Y478895D01*
X74016Y478994D01*
X74029Y479092D01*
X74046Y479190D01*
X74067Y479288D01*
X74092Y479384D01*
X74120Y479479D01*
X74152Y479573D01*
X74187Y479666D01*
X74226Y479758D01*
X74269Y479848D01*
X74314Y479936D01*
X74364Y480023D01*
X74416Y480107D01*
X74472Y480190D01*
X74530Y480270D01*
X74592Y480348D01*
X74657Y480423D01*
X74725Y480496D01*
X74795Y480566D01*
X74868Y480634D01*
X74943Y480699D01*
X75021Y480761D01*
X75101Y480819D01*
X75184Y480875D01*
X75268Y480927D01*
X75355Y480977D01*
X75443Y481022D01*
X75533Y481065D01*
X75625Y481104D01*
X75718Y481139D01*
X75812Y481171D01*
X75907Y481199D01*
X76004Y481224D01*
X76101Y481245D01*
X76199Y481262D01*
X76297Y481275D01*
X76396Y481284D01*
X76496Y481290D01*
X76595Y481292D01*
X76731Y481290D01*
X76867Y481284D01*
X77003Y481275D01*
X77139Y481262D01*
X77274Y481244D01*
X77408Y481224D01*
X77542Y481199D01*
X77676Y481171D01*
X77808Y481138D01*
X77939Y481103D01*
X78070Y481063D01*
X78199Y481020D01*
X78327Y480974D01*
X78453Y480923D01*
X78579Y480870D01*
X78702Y480812D01*
X78824Y480752D01*
X78944Y480688D01*
X79063Y480620D01*
X79179Y480550D01*
X79293Y480476D01*
X79406Y480399D01*
X79516Y480318D01*
X75296Y476424D02*
X75210Y476477D01*
X75126Y476534D01*
X75044Y476593D01*
X74964Y476656D01*
X74887Y476722D01*
X74812Y476790D01*
X74740Y476862D01*
X74671Y476936D01*
X74605Y477013D01*
X74542Y477092D01*
X74482Y477174D01*
X74425Y477258D01*
X74371Y477344D01*
X74321Y477432D01*
X74274Y477522D01*
X74230Y477613D01*
X74191Y477707D01*
X74154Y477801D01*
X74122Y477897D01*
X74093Y477995D01*
X74068Y478093D01*
X74047Y478192D01*
X74029Y478292D01*
X74016Y478392D01*
X74006Y478493D01*
X74000Y478595D01*
X73998Y478696D01*
X78867Y474476D02*
X78953Y474423D01*
X79037Y474366D01*
X79119Y474307D01*
X79199Y474244D01*
X79276Y474178D01*
X79351Y474110D01*
X79423Y474038D01*
X79492Y473964D01*
X79558Y473887D01*
X79621Y473808D01*
X79681Y473726D01*
X79738Y473642D01*
X79792Y473556D01*
X79842Y473468D01*
X79889Y473378D01*
X79933Y473287D01*
X79972Y473193D01*
X80009Y473099D01*
X80041Y473003D01*
X80070Y472905D01*
X80095Y472807D01*
X80116Y472708D01*
X80134Y472608D01*
X80147Y472508D01*
X80157Y472407D01*
X80163Y472305D01*
X80165Y472204D01*
X78867Y474476D02*
X75297Y476424D01*
X84300Y481292D02*
X86896Y469608D01*
X89492Y477397D01*
X92089Y469608D01*
X94685Y481292D01*
X102771Y481292D02*
X102878Y481290D01*
X102984Y481284D01*
X103090Y481274D01*
X103196Y481261D01*
X103302Y481243D01*
X103406Y481222D01*
X103510Y481197D01*
X103613Y481168D01*
X103714Y481136D01*
X103814Y481099D01*
X103913Y481059D01*
X104011Y481016D01*
X104107Y480969D01*
X104201Y480918D01*
X104293Y480864D01*
X104383Y480807D01*
X104471Y480747D01*
X104556Y480683D01*
X104639Y480616D01*
X104720Y480546D01*
X104798Y480474D01*
X104874Y480398D01*
X104946Y480320D01*
X105016Y480239D01*
X105083Y480156D01*
X105147Y480071D01*
X105207Y479983D01*
X105264Y479893D01*
X105318Y479801D01*
X105369Y479707D01*
X105416Y479611D01*
X105459Y479513D01*
X105499Y479414D01*
X105536Y479314D01*
X105568Y479213D01*
X105597Y479110D01*
X105622Y479006D01*
X105643Y478902D01*
X105661Y478796D01*
X105674Y478690D01*
X105684Y478584D01*
X105690Y478478D01*
X105692Y478371D01*
X102771Y481292D02*
X102650Y481290D01*
X102529Y481284D01*
X102409Y481274D01*
X102288Y481261D01*
X102169Y481243D01*
X102049Y481222D01*
X101931Y481197D01*
X101814Y481168D01*
X101697Y481135D01*
X101582Y481099D01*
X101468Y481058D01*
X101355Y481015D01*
X101243Y480967D01*
X101134Y480916D01*
X101026Y480861D01*
X100919Y480803D01*
X100815Y480742D01*
X100713Y480677D01*
X100613Y480609D01*
X100515Y480538D01*
X100419Y480464D01*
X100326Y480387D01*
X100236Y480306D01*
X100148Y480223D01*
X100063Y480137D01*
X99980Y480048D01*
X99901Y479957D01*
X99824Y479863D01*
X99751Y479767D01*
X99681Y479669D01*
X99614Y479568D01*
X99550Y479465D01*
X99490Y479360D01*
X99433Y479253D01*
X99379Y479145D01*
X99329Y479035D01*
X99283Y478923D01*
X99240Y478810D01*
X99201Y478695D01*
X104719Y476099D02*
X104798Y476176D01*
X104874Y476257D01*
X104947Y476340D01*
X105017Y476425D01*
X105084Y476513D01*
X105148Y476603D01*
X105208Y476695D01*
X105265Y476790D01*
X105319Y476886D01*
X105370Y476984D01*
X105417Y477084D01*
X105461Y477186D01*
X105501Y477289D01*
X105537Y477393D01*
X105569Y477499D01*
X105598Y477605D01*
X105623Y477713D01*
X105645Y477821D01*
X105662Y477931D01*
X105676Y478040D01*
X105685Y478150D01*
X105691Y478261D01*
X105693Y478371D01*
X104718Y476099D02*
X99201Y469608D01*
X105692Y469608D01*
D13*
X42200Y376900D02*
X42200Y320900D01*
X42200Y306900D01*
X112200Y306900D01*
X112200Y320900D01*
X112200Y376900D01*
X42200Y376900D01*
X42200Y320900D02*
X112200Y320900D01*
D11*
X77569Y380708D02*
X77668Y380710D01*
X77768Y380716D01*
X77867Y380725D01*
X77965Y380738D01*
X78063Y380755D01*
X78161Y380776D01*
X78257Y380801D01*
X78352Y380829D01*
X78446Y380861D01*
X78539Y380896D01*
X78631Y380935D01*
X78721Y380978D01*
X78809Y381023D01*
X78896Y381073D01*
X78980Y381125D01*
X79063Y381181D01*
X79143Y381239D01*
X79221Y381301D01*
X79296Y381366D01*
X79369Y381434D01*
X79439Y381504D01*
X79507Y381577D01*
X79572Y381652D01*
X79634Y381730D01*
X79692Y381810D01*
X79748Y381893D01*
X79800Y381977D01*
X79850Y382064D01*
X79895Y382152D01*
X79938Y382242D01*
X79977Y382334D01*
X80012Y382427D01*
X80044Y382521D01*
X80072Y382616D01*
X80097Y382712D01*
X80118Y382810D01*
X80135Y382908D01*
X80148Y383006D01*
X80157Y383105D01*
X80163Y383205D01*
X80165Y383304D01*
X77569Y380708D02*
X77425Y380710D01*
X77280Y380716D01*
X77136Y380725D01*
X76993Y380738D01*
X76849Y380755D01*
X76706Y380776D01*
X76564Y380801D01*
X76423Y380829D01*
X76282Y380861D01*
X76142Y380897D01*
X76003Y380936D01*
X75865Y380979D01*
X75729Y381026D01*
X75593Y381076D01*
X75459Y381130D01*
X75327Y381187D01*
X75196Y381248D01*
X75067Y381312D01*
X74939Y381380D01*
X74813Y381450D01*
X74689Y381525D01*
X74568Y381602D01*
X74448Y381683D01*
X74330Y381766D01*
X74215Y381853D01*
X74102Y381943D01*
X73991Y382036D01*
X73883Y382131D01*
X73777Y382230D01*
X73674Y382331D01*
X73999Y389796D02*
X74001Y389895D01*
X74007Y389995D01*
X74016Y390094D01*
X74029Y390192D01*
X74046Y390290D01*
X74067Y390388D01*
X74092Y390484D01*
X74120Y390579D01*
X74152Y390673D01*
X74187Y390766D01*
X74226Y390858D01*
X74269Y390948D01*
X74314Y391036D01*
X74364Y391123D01*
X74416Y391207D01*
X74472Y391290D01*
X74530Y391370D01*
X74592Y391448D01*
X74657Y391523D01*
X74725Y391596D01*
X74795Y391666D01*
X74868Y391734D01*
X74943Y391799D01*
X75021Y391861D01*
X75101Y391919D01*
X75184Y391975D01*
X75268Y392027D01*
X75355Y392077D01*
X75443Y392122D01*
X75533Y392165D01*
X75625Y392204D01*
X75718Y392239D01*
X75812Y392271D01*
X75907Y392299D01*
X76004Y392324D01*
X76101Y392345D01*
X76199Y392362D01*
X76297Y392375D01*
X76396Y392384D01*
X76496Y392390D01*
X76595Y392392D01*
X76731Y392390D01*
X76867Y392384D01*
X77003Y392375D01*
X77139Y392362D01*
X77274Y392344D01*
X77408Y392324D01*
X77542Y392299D01*
X77676Y392271D01*
X77808Y392238D01*
X77939Y392203D01*
X78070Y392163D01*
X78199Y392120D01*
X78327Y392074D01*
X78453Y392023D01*
X78579Y391970D01*
X78702Y391912D01*
X78824Y391852D01*
X78944Y391788D01*
X79063Y391720D01*
X79179Y391650D01*
X79293Y391576D01*
X79406Y391499D01*
X79516Y391418D01*
X75296Y387524D02*
X75210Y387577D01*
X75126Y387634D01*
X75044Y387693D01*
X74964Y387756D01*
X74887Y387822D01*
X74812Y387890D01*
X74740Y387962D01*
X74671Y388036D01*
X74605Y388113D01*
X74542Y388192D01*
X74482Y388274D01*
X74425Y388358D01*
X74371Y388444D01*
X74321Y388532D01*
X74274Y388622D01*
X74230Y388713D01*
X74191Y388807D01*
X74154Y388901D01*
X74122Y388997D01*
X74093Y389095D01*
X74068Y389193D01*
X74047Y389292D01*
X74029Y389392D01*
X74016Y389492D01*
X74006Y389593D01*
X74000Y389695D01*
X73998Y389796D01*
X78867Y385576D02*
X78953Y385523D01*
X79037Y385466D01*
X79119Y385407D01*
X79199Y385344D01*
X79276Y385278D01*
X79351Y385210D01*
X79423Y385138D01*
X79492Y385064D01*
X79558Y384987D01*
X79621Y384908D01*
X79681Y384826D01*
X79738Y384742D01*
X79792Y384656D01*
X79842Y384568D01*
X79889Y384478D01*
X79933Y384387D01*
X79972Y384293D01*
X80009Y384199D01*
X80041Y384103D01*
X80070Y384005D01*
X80095Y383907D01*
X80116Y383808D01*
X80134Y383708D01*
X80147Y383608D01*
X80157Y383507D01*
X80163Y383405D01*
X80165Y383304D01*
X78867Y385576D02*
X75297Y387524D01*
X84300Y392392D02*
X86896Y380708D01*
X89492Y388497D01*
X92089Y380708D01*
X94685Y392392D01*
X99201Y380708D02*
X102446Y380708D01*
X102559Y380710D01*
X102672Y380716D01*
X102785Y380726D01*
X102898Y380740D01*
X103010Y380757D01*
X103121Y380779D01*
X103231Y380804D01*
X103341Y380834D01*
X103449Y380867D01*
X103556Y380904D01*
X103662Y380944D01*
X103766Y380989D01*
X103869Y381037D01*
X103970Y381088D01*
X104069Y381143D01*
X104166Y381201D01*
X104261Y381263D01*
X104354Y381328D01*
X104444Y381396D01*
X104532Y381467D01*
X104618Y381542D01*
X104701Y381619D01*
X104781Y381699D01*
X104858Y381782D01*
X104933Y381868D01*
X105004Y381956D01*
X105072Y382046D01*
X105137Y382139D01*
X105199Y382234D01*
X105257Y382331D01*
X105312Y382430D01*
X105363Y382531D01*
X105411Y382634D01*
X105456Y382738D01*
X105496Y382844D01*
X105533Y382951D01*
X105566Y383059D01*
X105596Y383169D01*
X105621Y383279D01*
X105643Y383390D01*
X105660Y383502D01*
X105674Y383615D01*
X105684Y383728D01*
X105690Y383841D01*
X105692Y383954D01*
X105690Y384067D01*
X105684Y384180D01*
X105674Y384293D01*
X105660Y384406D01*
X105643Y384518D01*
X105621Y384629D01*
X105596Y384739D01*
X105566Y384849D01*
X105533Y384957D01*
X105496Y385064D01*
X105456Y385170D01*
X105411Y385274D01*
X105363Y385377D01*
X105312Y385478D01*
X105257Y385577D01*
X105199Y385674D01*
X105137Y385769D01*
X105072Y385862D01*
X105004Y385952D01*
X104933Y386040D01*
X104858Y386126D01*
X104781Y386209D01*
X104701Y386289D01*
X104618Y386366D01*
X104532Y386441D01*
X104444Y386512D01*
X104354Y386580D01*
X104261Y386645D01*
X104166Y386707D01*
X104069Y386765D01*
X103970Y386820D01*
X103869Y386871D01*
X103766Y386919D01*
X103662Y386964D01*
X103556Y387004D01*
X103449Y387041D01*
X103341Y387074D01*
X103231Y387104D01*
X103121Y387129D01*
X103010Y387151D01*
X102898Y387168D01*
X102785Y387182D01*
X102672Y387192D01*
X102559Y387198D01*
X102446Y387200D01*
X103096Y392392D02*
X99201Y392392D01*
X103096Y392392D02*
X103197Y392390D01*
X103297Y392384D01*
X103397Y392374D01*
X103497Y392361D01*
X103596Y392343D01*
X103695Y392322D01*
X103792Y392297D01*
X103889Y392268D01*
X103984Y392235D01*
X104078Y392199D01*
X104170Y392159D01*
X104261Y392116D01*
X104350Y392069D01*
X104437Y392019D01*
X104523Y391965D01*
X104606Y391908D01*
X104686Y391848D01*
X104765Y391785D01*
X104841Y391718D01*
X104914Y391649D01*
X104984Y391577D01*
X105052Y391503D01*
X105117Y391426D01*
X105178Y391346D01*
X105237Y391264D01*
X105292Y391180D01*
X105344Y391094D01*
X105393Y391006D01*
X105438Y390916D01*
X105480Y390824D01*
X105518Y390731D01*
X105552Y390636D01*
X105583Y390541D01*
X105610Y390444D01*
X105633Y390346D01*
X105653Y390247D01*
X105668Y390147D01*
X105680Y390047D01*
X105688Y389947D01*
X105692Y389846D01*
X105692Y389746D01*
X105688Y389645D01*
X105680Y389545D01*
X105668Y389445D01*
X105653Y389345D01*
X105633Y389246D01*
X105610Y389148D01*
X105583Y389051D01*
X105552Y388956D01*
X105518Y388861D01*
X105480Y388768D01*
X105438Y388676D01*
X105393Y388586D01*
X105344Y388498D01*
X105292Y388412D01*
X105237Y388328D01*
X105178Y388246D01*
X105117Y388166D01*
X105052Y388089D01*
X104984Y388015D01*
X104914Y387943D01*
X104841Y387874D01*
X104765Y387807D01*
X104686Y387744D01*
X104606Y387684D01*
X104523Y387627D01*
X104437Y387573D01*
X104350Y387523D01*
X104261Y387476D01*
X104170Y387433D01*
X104078Y387393D01*
X103984Y387357D01*
X103889Y387324D01*
X103792Y387295D01*
X103695Y387270D01*
X103596Y387249D01*
X103497Y387231D01*
X103397Y387218D01*
X103297Y387208D01*
X103197Y387202D01*
X103096Y387200D01*
X103096Y387199D02*
X100499Y387199D01*
D13*
X42200Y275300D02*
X42200Y219300D01*
X42200Y205300D01*
X112200Y205300D01*
X112200Y219300D01*
X112200Y275300D01*
X42200Y275300D01*
X42200Y219300D02*
X112200Y219300D01*
D11*
X77569Y279108D02*
X77668Y279110D01*
X77768Y279116D01*
X77867Y279125D01*
X77965Y279138D01*
X78063Y279155D01*
X78161Y279176D01*
X78257Y279201D01*
X78352Y279229D01*
X78446Y279261D01*
X78539Y279296D01*
X78631Y279335D01*
X78721Y279378D01*
X78809Y279423D01*
X78896Y279473D01*
X78980Y279525D01*
X79063Y279581D01*
X79143Y279639D01*
X79221Y279701D01*
X79296Y279766D01*
X79369Y279834D01*
X79439Y279904D01*
X79507Y279977D01*
X79572Y280052D01*
X79634Y280130D01*
X79692Y280210D01*
X79748Y280293D01*
X79800Y280377D01*
X79850Y280464D01*
X79895Y280552D01*
X79938Y280642D01*
X79977Y280734D01*
X80012Y280827D01*
X80044Y280921D01*
X80072Y281016D01*
X80097Y281112D01*
X80118Y281210D01*
X80135Y281308D01*
X80148Y281406D01*
X80157Y281505D01*
X80163Y281605D01*
X80165Y281704D01*
X77569Y279108D02*
X77425Y279110D01*
X77280Y279116D01*
X77136Y279125D01*
X76993Y279138D01*
X76849Y279155D01*
X76706Y279176D01*
X76564Y279201D01*
X76423Y279229D01*
X76282Y279261D01*
X76142Y279297D01*
X76003Y279336D01*
X75865Y279379D01*
X75729Y279426D01*
X75593Y279476D01*
X75459Y279530D01*
X75327Y279587D01*
X75196Y279648D01*
X75067Y279712D01*
X74939Y279780D01*
X74813Y279850D01*
X74689Y279925D01*
X74568Y280002D01*
X74448Y280083D01*
X74330Y280166D01*
X74215Y280253D01*
X74102Y280343D01*
X73991Y280436D01*
X73883Y280531D01*
X73777Y280630D01*
X73674Y280731D01*
X73999Y288196D02*
X74001Y288295D01*
X74007Y288395D01*
X74016Y288494D01*
X74029Y288592D01*
X74046Y288690D01*
X74067Y288788D01*
X74092Y288884D01*
X74120Y288979D01*
X74152Y289073D01*
X74187Y289166D01*
X74226Y289258D01*
X74269Y289348D01*
X74314Y289436D01*
X74364Y289523D01*
X74416Y289607D01*
X74472Y289690D01*
X74530Y289770D01*
X74592Y289848D01*
X74657Y289923D01*
X74725Y289996D01*
X74795Y290066D01*
X74868Y290134D01*
X74943Y290199D01*
X75021Y290261D01*
X75101Y290319D01*
X75184Y290375D01*
X75268Y290427D01*
X75355Y290477D01*
X75443Y290522D01*
X75533Y290565D01*
X75625Y290604D01*
X75718Y290639D01*
X75812Y290671D01*
X75907Y290699D01*
X76004Y290724D01*
X76101Y290745D01*
X76199Y290762D01*
X76297Y290775D01*
X76396Y290784D01*
X76496Y290790D01*
X76595Y290792D01*
X76731Y290790D01*
X76867Y290784D01*
X77003Y290775D01*
X77139Y290762D01*
X77274Y290744D01*
X77408Y290724D01*
X77542Y290699D01*
X77676Y290671D01*
X77808Y290638D01*
X77939Y290603D01*
X78070Y290563D01*
X78199Y290520D01*
X78327Y290474D01*
X78453Y290423D01*
X78579Y290370D01*
X78702Y290312D01*
X78824Y290252D01*
X78944Y290188D01*
X79063Y290120D01*
X79179Y290050D01*
X79293Y289976D01*
X79406Y289899D01*
X79516Y289818D01*
X75296Y285924D02*
X75210Y285977D01*
X75126Y286034D01*
X75044Y286093D01*
X74964Y286156D01*
X74887Y286222D01*
X74812Y286290D01*
X74740Y286362D01*
X74671Y286436D01*
X74605Y286513D01*
X74542Y286592D01*
X74482Y286674D01*
X74425Y286758D01*
X74371Y286844D01*
X74321Y286932D01*
X74274Y287022D01*
X74230Y287113D01*
X74191Y287207D01*
X74154Y287301D01*
X74122Y287397D01*
X74093Y287495D01*
X74068Y287593D01*
X74047Y287692D01*
X74029Y287792D01*
X74016Y287892D01*
X74006Y287993D01*
X74000Y288095D01*
X73998Y288196D01*
X78867Y283976D02*
X78953Y283923D01*
X79037Y283866D01*
X79119Y283807D01*
X79199Y283744D01*
X79276Y283678D01*
X79351Y283610D01*
X79423Y283538D01*
X79492Y283464D01*
X79558Y283387D01*
X79621Y283308D01*
X79681Y283226D01*
X79738Y283142D01*
X79792Y283056D01*
X79842Y282968D01*
X79889Y282878D01*
X79933Y282787D01*
X79972Y282693D01*
X80009Y282599D01*
X80041Y282503D01*
X80070Y282405D01*
X80095Y282307D01*
X80116Y282208D01*
X80134Y282108D01*
X80147Y282008D01*
X80157Y281907D01*
X80163Y281805D01*
X80165Y281704D01*
X78867Y283976D02*
X75297Y285924D01*
X84300Y290792D02*
X86896Y279108D01*
X89492Y286897D01*
X92089Y279108D01*
X94685Y290792D01*
X101797Y290792D02*
X99201Y281704D01*
X105692Y281704D01*
X103745Y284301D02*
X103745Y279108D01*
D14*
X200110Y282000D03*
D10*
X218500Y286500D02*
X218500Y289500D01*
X221500Y289500D01*
X286500Y289500D02*
X289500Y289500D01*
X289500Y286500D01*
X289500Y218500D02*
X286500Y218500D01*
X289500Y218500D02*
X289500Y221500D01*
X218500Y221500D02*
X218500Y218500D01*
X221500Y218500D01*
D15*
X198480Y312853D02*
X198480Y318196D01*
X198480Y312853D02*
X198482Y312763D01*
X198488Y312674D01*
X198498Y312585D01*
X198511Y312496D01*
X198529Y312408D01*
X198550Y312321D01*
X198575Y312235D01*
X198604Y312150D01*
X198636Y312067D01*
X198673Y311985D01*
X198712Y311904D01*
X198755Y311826D01*
X198802Y311749D01*
X198852Y311674D01*
X198905Y311602D01*
X198961Y311532D01*
X199020Y311465D01*
X199082Y311400D01*
X199147Y311338D01*
X199214Y311279D01*
X199284Y311223D01*
X199356Y311170D01*
X199431Y311120D01*
X199508Y311073D01*
X199586Y311030D01*
X199667Y310991D01*
X199749Y310954D01*
X199832Y310922D01*
X199917Y310893D01*
X200003Y310868D01*
X200090Y310847D01*
X200178Y310829D01*
X200267Y310816D01*
X200356Y310806D01*
X200445Y310800D01*
X200535Y310798D01*
X200625Y310800D01*
X200714Y310806D01*
X200803Y310816D01*
X200892Y310829D01*
X200980Y310847D01*
X201067Y310868D01*
X201153Y310893D01*
X201238Y310922D01*
X201321Y310954D01*
X201403Y310991D01*
X201484Y311030D01*
X201563Y311073D01*
X201639Y311120D01*
X201714Y311170D01*
X201786Y311223D01*
X201856Y311279D01*
X201923Y311338D01*
X201988Y311400D01*
X202050Y311465D01*
X202109Y311532D01*
X202165Y311602D01*
X202218Y311674D01*
X202268Y311749D01*
X202315Y311826D01*
X202358Y311904D01*
X202397Y311985D01*
X202434Y312067D01*
X202466Y312150D01*
X202495Y312235D01*
X202520Y312321D01*
X202541Y312408D01*
X202559Y312496D01*
X202572Y312585D01*
X202582Y312674D01*
X202588Y312763D01*
X202590Y312853D01*
X202589Y312853D02*
X202589Y318196D01*
X206068Y316552D02*
X208123Y318196D01*
X208123Y310798D01*
X206068Y310798D02*
X210178Y310798D01*
D12*
X183800Y216900D02*
X171800Y216900D01*
X177800Y219900D02*
X183800Y219900D01*
X183800Y214900D02*
X171800Y214900D01*
X183800Y214900D02*
X183800Y216900D01*
X171800Y216900D02*
X171800Y214900D01*
X171800Y219900D02*
X177800Y219900D01*
X177800Y222900D01*
X177800Y211900D02*
X171800Y211900D01*
X177800Y211900D02*
X183800Y211900D01*
X177800Y211900D02*
X177800Y208900D01*
X162800Y188900D02*
X159800Y188900D01*
X159800Y242900D01*
X162800Y242900D01*
X192800Y188900D02*
X195800Y188900D01*
X195800Y242900D02*
X192800Y242900D01*
X195800Y242900D02*
X195800Y188900D01*
D16*
X156591Y190119D02*
X148209Y195707D01*
X148209Y190119D02*
X156591Y195707D01*
X150072Y199729D02*
X148209Y202057D01*
X156591Y202057D01*
X156591Y199729D02*
X156591Y204385D01*
D10*
X482600Y285750D02*
X482600Y298450D01*
X482600Y285750D02*
X476250Y279400D01*
X463550Y279400D01*
X457200Y285750D01*
X482600Y323850D02*
X476250Y330200D01*
X482600Y323850D02*
X482600Y311150D01*
X476250Y304800D01*
X463550Y304800D01*
X457200Y311150D01*
X457200Y323850D01*
X463550Y330200D01*
X476250Y304800D02*
X482600Y298450D01*
X463550Y304800D02*
X457200Y298450D01*
X457200Y285750D01*
X482600Y361950D02*
X482600Y374650D01*
X482600Y361950D02*
X476250Y355600D01*
X463550Y355600D01*
X457200Y361950D01*
X476250Y355600D02*
X482600Y349250D01*
X482600Y336550D01*
X476250Y330200D01*
X463550Y330200D01*
X457200Y336550D01*
X457200Y349250D01*
X463550Y355600D01*
X463550Y381000D02*
X476250Y381000D01*
X482600Y374650D01*
X463550Y381000D02*
X457200Y374650D01*
X457200Y361950D01*
X482600Y273050D02*
X482600Y260350D01*
X476250Y254000D01*
X463550Y254000D01*
X457200Y260350D01*
X476250Y279400D02*
X482600Y273050D01*
X463550Y279400D02*
X457200Y273050D01*
X457200Y260350D01*
M02*
