G04 EAGLE Gerber RS-274X export*
G75*
%MOMM*%
%FSLAX34Y34*%
%LPD*%
%INSoldermask Top*%
%IPPOS*%
%AMOC8*
5,1,8,0,0,1.08239X$1,22.5*%
G01*
%ADD10C,3.203200*%
%ADD11R,1.303200X1.203200*%
%ADD12R,1.203200X1.303200*%
%ADD13C,2.203200*%
%ADD14C,1.727200*%
%ADD15C,2.387600*%
%ADD16R,1.803200X0.753200*%
%ADD17R,0.753200X1.803200*%
%ADD18R,2.603200X2.203200*%
%ADD19C,0.959600*%


D10*
X25000Y25000D03*
X25000Y483000D03*
X483000Y483000D03*
X483000Y25000D03*
D11*
X321700Y241300D03*
X338700Y241300D03*
D12*
X177800Y258200D03*
X177800Y275200D03*
X152400Y258200D03*
X152400Y275200D03*
X165100Y160900D03*
X165100Y143900D03*
D13*
X244000Y145300D02*
X264000Y145300D01*
X264000Y84300D02*
X244000Y84300D01*
X302000Y104300D02*
X302000Y124300D01*
D14*
X228600Y373380D02*
X228600Y388620D01*
X254000Y388620D02*
X254000Y373380D01*
X462280Y127000D02*
X477520Y127000D01*
X477520Y152400D02*
X462280Y152400D01*
X462280Y177800D02*
X477520Y177800D01*
D11*
X228600Y186300D03*
X228600Y169300D03*
D12*
X118500Y431800D03*
X135500Y431800D03*
X118500Y342900D03*
X135500Y342900D03*
X118500Y241300D03*
X135500Y241300D03*
D15*
X411700Y76200D03*
X376700Y76200D03*
X94200Y431800D03*
X59200Y431800D03*
X94200Y342900D03*
X59200Y342900D03*
X94200Y241300D03*
X59200Y241300D03*
D16*
X212200Y282000D03*
X212200Y274000D03*
X212200Y266000D03*
X212200Y258000D03*
X212200Y250000D03*
X212200Y242000D03*
X212200Y234000D03*
X212200Y226000D03*
D17*
X226000Y212200D03*
X234000Y212200D03*
X242000Y212200D03*
X250000Y212200D03*
X258000Y212200D03*
X266000Y212200D03*
X274000Y212200D03*
X282000Y212200D03*
D16*
X295800Y226000D03*
X295800Y234000D03*
X295800Y242000D03*
X295800Y250000D03*
X295800Y258000D03*
X295800Y266000D03*
X295800Y274000D03*
X295800Y282000D03*
D17*
X282000Y295800D03*
X274000Y295800D03*
X266000Y295800D03*
X258000Y295800D03*
X250000Y295800D03*
X242000Y295800D03*
X234000Y295800D03*
X226000Y295800D03*
D18*
X177800Y195900D03*
X177800Y235900D03*
D14*
X462280Y368300D02*
X477520Y368300D01*
X477520Y342900D02*
X462280Y342900D01*
X462280Y317500D02*
X477520Y317500D01*
X477520Y292100D02*
X462280Y292100D01*
X462280Y266700D02*
X477520Y266700D01*
D19*
X157480Y276860D03*
X285750Y250190D03*
X306070Y257810D03*
X344170Y236220D03*
X173990Y276860D03*
X139700Y237490D03*
X162560Y138430D03*
X139700Y430530D03*
X139700Y341630D03*
X222250Y250190D03*
M02*
