M48
;GenerationSoftware,Autodesk,EAGLE,9.4.2*%
;CreationDate,2019-07-28T04:36:09Z*%
FMAT,2
ICI,OFF
METRIC,TZ,000.000
T4C0.350
T3C1.000
T2C1.016
T1C3.000
%
G90
M71
T1
X48300Y48300
X48300Y2500
X2500Y2500
X2500Y48300
T2
X22860Y38100
X46990Y34290
X46990Y31750
X46990Y29210
X46990Y26670
X25400Y38100
X46990Y12700
X46990Y15240
X46990Y17780
X46990Y36830
T3
X25400Y14530
X25400Y8430
X30200Y11430
X9420Y34290
X5920Y34290
X9420Y24130
X5920Y24130
X41170Y7620
X37670Y7620
X9420Y43180
X5920Y43180
T4
X28575Y25019
X30607Y25781
X34417Y23622
X17399Y27686
X13970Y23749
X16256Y13843
X13970Y43053
X13970Y34163
X22225Y25019
X15748Y27686
M30